<?xml version="1.0" encoding="UTF-8"?>
<svg id="Layer_3" data-name="Layer 3" xmlns="http://www.w3.org/2000/svg" viewBox="0 0 1920 1080">
  <defs>
    <style>
      .cls-1 {
        fill: #610000;
      }

      .cls-2 {
        fill: #eb23e1;
      }
    </style>
  </defs>
  <path class="cls-1" d="M275.83,496.41c0-2.68.37-5.11,1.1-7.3.73-2.19.85-4.99.37-8.39,7.53-16.05,16.05-30.89,25.54-44.51,9.73-13.86,21.28-26.03,34.66-36.49,2.19-1.7,3.89-3.41,5.11-5.11,1.46-1.95,2.8-3.77,4.02-5.47,1.46-1.7,3.04-3.16,4.74-4.38,1.7-1.46,3.89-2.43,6.57-2.92,6.08-7.05,13.38-13.5,21.9-19.34,8.51-5.84,17.39-11.43,26.63-16.78,9.25-5.35,18.49-10.82,27.73-16.42,9.49-5.59,18-11.68,25.54-18.24,2.68,1.7,4.75,2.31,6.2,1.82,1.7-.73,3.41-.85,5.11-.36,2.19,4.62,4.99,7.91,8.39,9.85,3.65,1.7,7.3,3.53,10.95,5.47,3.89,1.7,7.42,3.89,10.58,6.57,3.41,2.43,5.96,5.84,7.66,10.22-1.7,0-2.55.61-2.55,1.82.25,1.22.61,2.55,1.1,4.01.48,1.46.73,2.8.73,4.01s-1.1,1.82-3.28,1.82c0,1.7.85,2.55,2.55,2.55s2.55.85,2.55,2.55c0,1.46-.37,2.68-1.1,3.65-.48.73-.48,2.07,0,4.01-5.84,3.89-12.4,7.66-19.7,11.31-7.05,3.41-14.59,7.05-22.62,10.95-7.78,3.89-15.81,8.15-24.08,12.77-8.02,4.38-16.05,9.49-24.08,15.32-8.02,5.84-16.17,12.28-24.44,19.34-8.02,7.05-15.81,14.59-23.35,22.62-7.54,7.78-14.59,15.93-21.16,24.45-6.57,8.27-12.16,16.42-16.78,24.45.48,1.22,1.09,2.31,1.82,3.28.97.97,1.7,2.07,2.19,3.28,9.25.49,17.88.49,25.91,0,8.02-.73,16.05-.24,24.07,1.46.97-.73,1.58-1.7,1.83-2.92.24-1.22.97-2.07,2.19-2.55,16.54-1.7,31.98-4.38,46.34-8.03,14.35-3.89,28.95-7.78,43.78-11.68-4.37-1.7-8.27-3.04-11.68-4.01-1.46-1.46-1.46-2.68,0-3.65,1.7-1.22,3.04-2.43,4.02-3.65-3.89-2.19-7.18-5.11-9.85-8.76-2.43-3.65-3.89-8.39-4.37-14.23,1.7-1.46,2.55-3.16,2.55-5.11s-.86-3.53-2.55-4.74c-1.22-.49-1.95-.49-2.19,0l-.72,1.46c0,.49-.25.97-.73,1.46-.24.49-.86.49-1.83,0,.25-2.68.86-4.86,1.83-6.57.97-1.7,1.7-3.77,2.19-6.2l30.29-20.07c3.16,2.43,7.05,4.99,11.68,7.66,4.62,2.68,9.48,5.35,14.59,8.03,5.11,2.68,10.34,5.47,15.68,8.39,5.36,2.68,10.34,5.35,14.96,8.03,4.38,1.95,8.15,4.38,11.31,7.3,3.17,2.68,6.2,5.59,9.12,8.76l8.76,8.76c2.92,2.92,6.44,5.35,10.59,7.3-.49,3.89-.25,7.05.72,9.49.97,2.43,1.22,5.35.73,8.76-4.62,8.27-10.21,15.32-16.78,21.16-6.57,5.59-13.99,10.46-22.26,14.59-8.02,4.13-16.66,7.66-25.9,10.58-9.24,2.68-18.73,5.35-28.46,8.03-9.73,2.43-19.58,5.11-29.55,8.03-9.73,2.68-19.33,5.84-28.82,9.49-4.13,0-7.66.12-10.58.37-2.92.24-5.72.61-8.39,1.09l-8.03,1.46c-2.67.49-5.59.85-8.76,1.09-1.21-.24-2.06,0-2.55.73-.24.73-.73,1.34-1.46,1.82-4.86.73-9.25,1.1-13.14,1.1h-9.85c-3.41,0-6.94.49-10.59,1.46-3.65.97-7.05,1.34-10.21,1.09-21.9-.97-39.04-8.76-51.45-23.35-12.4-14.59-19.21-34.66-20.43-60.2.25-1.22,0-1.95-.72-2.19-.73-.49-1.34-.97-1.83-1.46ZM763.64,552.23c-1.46,4.14-3.65,8.39-6.57,12.77-2.67,4.13-5.95,7.91-9.85,11.31-3.65,3.16-7.78,5.84-12.41,8.03-4.62,2.19-9.49,3.41-14.59,3.65-3.16-.73-5.36-1.58-6.57-2.55-.97-.73-2.06-1.46-3.28-2.19-.72-.49-1.46-.85-2.19-1.09-.48-.49-.97-.85-1.46-1.09l-4.38-1.82,1.46-4.74c.48-1.95.36-3.41-.37-4.38-.73-1.22-2.19-2.8-4.38-4.74-.73-.73-1.46-1.46-2.19-2.19-.73-.73-1.34-1.46-1.82-2.19l-6.2-6.93,9.85-2.55c6.09-1.7,10.1-3.89,12.04-6.57,2.19-2.68,3.04-7.17,2.55-13.5-4.86-.97-9-1.1-12.4-.37-3.17.73-6.45,1.58-9.85,2.55-4.38,1.22-8.88,2.31-13.5,3.28-4.38.73-9.25,1.09-14.59,1.09h-5.48c-1.7-.24-3.53-.49-5.47-.73l-3.64-.73c-.49-2.68-.97-4.13-1.46-4.38-.48-.49-.97-.97-1.46-1.46-1.22-1.22-2.56-2.8-4.02-4.74-1.21-2.19-1.46-4.86-.73-8.03-1.21-2.19-1.95-4.38-2.19-6.57-1.46,2.92-2.55,5.96-3.28,9.12l-1.46,3.65-3.65.73c-.49.24-.86.85-1.1,1.82-.24.73-.37,1.34-.37,1.82l-1.82,6.2c-.49.49-.97.97-1.46,1.46-.48.24-.97.61-1.46,1.1-.49,2.19-1.1,4.38-1.82,6.57-.73,2.19-1.46,4.26-2.19,6.2-1.21,3.16-2.31,6.32-3.28,9.49-.72,2.92-.97,5.84-.72,8.76l-1.46,4.01c-1.21,1.46-2.55,2.68-4.01,3.65-1.46.73-2.92,1.46-4.38,2.19-.48.49-1.21.97-2.19,1.46-.73.24-1.34.49-1.83.73l-1.09,4.01-4.38.73c-2.67.49-4.62.85-5.84,1.09-.97.24-2.19.37-3.64.37l-3.65-.37c-2.68-2.19-4.75-3.89-6.2-5.11-1.46-1.46-3.16-2.8-5.11-4.01-2.19-2.92-3.41-5.11-3.65-6.57s-.49-2.8-.73-4.01c-.48-1.46-.73-2.68-.73-3.65-.24-.97-.61-1.7-1.09-2.19l-4.75-4.38,4.02-3.28.37-6.2c4.86-12.4,9.97-24.32,15.33-35.76,5.59-11.43,11.31-23.11,17.15-35.03,1.95-3.89,3.77-7.78,5.47-11.68,1.95-3.89,3.89-7.78,5.84-11.68-.24-.73-.37-1.58-.37-2.55s.24-2.07.73-3.28c2.68-4.14,4.86-7.78,6.57-10.95,1.7-3.41,3.4-6.81,5.11-10.22,1.95-4.13,3.89-8.15,5.84-12.04,2.19-3.89,4.86-7.91,8.02-12.04l5.84-2.55c.73-.24,1.58-.49,2.55-.73.97-.49,2.07-.73,3.28-.73l5.47.73c6.81-3.16,12.77-7.54,17.88-13.13,5.11-5.84,10.34-12.77,15.69-20.8l3.64-5.11,4.75,2.92c1.21.73,2.92,1.46,5.11,2.19,2.19.49,4.5,1.09,6.94,1.82,4.37.97,8.51,2.07,12.4,3.28,3.89,1.22,7.06,3.04,9.49,5.47,1.46,3.89,2.31,6.81,2.55,8.76.25,1.95.61,3.89,1.1,5.84.73,4.13,1.34,8.27,1.82,12.4.73,4.14,1.22,8.76,1.46,13.86,1.21,4.13,2.19,8.27,2.92,12.4.97,3.89,1.82,7.91,2.55,12.04,1.21,5.84,2.43,11.55,3.65,17.15,1.21,5.35,2.79,10.46,4.74,15.32,1.95,0,3.16.12,3.65.37,1.21-.49,2.43-.85,3.65-1.1,1.46-.24,3.04-.49,4.74-.73l4.02-.37,1.46,3.65c.24,1.22,1.46,2.43,3.65,3.65,3.16.24,5.47.97,6.93,2.19,1.46.97,2.8,2.07,4.02,3.28.97.97,1.95,1.7,2.92,2.19l5.47,2.19-2.92,5.47c-2.43,4.38-5.95,8.63-10.58,12.77-4.38,3.89-9.36,7.18-14.96,9.85.24,1.46.37,2.92.37,4.38.24,1.22.61,2.55,1.09,4.01.73,4.14,1.34,8.39,1.83,12.77.48,4.38.48,8.88,0,13.5l-.73,1.46ZM658.2,489.11c7.3-.49,13.86-.97,19.7-1.46,6.09-.73,12.77-1.82,20.07-3.28-1.7-7.3-3.53-14.84-5.48-22.62-1.95-8.03-4.01-15.93-6.2-23.72l-2.19,3.65c-4.86,5.11-9.61,10.82-14.23,17.15-4.37,6.32-8.15,12.28-11.31,17.88-1.46,2.19-2.92,4.38-4.37,6.57-1.46,2.19-2.8,4.38-4.02,6.57,1.46-.24,2.79-.37,4.02-.37,1.46,0,2.79-.12,4.01-.36ZM884.05,578.87c-6.81,2.19-14.23,4.38-22.26,6.57-8.02,2.19-16.05,3.28-24.07,3.28-12.17,0-21.77-3.04-28.82-9.12-1.22-2.68-2.31-4.5-3.28-5.47l-2.19-2.92c-.48-1.22-.85-2.8-1.09-4.74-2.92-3.41-5.23-7.3-6.94-11.68-1.7-4.62-2.92-9.24-3.65-13.86-.48-4.86-.61-9.73-.36-14.59.48-4.86,1.33-9.49,2.55-13.86.48-.97.72-1.95.72-2.92.25-.97.49-2.07.73-3.28.97-3.89,1.95-7.66,2.92-11.31,1.21-3.65,2.8-6.81,4.75-9.49-.97-2.19-.97-4.62,0-7.3.97-2.68,2.06-5.11,3.28-7.3,3.41-9.24,6.2-17.03,8.4-23.35,2.43-6.57,4.86-13.01,7.29-19.34,4.13-10.95,8.02-21.77,11.68-32.47,3.65-10.7,6.94-22.26,9.85-34.66,1.95-1.22,3.4-2.07,4.37-2.55,1.46-.49,2.68-.85,3.65-1.09,4.37,2.19,9.49,4.38,15.33,6.57,5.84,1.95,10.7,2.92,14.59,2.92,1.95,1.22,3.16,2.19,3.64,2.92.49.49.97.97,1.46,1.46,2.68,3.16,4.99,6.45,6.94,9.85,1.95,3.16,2.55,7.42,1.82,12.77-1.46,2.19-2.55,3.28-3.28,3.28-1.21,4.86-2.55,9-4.02,12.4-1.21,3.41-2.55,6.81-4.01,10.22-1.7,3.65-3.28,7.3-4.75,10.95-1.46,3.65-2.67,8.15-3.64,13.5-.97,1.22-1.7,2.31-2.19,3.28-.24.97-.61,2.07-1.09,3.28-.49,1.22-1.1,2.55-1.83,4.01-.48,1.22-1.33,2.31-2.55,3.28-.72,6.32-1.95,11.43-3.64,15.32-1.46,3.89-3.04,7.78-4.75,11.68-2.92,7.05-5.6,14.11-8.02,21.16-2.19,7.05-3.53,15.08-4.02,24.08,1.22-.49,2.31-.73,3.28-.73h3.28c2.19,0,4.74.37,7.66,1.09,7.3-3.89,15.21-6.2,23.72-6.93,8.76-.73,17.4-1.22,25.9-1.46h10.22c3.4,0,6.57-.24,9.49-.73,2.19,1.22,3.53,1.95,4.01,2.19h2.92c1.7,0,3.17.12,4.38.37,2.92,2.68,5.71,4.62,8.39,5.84,2.68,1.22,5.47,2.31,8.39,3.28,2.68.97,5.23,2.07,7.66,3.28,2.68.97,5.23,2.43,7.67,4.38l2.55,15.69c1.7,2.19,2.43,3.65,2.19,4.38,0,1.95-.48,3.41-1.46,4.38l.72,4.01c-3.64.73-6.2,1.58-7.66,2.55-1.21.97-2.43,2.07-3.65,3.28-1.95.24-3.4.36-4.37.36h-2.19c-3.41,0-7.54.61-12.41,1.82-6.57-2.19-13.38-3.28-20.43-3.28-2.68,0-5.47.12-8.39.37-2.92.24-5.84.49-8.76.73-2.92.49-5.96.85-9.12,1.09-2.92.24-5.96.37-9.12.37l-8.39,2.19ZM1083.26,578.87c-6.81,2.19-14.24,4.38-22.26,6.57-8.02,2.19-16.05,3.28-24.08,3.28-12.16,0-21.76-3.04-28.82-9.12-1.21-2.68-2.31-4.5-3.28-5.47-.72-.97-1.46-1.95-2.19-2.92-.48-1.22-.85-2.8-1.09-4.74-2.92-3.41-5.23-7.3-6.94-11.68-1.7-4.62-2.92-9.24-3.65-13.86-.48-4.86-.61-9.73-.37-14.59.49-4.86,1.34-9.49,2.55-13.86.49-.97.73-1.95.73-2.92.24-.97.49-2.07.73-3.28.97-3.89,1.95-7.66,2.92-11.31,1.21-3.65,2.79-6.81,4.74-9.49-.97-2.19-.97-4.62,0-7.3.97-2.68,2.07-5.11,3.28-7.3,3.41-9.24,6.2-17.03,8.39-23.35,2.44-6.57,4.86-13.01,7.3-19.34,4.13-10.95,8.02-21.77,11.68-32.47,3.65-10.7,6.93-22.26,9.85-34.66,1.95-1.22,3.41-2.07,4.38-2.55,1.46-.49,2.68-.85,3.65-1.09,4.37,2.19,9.48,4.38,15.32,6.57,5.84,1.95,10.7,2.92,14.59,2.92,1.95,1.22,3.17,2.19,3.65,2.92.49.49.97.97,1.46,1.46,2.67,3.16,4.98,6.45,6.93,9.85,1.95,3.16,2.55,7.42,1.83,12.77-1.46,2.19-2.55,3.28-3.28,3.28-1.21,4.86-2.55,9-4.02,12.4-1.21,3.41-2.55,6.81-4.01,10.22-1.7,3.65-3.28,7.3-4.75,10.95-1.46,3.65-2.68,8.15-3.65,13.5-.97,1.22-1.7,2.31-2.19,3.28-.24.97-.61,2.07-1.09,3.28-.49,1.22-1.1,2.55-1.83,4.01-.48,1.22-1.34,2.31-2.55,3.28-.73,6.32-1.95,11.43-3.65,15.32-1.46,3.89-3.04,7.78-4.74,11.68-2.92,7.05-5.6,14.11-8.02,21.16-2.19,7.05-3.53,15.08-4.02,24.08,1.21-.49,2.31-.73,3.28-.73h3.28c2.19,0,4.74.37,7.66,1.09,7.3-3.89,15.2-6.2,23.72-6.93,8.76-.73,17.39-1.22,25.9-1.46h10.22c3.4,0,6.56-.24,9.48-.73,2.19,1.22,3.53,1.95,4.02,2.19h2.92c1.7,0,3.16.12,4.38.37,2.92,2.68,5.71,4.62,8.39,5.84,2.67,1.22,5.47,2.31,8.39,3.28,2.68.97,5.23,2.07,7.66,3.28,2.68.97,5.23,2.43,7.67,4.38l2.55,15.69c1.7,2.19,2.43,3.65,2.19,4.38,0,1.95-.49,3.41-1.46,4.38l.73,4.01c-3.65.73-6.2,1.58-7.66,2.55-1.21.97-2.44,2.07-3.65,3.28-1.95.24-3.4.36-4.37.36h-2.19c-3.4,0-7.53.61-12.4,1.82-6.57-2.19-13.38-3.28-20.43-3.28-2.68,0-5.48.12-8.4.37-2.92.24-5.84.49-8.76.73-2.92.49-5.95.85-9.11,1.09-2.92.24-5.96.37-9.12.37l-8.39,2.19ZM1389.74,377.47c.24,1.7.24,3.04,0,4.01,0,.73-.12,1.46-.37,2.19v2.55c0,.73.24,1.95.72,3.65-5.11,8.27-11.06,13.99-17.87,17.15-6.57,2.92-13.75,5.11-21.53,6.57-7.78,1.22-15.81,2.55-24.08,4.01-8.02,1.46-16.05,4.62-24.08,9.49-3.16-1.22-6.08-1.22-8.76,0-2.43,1.22-6.08,1.58-10.94,1.09-1.46,1.46-3.28,2.55-5.47,3.28-2.19.49-4.37,1.09-6.57,1.82.97,2.19,1.34,4.5,1.1,6.93,0,2.19.37,4.01,1.1,5.47,8.51.73,17.87.61,28.09-.36,10.46-.97,20.67-1.58,30.64-1.82.25,1.22.12,2.07-.36,2.55-.49.24-.61.85-.37,1.82,1.7,1.22,3.4,2.8,5.11,4.74,1.7,1.7,3.4,3.41,5.11,5.11,1.7,1.7,3.41,3.16,5.11,4.38,1.95.97,4.14,1.34,6.57,1.09.97,1.95,1.58,4.14,1.83,6.57.48,2.19.24,4.5-.73,6.93-3.89,2.68-7.78,5.47-11.68,8.39-3.89,2.68-8.02,5.11-12.41,7.3-4.13,2.19-8.63,4.01-13.5,5.47-4.62,1.22-9.85,1.7-15.69,1.46h-2.92c-.48,0-1.21-.37-2.19-1.1-1.95,1.22-4.75,1.58-8.39,1.1-3.41-.49-6.09-.12-8.03,1.09-2.67-1.22-5.95-1.7-9.85-1.46-3.65,0-6.94-.49-9.85-1.46-3.89,5.11-7.42,10.58-10.58,16.42-3.16,5.84-5.96,12.04-8.39,18.61,8.27,1.22,15.08,1.7,20.43,1.46,5.59-.24,10.82-.61,15.68-1.09,4.86-.73,9.85-1.34,14.96-1.82,5.11-.73,11.56-.97,19.34-.73,4.86-2.68,10.58-4.38,17.15-5.11,6.81-.97,13.01-2.43,18.6-4.38,1.95.73,3.65,2.07,5.11,4.01,1.46,1.7,2.79,3.41,4.01,5.11,1.46,1.46,2.92,2.8,4.38,4.01,1.46,1.22,3.28,1.7,5.47,1.46.97.97,1.58,2.19,1.82,3.65.49,1.22.86,2.43,1.1,3.65.24,1.22.61,2.31,1.09,3.28.73.73,1.83.97,3.28.73-3.64,8.03-7.9,14.23-12.77,18.61-4.62,4.14-9.98,7.3-16.06,9.49-6.08,2.19-12.89,3.89-20.43,5.11-7.29,1.22-15.44,2.68-24.44,4.38-2.19.49-4.02.37-5.48-.36-1.46-.49-3.16-.73-5.11-.73-5.6,1.22-12.28,2.31-20.07,3.28-7.78.97-15.69,1.34-23.72,1.09-8.02-.24-15.68-1.34-22.98-3.28-7.29-1.7-13.26-4.86-17.88-9.49-1.95-1.7-3.28-3.65-4.01-5.84-.49-2.43-2.07-4.26-4.75-5.47-.24-3.16-.73-6.69-1.46-10.58-.73-3.89-1.46-7.91-2.19-12.04-.72-4.38-1.33-8.64-1.82-12.77-.24-4.14,0-7.91.73-11.31.73-3.65,2.19-6.93,4.37-9.85,2.44-2.92,3.28-6.08,2.55-9.49,1.22-.24,1.95-.85,2.19-1.82.24-1.22,1.21-1.7,2.92-1.46,1.46-4.38,3.04-8.51,4.74-12.4,1.7-3.89,3.41-7.66,5.11-11.31,1.95-3.65,3.77-7.3,5.47-10.95,1.95-3.89,3.77-8.15,5.48-12.77-3.41-3.16-5.96-6.57-7.67-10.22-1.46-3.89-2.55-7.66-3.28-11.31-.72-3.89-1.34-7.78-1.82-11.68-.49-4.13-1.34-8.27-2.55-12.4,2.43-3.65,5.35-6.57,8.76-8.76,3.65-2.43,7.54-4.38,11.68-5.84,4.13-1.46,8.63-2.68,13.5-3.65,4.86-.97,9.97-2.07,15.33-3.28,9.73-3.16,18.36-5.59,25.9-7.3,7.78-1.7,15.33-3.04,22.62-4.01,7.54-1.22,15.33-2.31,23.35-3.28,8.03-.97,17.15-2.43,27.37-4.38,2.19,2.19,4.26,3.28,6.2,3.28.97-2.19,2.06-2.8,3.28-1.82,1.46.73,2.06,0,1.82-2.19,2.44,4.14,5.47,7.66,9.12,10.58,3.89,2.68,8.15,4.99,12.77,6.93ZM1436.08,544.94c-2.68,9.73-5.11,17.15-7.3,22.26-1.95,4.86-4.98,9.97-9.12,15.32-3.16-.49-5.35-.12-6.56,1.09-1.22,1.22-2.56,2.31-4.02,3.28-2.19.49-3.77.49-4.74,0s-1.83-1.1-2.56-1.82c-.72-.49-1.7-1.09-2.92-1.82-.97-.49-2.55-.73-4.74-.73-.48-1.95-1.1-3.77-1.82-5.47-.49-1.7-2.07-2.31-4.75-1.82.49-1.95.61-3.53.37-4.74-.24-1.46-.61-2.68-1.09-3.65-.25-1.22-.49-2.31-.73-3.28-.24-1.22-.12-2.68.37-4.38-1.22,0-2.19-.85-2.92-2.55-.73-1.7-1.58-3.41-2.55-5.11.72-4.38,1.46-8.51,2.19-12.41s1.58-7.54,2.55-10.95c1.21-3.41,2.19-6.81,2.92-10.22s.37-6.93-1.1-10.58c.97.73,1.7.61,2.19-.37.48-1.22.85-2.68,1.09-4.38.24-1.95.37-3.77.37-5.47,0-1.95-.12-3.53-.37-4.74,2.44-6.32,4.38-12.77,5.84-19.34,1.7-6.81,3.16-13.5,4.38-20.07,1.46-6.57,2.92-13.01,4.37-19.34,1.46-6.32,3.41-12.16,5.84-17.51,2.68-.49,5.6-.12,8.76,1.09,3.41.97,5.47,2.31,6.2,4.01,6.33-4.86,11.92-10.7,16.78-17.51,4.86-7.05,9.85-13.86,14.96-20.43,5.11-6.57,10.7-12.4,16.78-17.51,6.33-5.11,14.24-8.15,23.72-9.12,4.86,3.65,10.22,7.42,16.06,11.31,6.08,3.65,11.07,8.51,14.96,14.59,1.95.97,3.53,2.07,4.74,3.28,1.46.97,3.16,2.07,5.11,3.28v4.38c2.92,2.68,5.23,5.84,6.94,9.49,1.95,3.41,3.65,7.17,5.11,11.31,1.46,3.89,2.92,7.91,4.38,12.04,1.46,3.89,3.16,7.66,5.11,11.31-.49,1.22-.73,2.31-.73,3.28,0,.73.12,1.58.37,2.55.49.97.85,1.95,1.1,2.92.24.97.24,2.31,0,4.01-.73,10.7-4.26,19.34-10.59,25.9-6.08,6.57-13.5,12.04-22.25,16.42-8.76,4.14-18.12,7.66-28.09,10.58-9.98,2.92-18.98,6.08-27,9.49,0,.97.37,1.46,1.09,1.46.97,0,1.34.61,1.1,1.82,5.84,3.65,10.46,6.57,13.86,8.76,3.41,2.19,6.57,4.01,9.49,5.47,3.16,1.46,6.44,2.8,9.85,4.01,3.64.97,8.63,2.19,14.96,3.65,6.32,1.46,11.19,2.68,14.59,3.65,3.64.73,6.93,1.46,9.85,2.19l8.76,1.46c3.16.24,7.54.61,13.14,1.09,2.19,2.19,4.01,4.86,5.47,8.03,1.7,2.92,2.79,5.96,3.28,9.12.48,2.92.61,5.84.37,8.76-.25,2.68-1.1,4.86-2.56,6.57.25.73.73,1.09,1.46,1.09.97-.24,1.95-.24,2.92,0-1.46.97-2.68,2.19-3.65,3.65s-1.95,2.92-2.92,4.38c-.97,1.46-2.06,2.68-3.28,3.65-1.21,1.22-2.92,1.95-5.11,2.19-7.54,2.92-17.02,3.04-28.46.37-11.43-2.43-25.9-7.05-43.42-13.86-8.76-3.41-15.93-6.32-21.53-8.76-5.35-2.68-10.1-5.23-14.23-7.66-3.89-2.68-7.54-5.47-10.94-8.39-3.17-2.92-7.06-6.45-11.68-10.58ZM1488.25,419.79c-2.68,3.89-5.72,7.42-9.12,10.58-3.16,3.16-6.33,6.45-9.49,9.85-2.92,3.16-5.6,6.81-8.02,10.95-2.44,3.89-4.13,8.51-5.11,13.86,8.51-.97,17.39-3.28,26.64-6.93,9.24-3.89,18-7.54,26.27-10.95-.97-7.54-3.65-13.62-8.03-18.24-4.13-4.62-8.51-7.66-13.13-9.12ZM1656.81,557.34c1.21,7.3.73,13.01-1.46,17.15-1.95,4.14-4.86,7.18-8.76,9.12-3.65,2.19-7.91,3.41-12.77,3.65-4.86.24-9.49,0-13.86-.73-2.44-3.41-4.62-7.66-6.57-12.77-1.95-5.11-3.77-10.34-5.47-15.69-1.7-5.59-3.28-11.07-4.75-16.42-1.21-5.35-2.3-10.09-3.28-14.23,1.21-2.92,1.95-6.2,2.19-9.85.48-3.89.73-7.78.73-11.68.24-3.89.36-7.78.36-11.68.25-4.13.61-8.03,1.1-11.68,1.7-10.22,4.13-19.95,7.3-29.19,3.4-9.24,6.08-18.85,8.02-28.82.48-2.19.24-4.26-.73-6.2-.73-1.95-.85-3.77-.37-5.47.24-.97.97-1.58,2.19-1.82,1.22-.49,1.95-1.34,2.19-2.55.72-2.68.85-4.86.37-6.57-.25-1.7.24-3.77,1.46-6.2,1.21-1.95,2.68-4.74,4.38-8.39,1.95-3.89,2.67-7.91,2.19-12.04,2.19-1.46,4.26-3.16,6.2-5.11,1.95-1.95,3.89-3.65,5.84-5.11,2.19-1.7,4.5-3.16,6.93-4.38,2.68-1.22,5.84-1.82,9.49-1.82,1.95,2.43,3.16,5.11,3.65,8.03.73,2.92,1.34,5.84,1.82,8.76.73,2.92,1.7,5.72,2.92,8.39,1.21,2.43,3.28,4.38,6.2,5.84v7.3c0,2.92.12,5.84.37,8.76.24,2.68.73,5.23,1.46,7.66.97,2.19,2.44,3.65,4.38,4.38-4.38,11.68-8.52,23.23-12.41,34.66-3.65,11.43-6.69,22.99-9.12,34.66-2.43,11.43-4.01,22.99-4.74,34.66-.49,11.68.37,23.47,2.55,35.39Z"/>
  <path class="cls-2" d="M303.95,482.35c0-2.68.37-5.11,1.1-7.3.73-2.19.85-4.99.37-8.39,7.53-16.05,16.05-30.89,25.54-44.51,9.73-13.86,21.28-26.03,34.66-36.49,2.19-1.7,3.89-3.41,5.11-5.11,1.46-1.95,2.8-3.77,4.02-5.47,1.46-1.7,3.04-3.16,4.74-4.38,1.7-1.46,3.89-2.43,6.57-2.92,6.08-7.05,13.38-13.5,21.9-19.34,8.51-5.84,17.39-11.43,26.63-16.78,9.25-5.35,18.49-10.82,27.73-16.42,9.49-5.59,18-11.68,25.54-18.24,2.68,1.7,4.75,2.31,6.2,1.82,1.7-.73,3.41-.85,5.11-.36,2.19,4.62,4.99,7.91,8.39,9.85,3.65,1.7,7.3,3.53,10.95,5.47,3.89,1.7,7.42,3.89,10.58,6.57,3.41,2.43,5.96,5.84,7.66,10.22-1.7,0-2.55.61-2.55,1.82.25,1.22.61,2.55,1.1,4.01.48,1.46.73,2.8.73,4.01s-1.1,1.82-3.28,1.82c0,1.7.85,2.55,2.55,2.55s2.55.85,2.55,2.55c0,1.46-.37,2.68-1.1,3.65-.48.73-.48,2.07,0,4.01-5.84,3.89-12.4,7.66-19.7,11.31-7.05,3.41-14.59,7.05-22.62,10.95-7.78,3.89-15.81,8.15-24.08,12.77-8.02,4.38-16.05,9.49-24.08,15.32-8.02,5.84-16.17,12.28-24.44,19.34-8.02,7.05-15.81,14.59-23.35,22.62-7.54,7.78-14.59,15.93-21.16,24.45-6.57,8.27-12.16,16.42-16.78,24.45.48,1.22,1.09,2.31,1.82,3.28.97.97,1.7,2.07,2.19,3.28,9.25.49,17.88.49,25.91,0,8.02-.73,16.05-.24,24.07,1.46.97-.73,1.58-1.7,1.83-2.92.24-1.22.97-2.07,2.19-2.55,16.54-1.7,31.98-4.38,46.34-8.03,14.35-3.89,28.95-7.78,43.78-11.68-4.37-1.7-8.27-3.04-11.68-4.01-1.46-1.46-1.46-2.68,0-3.65,1.7-1.22,3.04-2.43,4.02-3.65-3.89-2.19-7.18-5.11-9.85-8.76-2.43-3.65-3.89-8.39-4.37-14.23,1.7-1.46,2.55-3.16,2.55-5.11s-.86-3.53-2.55-4.74c-1.22-.49-1.95-.49-2.19,0l-.72,1.46c0,.49-.25.97-.73,1.46-.24.49-.86.49-1.83,0,.25-2.68.86-4.86,1.83-6.57.97-1.7,1.7-3.77,2.19-6.2l30.29-20.07c3.16,2.43,7.05,4.99,11.68,7.66,4.62,2.68,9.48,5.35,14.59,8.03,5.11,2.68,10.34,5.47,15.68,8.39,5.36,2.68,10.34,5.35,14.96,8.03,4.38,1.95,8.15,4.38,11.31,7.3,3.17,2.68,6.2,5.59,9.12,8.76l8.76,8.76c2.92,2.92,6.44,5.35,10.59,7.3-.49,3.89-.25,7.05.72,9.49.97,2.43,1.22,5.35.73,8.76-4.62,8.27-10.21,15.32-16.78,21.16-6.57,5.59-13.99,10.46-22.26,14.59-8.02,4.13-16.66,7.66-25.9,10.58-9.24,2.68-18.73,5.35-28.46,8.03-9.73,2.43-19.58,5.11-29.55,8.03-9.73,2.68-19.33,5.84-28.82,9.49-4.13,0-7.66.12-10.58.37-2.92.24-5.72.61-8.39,1.09l-8.03,1.46c-2.67.49-5.59.85-8.76,1.09-1.21-.24-2.06,0-2.55.73-.24.73-.73,1.34-1.46,1.82-4.86.73-9.25,1.1-13.14,1.1h-9.85c-3.41,0-6.94.49-10.59,1.46-3.65.97-7.05,1.34-10.21,1.09-21.9-.97-39.04-8.76-51.45-23.35-12.4-14.59-19.21-34.66-20.43-60.2.25-1.22,0-1.95-.72-2.19-.73-.49-1.34-.97-1.83-1.46ZM791.77,538.17c-1.46,4.14-3.65,8.39-6.57,12.77-2.67,4.13-5.95,7.91-9.85,11.31-3.65,3.16-7.78,5.84-12.41,8.03-4.62,2.19-9.49,3.41-14.59,3.65-3.16-.73-5.36-1.58-6.57-2.55-.97-.73-2.06-1.46-3.28-2.19-.72-.49-1.46-.85-2.19-1.09-.48-.49-.97-.85-1.46-1.09l-4.38-1.82,1.46-4.74c.48-1.95.36-3.41-.37-4.38-.73-1.22-2.19-2.8-4.38-4.74-.73-.73-1.46-1.46-2.19-2.19-.73-.73-1.34-1.46-1.82-2.19l-6.2-6.93,9.85-2.55c6.09-1.7,10.1-3.89,12.04-6.57,2.19-2.68,3.04-7.17,2.55-13.5-4.86-.97-9-1.1-12.4-.37-3.17.73-6.45,1.58-9.85,2.55-4.38,1.22-8.88,2.31-13.5,3.28-4.38.73-9.25,1.09-14.59,1.09h-5.48c-1.7-.24-3.53-.49-5.47-.73l-3.64-.73c-.49-2.68-.97-4.13-1.46-4.38-.48-.49-.97-.97-1.46-1.46-1.22-1.22-2.56-2.8-4.02-4.74-1.21-2.19-1.46-4.86-.73-8.03-1.21-2.19-1.95-4.38-2.19-6.57-1.46,2.92-2.55,5.96-3.28,9.12l-1.46,3.65-3.65.73c-.49.24-.86.85-1.1,1.82-.24.73-.37,1.34-.37,1.82l-1.82,6.2c-.49.49-.97.97-1.46,1.46-.48.24-.97.61-1.46,1.1-.49,2.19-1.1,4.38-1.82,6.57-.73,2.19-1.46,4.26-2.19,6.2-1.21,3.16-2.31,6.32-3.28,9.49-.72,2.92-.97,5.84-.72,8.76l-1.46,4.01c-1.21,1.46-2.55,2.68-4.01,3.65-1.46.73-2.92,1.46-4.38,2.19-.48.49-1.21.97-2.19,1.46-.73.24-1.34.49-1.83.73l-1.09,4.01-4.38.73c-2.67.49-4.62.85-5.84,1.09-.97.24-2.19.37-3.64.37l-3.65-.37c-2.68-2.19-4.75-3.89-6.2-5.11-1.46-1.46-3.16-2.8-5.11-4.01-2.19-2.92-3.41-5.11-3.65-6.57s-.49-2.8-.73-4.01c-.48-1.46-.73-2.68-.73-3.65-.24-.97-.61-1.7-1.09-2.19l-4.75-4.38,4.02-3.28.37-6.2c4.86-12.4,9.97-24.32,15.33-35.76,5.59-11.43,11.31-23.11,17.15-35.03,1.95-3.89,3.77-7.78,5.47-11.68,1.95-3.89,3.89-7.78,5.84-11.68-.24-.73-.37-1.58-.37-2.55s.24-2.07.73-3.28c2.68-4.14,4.86-7.78,6.57-10.95,1.7-3.41,3.4-6.81,5.11-10.22,1.95-4.13,3.89-8.15,5.84-12.04,2.19-3.89,4.86-7.91,8.02-12.04l5.84-2.55c.73-.24,1.58-.49,2.55-.73.97-.49,2.07-.73,3.28-.73l5.47.73c6.81-3.16,12.77-7.54,17.88-13.13,5.11-5.84,10.34-12.77,15.69-20.8l3.64-5.11,4.75,2.92c1.21.73,2.92,1.46,5.11,2.19,2.19.49,4.5,1.09,6.94,1.82,4.37.97,8.51,2.07,12.4,3.28,3.89,1.22,7.06,3.04,9.49,5.47,1.46,3.89,2.31,6.81,2.55,8.76.25,1.95.61,3.89,1.1,5.84.73,4.13,1.34,8.27,1.82,12.4.73,4.14,1.22,8.76,1.46,13.86,1.21,4.13,2.19,8.27,2.92,12.4.97,3.89,1.82,7.91,2.55,12.04,1.21,5.84,2.43,11.55,3.65,17.15,1.21,5.35,2.79,10.46,4.74,15.32,1.95,0,3.16.12,3.65.37,1.21-.49,2.43-.85,3.65-1.1,1.46-.24,3.04-.49,4.74-.73l4.02-.37,1.46,3.65c.24,1.22,1.46,2.43,3.65,3.65,3.16.24,5.47.97,6.93,2.19,1.46.97,2.8,2.07,4.02,3.28.97.97,1.95,1.7,2.92,2.19l5.47,2.19-2.92,5.47c-2.43,4.38-5.95,8.63-10.58,12.77-4.38,3.89-9.36,7.18-14.96,9.85.24,1.46.37,2.92.37,4.38.24,1.22.61,2.55,1.09,4.01.73,4.14,1.34,8.39,1.83,12.77.48,4.38.48,8.88,0,13.5l-.73,1.46ZM686.32,475.05c7.3-.49,13.86-.97,19.7-1.46,6.09-.73,12.77-1.82,20.07-3.28-1.7-7.3-3.53-14.84-5.48-22.62-1.95-8.03-4.01-15.93-6.2-23.72l-2.19,3.65c-4.86,5.11-9.61,10.82-14.23,17.15-4.37,6.32-8.15,12.28-11.31,17.88-1.46,2.19-2.92,4.38-4.37,6.57-1.46,2.19-2.8,4.38-4.02,6.57,1.46-.24,2.79-.37,4.02-.37,1.46,0,2.79-.12,4.01-.36ZM912.17,564.81c-6.81,2.19-14.23,4.38-22.26,6.57-8.02,2.19-16.05,3.28-24.07,3.28-12.17,0-21.77-3.04-28.82-9.12-1.22-2.68-2.31-4.5-3.28-5.47l-2.19-2.92c-.48-1.22-.85-2.8-1.09-4.74-2.92-3.41-5.23-7.3-6.94-11.68-1.7-4.62-2.92-9.24-3.65-13.86-.48-4.86-.61-9.73-.36-14.59.48-4.86,1.33-9.49,2.55-13.86.48-.97.72-1.95.72-2.92.25-.97.49-2.07.73-3.28.97-3.89,1.95-7.66,2.92-11.31,1.21-3.65,2.8-6.81,4.75-9.49-.97-2.19-.97-4.62,0-7.3.97-2.68,2.06-5.11,3.28-7.3,3.41-9.24,6.2-17.03,8.4-23.35,2.43-6.57,4.86-13.01,7.29-19.34,4.13-10.95,8.02-21.77,11.68-32.47,3.65-10.7,6.94-22.26,9.85-34.66,1.95-1.22,3.4-2.07,4.37-2.55,1.46-.49,2.68-.85,3.65-1.09,4.37,2.19,9.49,4.38,15.33,6.57,5.84,1.95,10.7,2.92,14.59,2.92,1.95,1.22,3.16,2.19,3.64,2.92.49.49.97.97,1.46,1.46,2.68,3.16,4.99,6.45,6.94,9.85,1.95,3.16,2.55,7.42,1.82,12.77-1.46,2.19-2.55,3.28-3.28,3.28-1.21,4.86-2.55,9-4.02,12.4-1.21,3.41-2.55,6.81-4.01,10.22-1.7,3.65-3.28,7.3-4.75,10.95-1.46,3.65-2.67,8.15-3.64,13.5-.97,1.22-1.7,2.31-2.19,3.28-.24.97-.61,2.07-1.09,3.28-.49,1.22-1.1,2.55-1.83,4.01-.48,1.22-1.33,2.31-2.55,3.28-.72,6.32-1.95,11.43-3.64,15.32-1.46,3.89-3.04,7.78-4.75,11.68-2.92,7.05-5.6,14.11-8.02,21.16-2.19,7.05-3.53,15.08-4.02,24.08,1.22-.49,2.31-.73,3.28-.73h3.28c2.19,0,4.74.37,7.66,1.09,7.3-3.89,15.21-6.2,23.72-6.93,8.76-.73,17.4-1.22,25.9-1.46h10.22c3.4,0,6.57-.24,9.49-.73,2.19,1.22,3.53,1.95,4.01,2.19h2.92c1.7,0,3.17.12,4.38.37,2.92,2.68,5.71,4.62,8.39,5.84,2.68,1.22,5.47,2.31,8.39,3.28,2.68.97,5.23,2.07,7.66,3.28,2.68.97,5.23,2.43,7.67,4.38l2.55,15.69c1.7,2.19,2.43,3.65,2.19,4.38,0,1.95-.48,3.41-1.46,4.38l.72,4.01c-3.64.73-6.2,1.58-7.66,2.55-1.21.97-2.43,2.07-3.65,3.28-1.95.24-3.4.36-4.37.36h-2.19c-3.41,0-7.54.61-12.41,1.82-6.57-2.19-13.38-3.28-20.43-3.28-2.68,0-5.47.12-8.39.37-2.92.24-5.84.49-8.76.73-2.92.49-5.96.85-9.12,1.09-2.92.24-5.96.37-9.12.37l-8.39,2.19ZM1111.39,564.81c-6.81,2.19-14.24,4.38-22.26,6.57-8.02,2.19-16.05,3.28-24.08,3.28-12.16,0-21.76-3.04-28.82-9.12-1.21-2.68-2.31-4.5-3.28-5.47-.72-.97-1.46-1.95-2.19-2.92-.48-1.22-.85-2.8-1.09-4.74-2.92-3.41-5.23-7.3-6.94-11.68-1.7-4.62-2.92-9.24-3.65-13.86-.48-4.86-.61-9.73-.37-14.59.49-4.86,1.34-9.49,2.55-13.86.49-.97.73-1.95.73-2.92.24-.97.49-2.07.73-3.28.97-3.89,1.95-7.66,2.92-11.31,1.21-3.65,2.79-6.81,4.74-9.49-.97-2.19-.97-4.62,0-7.3.97-2.68,2.07-5.11,3.28-7.3,3.41-9.24,6.2-17.03,8.39-23.35,2.44-6.57,4.86-13.01,7.3-19.34,4.13-10.95,8.02-21.77,11.68-32.47,3.65-10.7,6.93-22.26,9.85-34.66,1.95-1.22,3.41-2.07,4.38-2.55,1.46-.49,2.68-.85,3.65-1.09,4.37,2.19,9.48,4.38,15.32,6.57,5.84,1.95,10.7,2.92,14.59,2.92,1.95,1.22,3.17,2.19,3.65,2.92.49.49.97.97,1.46,1.46,2.67,3.16,4.98,6.45,6.93,9.85,1.95,3.16,2.55,7.42,1.83,12.77-1.46,2.19-2.55,3.28-3.28,3.28-1.21,4.86-2.55,9-4.02,12.4-1.21,3.41-2.55,6.81-4.01,10.22-1.7,3.65-3.28,7.3-4.75,10.95-1.46,3.65-2.68,8.15-3.65,13.5-.97,1.22-1.7,2.31-2.19,3.28-.24.97-.61,2.07-1.09,3.28-.49,1.22-1.1,2.55-1.83,4.01-.48,1.22-1.34,2.31-2.55,3.28-.73,6.32-1.95,11.43-3.65,15.32-1.46,3.89-3.04,7.78-4.74,11.68-2.92,7.05-5.6,14.11-8.02,21.16-2.19,7.05-3.53,15.08-4.02,24.08,1.21-.49,2.31-.73,3.28-.73h3.28c2.19,0,4.74.37,7.66,1.09,7.3-3.89,15.2-6.2,23.72-6.93,8.76-.73,17.39-1.22,25.9-1.46h10.22c3.4,0,6.56-.24,9.48-.73,2.19,1.22,3.53,1.95,4.02,2.19h2.92c1.7,0,3.16.12,4.38.37,2.92,2.68,5.71,4.62,8.39,5.84,2.67,1.22,5.47,2.31,8.39,3.28,2.68.97,5.23,2.07,7.66,3.28,2.68.97,5.23,2.43,7.67,4.38l2.55,15.69c1.7,2.19,2.43,3.65,2.19,4.38,0,1.95-.49,3.41-1.46,4.38l.73,4.01c-3.65.73-6.2,1.58-7.66,2.55-1.21.97-2.44,2.07-3.65,3.28-1.95.24-3.4.36-4.37.36h-2.19c-3.4,0-7.53.61-12.4,1.82-6.57-2.19-13.38-3.28-20.43-3.28-2.68,0-5.48.12-8.4.37-2.92.24-5.84.49-8.76.73-2.92.49-5.95.85-9.11,1.09-2.92.24-5.96.37-9.12.37l-8.39,2.19ZM1417.86,363.4c.24,1.7.24,3.04,0,4.01,0,.73-.12,1.46-.37,2.19v2.55c0,.73.24,1.95.72,3.65-5.11,8.27-11.06,13.99-17.87,17.15-6.57,2.92-13.75,5.11-21.53,6.57-7.78,1.22-15.81,2.55-24.08,4.01-8.02,1.46-16.05,4.62-24.08,9.49-3.16-1.22-6.08-1.22-8.76,0-2.43,1.22-6.08,1.58-10.94,1.09-1.46,1.46-3.28,2.55-5.47,3.28-2.19.49-4.37,1.09-6.57,1.82.97,2.19,1.34,4.5,1.1,6.93,0,2.19.37,4.01,1.1,5.47,8.51.73,17.87.61,28.09-.36,10.46-.97,20.67-1.58,30.64-1.82.25,1.22.12,2.07-.36,2.55-.49.24-.61.85-.37,1.82,1.7,1.22,3.4,2.8,5.11,4.74,1.7,1.7,3.4,3.41,5.11,5.11,1.7,1.7,3.41,3.16,5.11,4.38,1.95.97,4.14,1.34,6.57,1.09.97,1.95,1.58,4.14,1.83,6.57.48,2.19.24,4.5-.73,6.93-3.89,2.68-7.78,5.47-11.68,8.39-3.89,2.68-8.02,5.11-12.41,7.3-4.13,2.19-8.63,4.01-13.5,5.47-4.62,1.22-9.85,1.7-15.69,1.46h-2.92c-.48,0-1.21-.37-2.19-1.1-1.95,1.22-4.75,1.58-8.39,1.1-3.41-.49-6.09-.12-8.03,1.09-2.67-1.22-5.95-1.7-9.85-1.46-3.65,0-6.94-.49-9.85-1.46-3.89,5.11-7.42,10.58-10.58,16.42-3.16,5.84-5.96,12.04-8.39,18.61,8.27,1.22,15.08,1.7,20.43,1.46,5.59-.24,10.82-.61,15.68-1.09,4.86-.73,9.85-1.34,14.96-1.82,5.11-.73,11.56-.97,19.34-.73,4.86-2.68,10.58-4.38,17.15-5.11,6.81-.97,13.01-2.43,18.6-4.38,1.95.73,3.65,2.07,5.11,4.01,1.46,1.7,2.79,3.41,4.01,5.11,1.46,1.46,2.92,2.8,4.38,4.01,1.46,1.22,3.28,1.7,5.47,1.46.97.97,1.58,2.19,1.82,3.65.49,1.22.86,2.43,1.1,3.65.24,1.22.61,2.31,1.09,3.28.73.73,1.83.97,3.28.73-3.64,8.03-7.9,14.23-12.77,18.61-4.62,4.14-9.98,7.3-16.06,9.49-6.08,2.19-12.89,3.89-20.43,5.11-7.29,1.22-15.44,2.68-24.44,4.38-2.19.49-4.02.37-5.48-.36-1.46-.49-3.16-.73-5.11-.73-5.6,1.22-12.28,2.31-20.07,3.28-7.78.97-15.69,1.34-23.72,1.09-8.02-.24-15.68-1.34-22.98-3.28-7.29-1.7-13.26-4.86-17.88-9.49-1.95-1.7-3.28-3.65-4.01-5.84-.49-2.43-2.07-4.26-4.75-5.47-.24-3.16-.73-6.69-1.46-10.58-.73-3.89-1.46-7.91-2.19-12.04-.72-4.38-1.33-8.64-1.82-12.77-.24-4.14,0-7.91.73-11.31.73-3.65,2.19-6.93,4.37-9.85,2.44-2.92,3.28-6.08,2.55-9.49,1.22-.24,1.95-.85,2.19-1.82.24-1.22,1.21-1.7,2.92-1.46,1.46-4.38,3.04-8.51,4.74-12.4,1.7-3.89,3.41-7.66,5.11-11.31,1.95-3.65,3.77-7.3,5.47-10.95,1.95-3.89,3.77-8.15,5.48-12.77-3.41-3.16-5.96-6.57-7.67-10.22-1.46-3.89-2.55-7.66-3.28-11.31-.72-3.89-1.34-7.78-1.82-11.68-.49-4.13-1.34-8.27-2.55-12.4,2.43-3.65,5.35-6.57,8.76-8.76,3.65-2.43,7.54-4.38,11.68-5.84,4.13-1.46,8.63-2.68,13.5-3.65,4.86-.97,9.97-2.07,15.33-3.28,9.73-3.16,18.36-5.59,25.9-7.3,7.78-1.7,15.33-3.04,22.62-4.01,7.54-1.22,15.33-2.31,23.35-3.28,8.03-.97,17.15-2.43,27.37-4.38,2.19,2.19,4.26,3.28,6.2,3.28.97-2.19,2.06-2.8,3.28-1.82,1.46.73,2.06,0,1.82-2.19,2.44,4.14,5.47,7.66,9.12,10.58,3.89,2.68,8.15,4.99,12.77,6.93ZM1464.2,530.87c-2.68,9.73-5.11,17.15-7.3,22.26-1.95,4.86-4.98,9.97-9.12,15.32-3.16-.49-5.35-.12-6.56,1.09-1.22,1.22-2.56,2.31-4.02,3.28-2.19.49-3.77.49-4.74,0s-1.83-1.1-2.56-1.82c-.72-.49-1.7-1.09-2.92-1.82-.97-.49-2.55-.73-4.74-.73-.48-1.95-1.1-3.77-1.82-5.47-.49-1.7-2.07-2.31-4.75-1.82.49-1.95.61-3.53.37-4.74-.24-1.46-.61-2.68-1.09-3.65-.25-1.22-.49-2.31-.73-3.28-.24-1.22-.12-2.68.37-4.38-1.22,0-2.19-.85-2.92-2.55-.73-1.7-1.58-3.41-2.55-5.11.72-4.38,1.46-8.51,2.19-12.41s1.58-7.54,2.55-10.95c1.21-3.41,2.19-6.81,2.92-10.22s.37-6.93-1.1-10.58c.97.73,1.7.61,2.19-.37.48-1.22.85-2.68,1.09-4.38.24-1.95.37-3.77.37-5.47,0-1.95-.12-3.53-.37-4.74,2.44-6.32,4.38-12.77,5.84-19.34,1.7-6.81,3.16-13.5,4.38-20.07,1.46-6.57,2.92-13.01,4.37-19.34,1.46-6.32,3.41-12.16,5.84-17.51,2.68-.49,5.6-.12,8.76,1.09,3.41.97,5.47,2.31,6.2,4.01,6.33-4.86,11.92-10.7,16.78-17.51,4.86-7.05,9.85-13.86,14.96-20.43,5.11-6.57,10.7-12.4,16.78-17.51,6.33-5.11,14.24-8.15,23.72-9.12,4.86,3.65,10.22,7.42,16.06,11.31,6.08,3.65,11.07,8.51,14.96,14.59,1.95.97,3.53,2.07,4.74,3.28,1.46.97,3.16,2.07,5.11,3.28v4.38c2.92,2.68,5.23,5.84,6.94,9.49,1.95,3.41,3.65,7.17,5.11,11.31,1.46,3.89,2.92,7.91,4.38,12.04,1.46,3.89,3.16,7.66,5.11,11.31-.49,1.22-.73,2.31-.73,3.28,0,.73.12,1.58.37,2.55.49.97.85,1.95,1.1,2.92.24.97.24,2.31,0,4.01-.73,10.7-4.26,19.34-10.59,25.9-6.08,6.57-13.5,12.04-22.25,16.42-8.76,4.14-18.12,7.66-28.09,10.58-9.98,2.92-18.98,6.08-27,9.49,0,.97.37,1.46,1.09,1.46.97,0,1.34.61,1.1,1.82,5.84,3.65,10.46,6.57,13.86,8.76,3.41,2.19,6.57,4.01,9.49,5.47,3.16,1.46,6.44,2.8,9.85,4.01,3.64.97,8.63,2.19,14.96,3.65,6.32,1.46,11.19,2.68,14.59,3.65,3.64.73,6.93,1.46,9.85,2.19l8.76,1.46c3.16.24,7.54.61,13.14,1.09,2.19,2.19,4.01,4.86,5.47,8.03,1.7,2.92,2.79,5.96,3.28,9.12.48,2.92.61,5.84.37,8.76-.25,2.68-1.1,4.86-2.56,6.57.25.73.73,1.09,1.46,1.09.97-.24,1.95-.24,2.92,0-1.46.97-2.68,2.19-3.65,3.65s-1.95,2.92-2.92,4.38c-.97,1.46-2.06,2.68-3.28,3.65-1.21,1.22-2.92,1.95-5.11,2.19-7.54,2.92-17.02,3.04-28.46.37-11.43-2.43-25.9-7.05-43.42-13.86-8.76-3.41-15.93-6.32-21.53-8.76-5.35-2.68-10.1-5.23-14.23-7.66-3.89-2.68-7.54-5.47-10.94-8.39-3.17-2.92-7.06-6.45-11.68-10.58ZM1516.37,405.73c-2.68,3.89-5.72,7.42-9.12,10.58-3.16,3.16-6.33,6.45-9.49,9.85-2.92,3.16-5.6,6.81-8.02,10.95-2.44,3.89-4.13,8.51-5.11,13.86,8.51-.97,17.39-3.28,26.64-6.93,9.24-3.89,18-7.54,26.27-10.95-.97-7.54-3.65-13.62-8.03-18.24-4.13-4.62-8.51-7.66-13.13-9.12ZM1684.94,543.28c1.21,7.3.73,13.01-1.46,17.15-1.95,4.14-4.86,7.18-8.76,9.12-3.65,2.19-7.91,3.41-12.77,3.65-4.86.24-9.49,0-13.86-.73-2.44-3.41-4.62-7.66-6.57-12.77-1.95-5.11-3.77-10.34-5.47-15.69-1.7-5.59-3.28-11.07-4.75-16.42-1.21-5.35-2.3-10.09-3.28-14.23,1.21-2.92,1.95-6.2,2.19-9.85.48-3.89.73-7.78.73-11.68.24-3.89.36-7.78.36-11.68.25-4.13.61-8.03,1.1-11.68,1.7-10.22,4.13-19.95,7.3-29.19,3.4-9.24,6.08-18.85,8.02-28.82.48-2.19.24-4.26-.73-6.2-.73-1.95-.85-3.77-.37-5.47.24-.97.97-1.58,2.19-1.82,1.22-.49,1.95-1.34,2.19-2.55.72-2.68.85-4.86.37-6.57-.25-1.7.24-3.77,1.46-6.2,1.21-1.95,2.68-4.74,4.38-8.39,1.95-3.89,2.67-7.91,2.19-12.04,2.19-1.46,4.26-3.16,6.2-5.11,1.95-1.95,3.89-3.65,5.84-5.11,2.19-1.7,4.5-3.16,6.93-4.38,2.68-1.22,5.84-1.82,9.49-1.82,1.95,2.43,3.16,5.11,3.65,8.03.73,2.92,1.34,5.84,1.82,8.76.73,2.92,1.7,5.72,2.92,8.39,1.21,2.43,3.28,4.38,6.2,5.84v7.3c0,2.92.12,5.84.37,8.76.24,2.68.73,5.23,1.46,7.66.97,2.19,2.44,3.65,4.38,4.38-4.38,11.68-8.52,23.23-12.41,34.66-3.65,11.43-6.69,22.99-9.12,34.66-2.43,11.43-4.01,22.99-4.74,34.66-.49,11.68.37,23.47,2.55,35.39Z"/>
</svg>