<?xml version="1.0" encoding="UTF-8"?>
<svg id="Layer_4" data-name="Layer 4" xmlns="http://www.w3.org/2000/svg" viewBox="0 0 1920 1080">
  <defs>
    <style>
      .cls-1 {
        fill: #610000;
      }

      .cls-2 {
        fill: #eb23e1;
      }
    </style>
  </defs>
  <path class="cls-1" d="M78.74,572.52c-.98-.98-1.84-2.09-2.58-3.32-.73-1.48-1.35-3.32-1.84-5.53-3.45-4.18-6.15-8.98-8.12-14.39-1.97-5.41-3.32-10.95-4.06-16.6-.74-5.9-.86-11.81-.37-17.71.5-5.9,1.35-11.44,2.58-16.6.74-2.46,1.35-5.04,1.85-7.75,1.23-4.67,2.46-9.22,3.68-13.65,1.24-4.67,3.08-8.49,5.54-11.44-.98-2.71-.87-5.66.36-8.85,1.24-3.2,2.46-6.15,3.69-8.85.5-.74.87-1.35,1.11-1.84.24-.74.49-1.35.74-1.84,2.95-8.61,5.78-16.85,8.49-24.72,2.95-8.12,5.78-15.86,8.49-23.24,4.92-13.53,9.59-26.81,14.02-39.85,4.68-13.04,8.85-26.93,12.55-41.69,1.97-1.48,3.69-2.46,5.16-2.95.5-.25,1.11-.49,1.84-.74.74-.25,1.61-.37,2.59-.37,5.16,2.71,11.18,5.29,18.07,7.75,7.14,2.21,13.16,3.32,18.08,3.32l6.27,5.53c3.2,3.69,5.9,7.62,8.12,11.81,2.46,3.94,3.2,9.1,2.22,15.5-1.48,2.21-2.71,3.57-3.69,4.06-1.48,5.66-3.08,10.7-4.79,15.13-1.72,4.18-3.45,8.24-5.17,12.18-1.97,4.43-3.81,8.85-5.53,13.28s-3.2,9.84-4.42,16.23c-1.48,1.72-2.46,3.2-2.95,4.43-.25,1.23-.61,2.46-1.11,3.69-.49,1.48-1.11,3.07-1.84,4.8-.74,1.48-1.85,2.83-3.32,4.06-.98,7.62-2.46,13.9-4.43,18.82-1.97,4.67-3.94,9.35-5.9,14.02-3.44,8.61-6.64,17.22-9.59,25.83-2.95,8.36-4.68,17.96-5.17,28.78,2.95-.74,5.66-1.11,8.12-1.11,3.2,0,6.27.49,9.22,1.48,8.85-4.43,18.45-7.13,28.78-8.12,10.57-.98,21.03-1.6,31.36-1.84,8.61,0,16.6-.37,23.98-1.11,2.46,1.72,4.06,2.71,4.79,2.95h5.9c.74,0,1.72.12,2.95.37,3.45,3.44,6.77,5.9,9.96,7.38,3.2,1.23,6.64,2.46,10.33,3.69,3.2,1.23,6.27,2.58,9.22,4.06,3.2,1.23,6.27,2.95,9.22,5.17l3.32,18.82c1.97,2.71,2.83,4.55,2.58,5.53,0,1.97-.49,3.69-1.47,5.17l.73,4.8c-4.67.98-7.75,2.09-9.22,3.32-1.48.98-3.08,2.34-4.8,4.06-2.71.25-5.29.37-7.75.37-4.92,0-9.96.74-15.13,2.21-7.38-2.71-15.5-4.06-24.35-4.06-3.44,0-7.01.12-10.7.37-3.45.25-6.89.61-10.33,1.11-3.68.49-7.38.98-11.07,1.48-3.69.25-7.38.37-11.07.37-2.95.49-5.05.86-6.27,1.11-1.23.25-2.46.62-3.69,1.11-8.36,2.71-17.47,5.41-27.3,8.12-9.59,2.71-19.31,4.06-29.15,4.06-14.51,0-26.19-3.69-35.05-11.07-.98-2.21-1.72-3.69-2.21-4.43-.5-.74-.98-1.6-1.48-2.58ZM348.45,526.77l-4.06.74-1.1,7.01-3.32,2.95c-.5.49-1.11.98-1.84,1.48-.5.25-1.11.62-1.85,1.11-.74,2.21-1.6,4.43-2.58,6.64-.98,1.97-1.97,3.94-2.95,5.9-1.72,3.44-3.2,6.76-4.42,9.96-1.24,2.95-2.09,5.9-2.59,8.85l-1.84,4.06c-1.23,1.48-2.71,2.71-4.42,3.69-1.72.74-3.32,1.48-4.8,2.21-.74.49-1.6.98-2.58,1.48-.98.25-1.72.49-2.21.74l-1.48,4.06-4.42.74c-2.95.49-4.92.86-5.9,1.11-1.23.25-2.58.37-4.06.37l-3.69-.37c-2.21-2.21-3.94-3.94-5.16-5.16-1.47-1.48-3.2-2.83-5.16-4.06-1.48-2.95-2.21-5.16-2.21-6.64-.25-1.48-.37-2.95-.37-4.43-.24-1.23-.37-2.34-.37-3.32s-.24-1.72-.74-2.21l-4.05-4.43,4.42-3.32,1.48-6.27c6.64-12.54,13.52-24.6,20.66-36.16,7.13-11.56,14.51-23.37,22.13-35.42,2.71-3.94,5.16-7.87,7.38-11.81,2.46-3.94,5.04-7.99,7.75-12.18-.5-1.72-.13-3.57,1.11-5.53,3.44-4.18,6.27-7.87,8.49-11.07,2.21-3.44,4.31-6.89,6.27-10.33,2.7-4.18,5.41-8.24,8.12-12.18,2.71-4.18,5.9-8.24,9.59-12.17l2.58-2.95,3.68.37c.74-.49,1.61-.86,2.59-1.11.98-.25,2.21-.37,3.68-.37l5.17.74c7.38-3.2,14.02-7.75,19.92-13.65,6.15-5.9,12.55-12.91,19.18-21.03l4.43-5.16,4.42,2.95c.98.74,2.46,1.48,4.43,2.21,2.21.49,4.55,1.11,7.01,1.84,4.19,1.23,8.24,2.46,12.18,3.69,3.94,1.23,6.89,2.95,8.85,5.16.74,4.18,1.11,7.26,1.11,9.22.24,1.72.37,3.57.37,5.53.24,4.18.37,8.49.37,12.91,0,4.18-.25,8.73-.74,13.65.49,4.18.86,8.36,1.11,12.54.24,4.18.49,8.36.73,12.54.5,5.66.87,11.31,1.11,16.97.49,5.41,1.35,10.58,2.58,15.5,1.23,0,2.58.12,4.06.37h3.32c.98-.25,2.46-.61,4.42-1.11,1.97-3.94,3.94-7.87,5.9-11.81,1.97-4.18,3.81-8.73,5.53-13.65-3.44-3.2-6.02-6.64-7.75-10.33-1.48-3.69-2.58-7.5-3.32-11.44s-1.35-7.87-1.84-11.81c-.5-3.94-1.35-7.99-2.59-12.18,2.46-3.94,5.42-7.01,8.85-9.22,3.69-2.46,7.63-4.43,11.81-5.9,4.19-1.48,8.74-2.71,13.66-3.69s10.08-2.09,15.5-3.32c9.84-3.2,18.69-5.66,26.56-7.38,7.87-1.72,15.49-3.07,22.87-4.06,7.63-1.23,15.37-2.34,23.24-3.32,8.12-.98,17.34-2.34,27.67-4.06,2.7,1.97,4.79,2.95,6.27,2.95.98-2.21,2.09-2.83,3.32-1.84,1.48.74,2.09,0,1.85-2.21,2.7,4.18,5.9,7.75,9.59,10.7,3.69,2.71,8,5.04,12.92,7.01.24,1.72.24,3.08,0,4.06,0,.74-.13,1.48-.37,2.21,0,.74-.12,1.6-.37,2.58,0,.74.25,1.97.74,3.69-4.92,8.36-10.82,14.14-17.71,17.34-6.89,2.95-14.26,5.17-22.13,6.64-7.63,1.23-15.62,2.58-23.98,4.06-8.37,1.48-16.48,4.67-24.35,9.59-1.72-.74-3.32-.98-4.79-.74-1.24.25-2.59.61-4.06,1.11-1.48.25-3.08.61-4.79,1.11-1.72.25-3.82.12-6.27-.37-1.48,1.48-3.45,2.58-5.9,3.32-2.22.49-4.43,1.11-6.64,1.84,1.23,2.46,1.72,4.8,1.47,7.01,0,2.21.25,4.06.74,5.53,8.61.98,18.08.98,28.41,0,10.57-.98,21.02-1.6,31.36-1.84.24.98.13,1.72-.37,2.21-.49.25-.74.86-.74,1.84,1.97,1.23,3.69,2.83,5.17,4.8,1.72,1.72,3.44,3.44,5.16,5.16,1.72,1.72,3.44,3.2,5.16,4.43,1.97,1.23,4.18,1.72,6.64,1.48,2.46,3.94,2.95,8.49,1.47,13.65-4.18,2.71-8.24,5.41-12.18,8.12-3.94,2.71-8.12,5.16-12.54,7.38-4.19,2.21-8.74,4.06-13.66,5.53-4.67,1.48-9.84,2.09-15.49,1.84h-2.95c-.74,0-1.61-.37-2.59-1.11-1.97,1.23-4.79,1.6-8.49,1.11-3.44-.49-6.15-.12-8.12,1.11-2.71-1.23-6.03-1.84-9.96-1.84-3.68,0-7.01-.49-9.96-1.48-3.94,5.41-7.5,11.07-10.7,16.97-3.2,5.9-6.02,12.17-8.49,18.82,8.37,1.23,15.37,1.72,21.03,1.48,5.66-.25,10.82-.74,15.5-1.48,4.92-.74,9.96-1.35,15.13-1.84,5.41-.49,11.92-.61,19.55-.37,5.16-2.71,11.07-4.43,17.71-5.16,6.89-.98,13.16-2.46,18.82-4.43,1.97.74,3.57,1.97,4.79,3.69,1.48,1.72,2.83,3.44,4.06,5.17,1.47,1.72,2.95,3.2,4.42,4.43,1.72,1.23,3.69,1.72,5.9,1.48.98.98,1.6,2.21,1.85,3.69.49,1.23.86,2.46,1.1,3.69.25,1.23.61,2.34,1.11,3.32.74.74,1.84.98,3.32.74-3.94,8.12-8.37,14.39-13.29,18.82-4.67,4.18-10.08,7.38-16.23,9.59-6.15,2.21-13.03,3.94-20.66,5.16-7.38.98-15.62,2.34-24.72,4.06-2.21.49-4.05.49-5.53,0-1.47-.49-3.08-.74-4.79-.74-5.9.98-12.79,1.97-20.66,2.95-7.87.98-15.87,1.35-23.98,1.11-8.12,0-15.87-.98-23.24-2.95-7.38-1.72-13.4-4.92-18.08-9.59-1.48-1.23-2.58-2.71-3.32-4.43-.5-1.97-1.35-3.69-2.58-5.17-5.16,6.15-11.81,11.44-19.92,15.87-8.12,4.43-15.99,6.76-23.61,7.01-2.95-.74-5.05-1.6-6.27-2.58-.98-.74-1.97-1.48-2.95-2.21-.74-.49-1.48-.86-2.22-1.11-.49-.49-.98-.86-1.47-1.11l-3.69-2.21,1.85-4.43c.98-1.97,1.1-3.57.36-4.8-.49-1.23-1.72-2.83-3.68-4.8-.5-.49-1.11-1.11-1.85-1.84-.73-.74-1.35-1.48-1.84-2.21l-5.16-7.01,10.33-2.95c6.4-1.48,10.82-3.57,13.29-6.27,2.46-2.71,3.94-7.26,4.42-13.65-4.92-.98-9.1-1.11-12.55-.37-3.44.74-6.89,1.48-10.33,2.21-4.68,1.23-9.35,2.34-14.02,3.32-4.43.74-9.47,1.11-15.13,1.11h-5.16c-1.72,0-3.57-.25-5.54-.74l-3.68-.37c-.25-2.71-.61-4.3-1.11-4.8-.24-.49-.61-.98-1.11-1.48-.98-1.23-1.97-2.83-2.95-4.8s-.86-4.55.37-7.75c-.98-1.97-1.47-4.3-1.47-7.01-.98,1.72-1.97,3.32-2.95,4.8-.74,1.48-1.35,2.95-1.85,4.43l-1.84,4.06ZM380.18,479.17c-3.68,4.18-7.13,8.36-10.33,12.54h4.05c1.48-.25,2.95-.37,4.43-.37,7.13-.49,13.77-.98,19.92-1.48,6.4-.74,13.29-1.84,20.66-3.32-.49-7.63-1.23-15.37-2.21-23.24-.74-8.12-1.72-16.11-2.95-23.98l-2.58,3.69c-5.42,5.17-10.95,10.95-16.61,17.34-5.41,6.4-10.2,12.42-14.39,18.08v.74ZM653.58,420.14c1.72-5.17,4.42-9.59,8.12-13.28,3.94-3.69,8.12-6.76,12.55-9.22,4.67-2.71,9.47-4.92,14.39-6.64,4.92-1.72,9.59-3.2,14.02-4.43,9.84-4.18,20.29-8.12,31.36-11.81,11.32-3.94,22.76-7.38,34.32-10.33,11.81-2.95,23.86-4.8,36.16-5.53,12.29-.98,25.21.49,38.73,4.43.74,2.46,1.85,4.8,3.32,7.01,1.48,2.21,2.95,4.43,4.43,6.64,1.72,2.21,3.2,4.43,4.42,6.64,1.24,1.97,1.97,4.06,2.22,6.27,2.46,2.21,4.43,4.67,5.93,7.38,1.42,2.46,1.73,5.78.71,9.96-2.44,1.97-4.92,3.81-7.38,5.53-2.21,1.48-4.68,2.83-7.38,4.06-9.1-2.21-18.32-2.95-27.67-2.21-9.35.74-17.71,1.35-25.09,1.84-2.21-2.21-4.92-3.32-8.12-3.32-2.95,0-6.15.49-9.59,1.48-3.2.98-6.52,1.97-9.96,2.95-3.2.98-6.27,1.23-9.22.74-2.46,1.97-5.53,3.32-9.22,4.06-3.45.49-7.26.98-11.44,1.48-.25,1.23,0,2.09.73,2.58.74.25.87.98.37,2.21,1.48,1.72,3.32,2.95,5.53,3.69,2.46.74,4.92,1.48,7.38,2.21,2.71.74,5.05,1.72,7.01,2.95,1.97.98,3.31,2.71,4.05,5.17,3.69,0,6.89.86,9.59,2.58,2.71,1.72,4.92,3.81,6.64,6.27,1.72,2.46,2.95,5.16,3.68,8.12.98,2.71,1.48,5.17,1.48,7.38.74,1.97,1.6,2.83,2.58,2.58.98-.25,2.09.25,3.32,1.48.74,3.2,2.58,6.52,5.53,9.96,2.95,3.2,5.29,6.76,7.01,10.7.49,6.15.86,11.68,1.1,16.6.25,4.67-.61,9.47-2.58,14.39-3.69,9.1-8.85,17.22-15.5,24.35-6.39,7.13-13.77,13.53-22.13,19.19-8.12,5.41-16.85,10.08-26.19,14.02-9.35,3.94-18.45,7.26-27.3,9.96-.98-.25-1.97-.25-2.95,0-.98.25-1.23-.37-.74-1.84-1.97,1.72-4.18,2.83-6.64,3.32-2.22.49-4.68.61-7.38.37-2.71,0-5.53-.12-8.49-.37-2.71-.25-5.29-.12-7.75.37-1.72-1.72-3.32-3.44-4.8-5.16-1.23-1.48-2.21-3.44-2.95-5.9-1.23,0-1.84-.61-1.84-1.84.24-1.23-.13-1.84-1.11-1.84,1.48-2.46,2.09-3.81,1.85-4.06,0-.49-.37-.86-1.11-1.11-.5-.25-.98-.49-1.48-.74-.49-.49-.61-1.11-.36-1.84.98-1.97,1.35-4.18,1.1-6.64-.24-2.71-.49-5.41-.74-8.12-.24-2.71-.12-5.29.37-7.75.74-2.46,2.58-4.43,5.53-5.9,8.37.98,16.24.74,23.61-.74,7.63-1.72,14.76-4.06,21.4-7.01,6.64-2.95,12.92-6.15,18.82-9.59,6.15-3.44,12.18-6.52,18.08-9.22.73-2.21,1.72-4.06,2.95-5.53,1.47-1.48,2.95-2.83,4.42-4.06,1.48-1.23,2.83-2.58,4.06-4.06s2.09-3.32,2.58-5.53c.24-1.72-.24-2.71-1.48-2.95-.98-.49-1.47-1.48-1.47-2.95l-4.06-1.11c-4.67-2.71-9.96-4.92-15.86-6.64-5.9-1.97-10.95-4.06-15.13-6.27-2.71,1.48-5.29,1.84-7.75,1.11-2.21-.74-5.16-1.48-8.85-2.21-8.36-.49-16.47-1.35-24.35-2.58-7.63-1.23-15.01-3.44-22.14-6.64-.49-1.23-1.1-2.34-1.84-3.32s-2.09-1.23-4.06-.74c-1.47-1.97-2.95-3.81-4.42-5.53-1.48-1.97-2.83-4.06-4.06-6.27.5-2.95.86-5.41,1.11-7.38.24-2.21-.5-4.3-2.22-6.27.98-3.2,1.72-5.78,2.22-7.75.49-1.97.49-4.55,0-7.75ZM1218.05,579.53c-2.44,1.23-4.8,2.34-7.01,3.32-1.97.98-4.25,1.48-7.01,1.48-9.6-7.13-14.64-19.55-15.11-37.26-.24-17.71,3.54-40.22,11.41-67.52,1.26-.74,1.89-2.21,1.89-4.43l-3.31-3.69c-1.02,0-1.97.12-2.99.37-.71.25-1.34,1.11-1.81,2.58-6.45,4.67-13.46,9.59-21.09,14.76-7.56,4.92-15.59,9.59-23.93,14.02-8.11,4.18-16.53,7.62-25.11,10.33-8.34,2.71-16.61,4.06-24.71,4.06-20.7,0-36.13-10.45-46.52-31.36l-2.91-5.53-2.99,4.8c-.71.98-1.81,3.07-3.31,6.27-1.5,2.95-2.91,6.4-4.41,10.33-1.5,3.94-2.83,7.99-4.09,12.18-.94,3.94-1.34,7.38-1.1,10.33-2.2,2.21-4.57,4.8-7.01,7.75-2.44,2.95-4.25,6.27-5.51,9.96-.47,1.97-.24,3.81.71,5.53-.47,2.21-1.57,3.94-3.31,5.17-.94,1.23-2.05,2.46-3.31,3.69-1.02.98-1.89,2.09-2.6,3.32-.47,1.23-.87,2.46-1.1,3.69,0,1.23-.16,2.46-.39,3.69,0,1.72-.24,3.32-.71,4.8-4.17,8.61-7.48,14.14-10,16.6-2.44,2.71-5.75,4.06-9.92,4.06-1.97,0-5.2-.37-9.6-1.11-3.23-3.44-6.14-8.12-8.89-14.02-2.44-6.15-4.41-12.67-5.9-19.55-1.18-6.89-1.81-13.77-1.81-20.66.24-7.13,1.5-13.28,3.7-18.45,0-.25.94-2.71,2.91-7.38,1.97-4.67,4.49-10.7,7.4-18.08,3.23-7.38,6.77-15.5,10.71-24.35,3.94-9.1,7.87-17.83,11.81-26.2,3.94-8.61,7.63-16.48,11.1-23.61,3.7-7.13,6.77-12.54,9.21-16.23,1.97-2.95,3.7-5.66,5.2-8.12,1.65-2.71,3.31-5.29,4.72-7.75,4.49-7.62,8.66-13.9,12.59-18.82,4.17-5.17,10.23-9.22,18.1-12.18,5.35,2.21,9.29,4.8,11.81,7.75l.71,4.06c.94,2.46,2.44,3.69,4.41,3.69,2.75.74,4.96,1.48,6.69,2.21,1.97.49,4.01.98,6.22,1.48,1.73,1.97,3.31,4.3,4.8,7.01,1.97,2.95,3.86,5.9,5.51,8.85,1.97,2.71,3.46,5.53,4.49,8.49,1.18,2.71,1.81,5.53,1.81,8.49.24,2.95-.24,6.03-1.5,9.22l.39,3.69c1.26,2.21,1.5,5.29.71,9.22-.24,1.72-.32,3.57-.32,5.53,0,1.72.24,3.69.71,5.9,4.41,3.44,8.34,5.17,11.81,5.17,3.94,0,7.48-.86,10.7-2.58,3.46-1.97,6.61-3.94,9.6-5.9,1.97-1.48,3.94-2.71,5.9-3.69,1.97-1.23,3.94-1.97,5.9-2.21,4.41-4.18,8.34-7.87,11.81-11.07,3.7-3.2,7.48-6.4,11.41-9.59,7.4-5.9,14.56-12.3,21.41-19.19,6.93-6.89,12.44-15.5,16.61-25.83,2.44-1.48,5.04-2.21,7.79-2.21s5.51.62,8.42,1.84c2.99,1.23,5.82,2.46,8.5,3.69.79.49,1.34.86,1.89,1.11.71.25,1.34.49,1.81.74,0,2.46,1.02,4.55,2.99,6.27.94.74,1.57,1.23,1.81,1.48.24.25.63.49,1.1.74,3.7,1.97,6.06,3.94,7.01,5.9,1.73,5.66,4.8,9.96,9.21,12.91-.47,2.46-.47,4.8,0,7.01.79,1.97,1.65,4.06,2.6,6.27.24.74.47,1.48.71,2.21.31.74.63,1.6,1.18,2.58l-7.08-.74,1.18,7.01c.47,3.44.08,7.26-1.18,11.44-.94,4.18-2.2,7.5-3.62,9.96.24,6.4.32,11.44.32,15.13.24,3.44.16,6.76-.32,9.96-.55,2.95-1.26,5.78-2.28,8.49-.71,2.71-1.81,5.66-3.31,8.85,1.02,15.74-.87,30.13-5.51,43.17-4.41,12.79-9.13,24.84-14.01,36.16-.47,1.23-1.1,2.46-1.89,3.69-.47,1.23-.94,2.46-1.42,3.69-2.2.74-4.17,1.6-5.9,2.58-1.73.74-3.62,1.6-5.59,2.58ZM1476.38,378.44c.24,1.72.24,3.07,0,4.06,0,.74-.16,1.48-.39,2.21v2.58c0,.74.24,1.97.71,3.69-5.12,8.36-11.18,14.14-18.03,17.34-6.69,2.95-13.93,5.16-21.8,6.64-7.87,1.23-15.98,2.58-24.32,4.06-8.11,1.48-16.29,4.67-24.4,9.59-3.15-1.23-6.14-1.23-8.82,0-2.44,1.23-6.14,1.6-11.1,1.11-1.5,1.48-3.31,2.58-5.51,3.32-2.2.49-4.41,1.11-6.69,1.84,1.02,2.21,1.42,4.55,1.18,7.01,0,2.21.32,4.06,1.1,5.53,8.58.74,18.03.62,28.41-.37,10.55-.98,20.86-1.6,30.93-1.84.24,1.23.16,2.09-.32,2.58-.55.25-.63.86-.39,1.84,1.73,1.23,3.46,2.83,5.19,4.8,1.65,1.72,3.38,3.44,5.12,5.16,1.73,1.72,3.46,3.2,5.2,4.43,1.97.98,4.17,1.35,6.61,1.11,1.02,1.97,1.57,4.18,1.89,6.64.47,2.21.24,4.55-.79,7.01-3.94,2.71-7.87,5.53-11.81,8.49-3.94,2.71-8.11,5.17-12.51,7.38-4.17,2.21-8.74,4.06-13.7,5.53-4.64,1.23-9.92,1.72-15.82,1.48h-2.99c-.47,0-1.18-.37-2.2-1.11-1.97,1.23-4.8,1.6-8.5,1.11-3.38-.49-6.14-.12-8.11,1.11-2.68-1.23-5.98-1.72-9.92-1.48-3.7,0-7.01-.49-10-1.48-3.94,5.16-7.48,10.7-10.7,16.6-3.15,5.9-5.98,12.17-8.5,18.82,8.42,1.23,15.27,1.72,20.7,1.48,5.67-.25,10.94-.61,15.82-1.11,4.96-.74,10-1.35,15.19-1.84,5.12-.74,11.65-.98,19.52-.74,4.96-2.71,10.7-4.43,17.32-5.16,6.93-.98,13.22-2.46,18.81-4.43,1.97.74,3.7,2.09,5.19,4.06,1.5,1.72,2.83,3.44,4.09,5.17,1.42,1.48,2.91,2.83,4.41,4.06,1.5,1.23,3.31,1.72,5.51,1.48,1.02.98,1.65,2.21,1.89,3.69.47,1.23.87,2.46,1.1,3.69.24,1.23.63,2.34,1.1,3.32.71.74,1.81.98,3.31.74-3.7,8.12-8.03,14.39-12.91,18.82-4.64,4.18-10.08,7.38-16.21,9.59-6.14,2.21-13.07,3.94-20.7,5.16-7.4,1.23-15.58,2.71-24.72,4.43-2.2.49-4.01.37-5.51-.37-1.5-.49-3.23-.74-5.2-.74-5.67,1.23-12.44,2.34-20.31,3.32-7.87.98-15.82,1.35-23.93,1.11-8.11-.25-15.9-1.35-23.3-3.32-7.32-1.72-13.38-4.92-18.03-9.59-1.97-1.72-3.38-3.69-4.09-5.9-.47-2.46-2.05-4.3-4.8-5.53-.24-3.2-.71-6.76-1.5-10.7-.71-3.94-1.42-7.99-2.2-12.18-.71-4.43-1.34-8.73-1.81-12.91-.24-4.18,0-7.99.71-11.44.79-3.69,2.2-7.01,4.41-9.96,2.52-2.95,3.38-6.15,2.6-9.59,1.26-.25,1.97-.86,2.2-1.84.31-1.23,1.26-1.72,2.99-1.48,1.5-4.43,3.07-8.61,4.8-12.54s3.46-7.75,5.12-11.44c1.97-3.69,3.86-7.38,5.59-11.07,1.97-3.94,3.78-8.24,5.51-12.91-3.46-3.2-5.98-6.64-7.71-10.33-1.5-3.94-2.6-7.75-3.38-11.44-.71-3.94-1.34-7.87-1.81-11.81-.47-4.18-1.34-8.36-2.6-12.54,2.44-3.69,5.43-6.64,8.89-8.85,3.7-2.46,7.63-4.43,11.81-5.9,4.17-1.48,8.74-2.71,13.62-3.69,4.96-.98,10.08-2.09,15.51-3.32,9.84-3.2,18.58-5.66,26.21-7.38,7.87-1.72,15.51-3.08,22.83-4.06,7.63-1.23,15.51-2.34,23.61-3.32,8.19-.98,17.39-2.46,27.71-4.43,2.2,2.21,4.33,3.32,6.3,3.32.94-2.21,2.05-2.83,3.31-1.84,1.5.74,2.05,0,1.81-2.21,2.52,4.18,5.59,7.75,9.29,10.7,3.94,2.71,8.19,5.04,12.91,7.01ZM1523.22,547.8c-2.68,9.84-5.2,17.34-7.4,22.51-1.97,4.92-5.04,10.09-9.21,15.5-3.23-.49-5.43-.12-6.61,1.11-1.26,1.23-2.6,2.34-4.09,3.32-2.2.49-3.78.49-4.8,0-.94-.49-1.81-1.11-2.6-1.84-.71-.49-1.73-1.11-2.91-1.84-1.02-.49-2.6-.74-4.8-.74-.47-1.97-1.1-3.81-1.89-5.53-.47-1.72-2.05-2.34-4.8-1.84.55-1.97.63-3.57.39-4.8-.24-1.48-.63-2.71-1.1-3.69-.24-1.23-.47-2.34-.71-3.32-.24-1.23-.16-2.71.32-4.43-1.18,0-2.2-.86-2.91-2.58-.71-1.72-1.57-3.44-2.6-5.16.71-4.43,1.5-8.61,2.2-12.54.79-3.94,1.65-7.62,2.6-11.07,1.26-3.44,2.2-6.89,2.99-10.33.71-3.44.32-7.01-1.18-10.7,1.02.74,1.73.61,2.28-.37.47-1.23.87-2.71,1.1-4.43.24-1.97.32-3.81.32-5.53,0-1.97-.08-3.57-.32-4.8,2.44-6.4,4.41-12.91,5.9-19.55,1.73-6.89,3.15-13.65,4.41-20.29,1.5-6.64,2.91-13.16,4.41-19.55,1.5-6.4,3.46-12.3,5.9-17.71,2.75-.49,5.67-.12,8.89,1.11,3.38.98,5.51,2.34,6.22,4.06,6.45-4.92,12.04-10.82,17-17.71,4.88-7.13,10-14.02,15.11-20.66,5.2-6.64,10.86-12.54,17-17.71,6.38-5.16,14.4-8.24,23.93-9.22,4.96,3.69,10.39,7.5,16.29,11.44,6.14,3.69,11.18,8.61,15.11,14.76,1.97.98,3.54,2.09,4.8,3.32,1.5.98,3.15,2.09,5.12,3.32v4.43c2.99,2.71,5.35,5.9,7.08,9.59,1.97,3.44,3.62,7.26,5.12,11.44,1.5,3.94,2.99,7.99,4.41,12.18,1.5,3.94,3.23,7.75,5.19,11.44-.47,1.23-.71,2.34-.71,3.32,0,.74.08,1.6.32,2.58.55.98.87,1.97,1.1,2.95.31.98.31,2.34,0,4.06-.71,10.82-4.25,19.55-10.7,26.2-6.14,6.64-13.62,12.18-22.43,16.6-8.89,4.18-18.34,7.75-28.41,10.7-10.15,2.95-19.2,6.15-27.31,9.59,0,.98.32,1.48,1.1,1.48.94,0,1.34.62,1.1,1.84,5.9,3.69,10.55,6.64,14.01,8.85,3.46,2.21,6.61,4.06,9.6,5.53,3.15,1.48,6.53,2.83,9.92,4.06,3.7.98,8.74,2.21,15.19,3.69,6.38,1.48,11.26,2.71,14.72,3.69,3.7.74,7.01,1.48,10,2.21,2.91.49,5.9.98,8.82,1.48,3.23.25,7.63.61,13.3,1.11,2.2,2.21,4.01,4.92,5.51,8.12,1.73,2.95,2.83,6.03,3.31,9.22.55,2.95.63,5.9.39,8.85-.24,2.71-1.1,4.92-2.6,6.64.24.74.79,1.11,1.5,1.11,1.02-.25,1.97-.25,2.99,0-1.5.98-2.75,2.21-3.7,3.69-1.02,1.48-1.97,2.95-2.99,4.43-.94,1.48-2.05,2.71-3.31,3.69-1.26,1.23-2.99,1.97-5.2,2.21-7.63,2.95-17.16,3.07-28.73.37-11.57-2.46-26.21-7.13-43.92-14.02-8.89-3.44-16.14-6.4-21.8-8.85-5.35-2.71-10.15-5.29-14.33-7.75-3.94-2.71-7.63-5.53-11.1-8.49-3.23-2.95-7.16-6.52-11.81-10.7ZM1575.95,421.24c-2.68,3.94-5.75,7.5-9.21,10.7-3.23,3.2-6.38,6.52-9.6,9.96-2.91,3.2-5.67,6.89-8.11,11.07-2.44,3.94-4.17,8.61-5.19,14.02,8.66-.98,17.63-3.32,27-7.01,9.29-3.94,18.18-7.63,26.53-11.07-.94-7.62-3.7-13.77-8.11-18.45-4.17-4.67-8.58-7.75-13.3-9.22ZM1874.11,378.44c.24,1.72.24,3.07,0,4.06,0,.74-.16,1.48-.39,2.21v2.58c0,.74.24,1.97.71,3.69-5.12,8.36-11.18,14.14-18.03,17.34-6.69,2.95-13.93,5.16-21.8,6.64-7.87,1.23-15.98,2.58-24.32,4.06-8.11,1.48-16.21,4.67-24.4,9.59-3.15-1.23-6.14-1.23-8.82,0-2.44,1.23-6.14,1.6-11.1,1.11-1.42,1.48-3.31,2.58-5.51,3.32-2.2.49-4.41,1.11-6.61,1.84.94,2.21,1.34,4.55,1.1,7.01,0,2.21.32,4.06,1.1,5.53,8.58.74,18.03.62,28.41-.37,10.55-.98,20.86-1.6,30.93-1.84.31,1.23.16,2.09-.32,2.58-.55.25-.63.86-.39,1.84,1.73,1.23,3.46,2.83,5.2,4.8,1.73,1.72,3.38,3.44,5.12,5.16,1.73,1.72,3.46,3.2,5.2,4.43,1.97.98,4.17,1.35,6.61,1.11,1.02,1.97,1.65,4.18,1.89,6.64.47,2.21.24,4.55-.79,7.01-3.94,2.71-7.87,5.53-11.81,8.49-3.94,2.71-8.11,5.17-12.51,7.38-4.17,2.21-8.74,4.06-13.62,5.53-4.72,1.23-10,1.72-15.9,1.48h-2.99c-.47,0-1.18-.37-2.2-1.11-1.97,1.23-4.8,1.6-8.42,1.11-3.46-.49-6.22-.12-8.19,1.11-2.68-1.23-5.98-1.72-9.92-1.48-3.7,0-7.01-.49-10-1.48-3.94,5.16-7.48,10.7-10.7,16.6-3.15,5.9-5.98,12.17-8.42,18.82,8.34,1.23,15.19,1.72,20.62,1.48,5.67-.25,10.94-.61,15.9-1.11,4.88-.74,9.92-1.35,15.11-1.84,5.12-.74,11.65-.98,19.52-.74,4.96-2.71,10.7-4.43,17.39-5.16,6.85-.98,13.15-2.46,18.81-4.43,1.97.74,3.62,2.09,5.12,4.06,1.5,1.72,2.83,3.44,4.09,5.17,1.5,1.48,2.91,2.83,4.41,4.06,1.5,1.23,3.31,1.72,5.51,1.48,1.02.98,1.65,2.21,1.89,3.69.47,1.23.87,2.46,1.1,3.69.24,1.23.63,2.34,1.1,3.32.71.74,1.81.98,3.31.74-3.7,8.12-7.95,14.39-12.91,18.82-4.64,4.18-10.07,7.38-16.21,9.59-6.14,2.21-13.07,3.94-20.7,5.16-7.32,1.23-15.58,2.71-24.72,4.43-2.2.49-4.01.37-5.51-.37-1.5-.49-3.23-.74-5.2-.74-5.67,1.23-12.44,2.34-20.31,3.32-7.87.98-15.82,1.35-23.93,1.11-8.11-.25-15.9-1.35-23.3-3.32-7.32-1.72-13.38-4.92-18.03-9.59-1.97-1.72-3.31-3.69-4.09-5.9-.47-2.46-2.05-4.3-4.8-5.53-.24-3.2-.71-6.76-1.42-10.7-.79-3.94-1.5-7.99-2.28-12.18-.71-4.43-1.34-8.73-1.81-12.91-.24-4.18,0-7.99.71-11.44.79-3.69,2.2-7.01,4.49-9.96,2.44-2.95,3.31-6.15,2.52-9.59,1.26-.25,1.97-.86,2.28-1.84.24-1.23,1.18-1.72,2.91-1.48,1.5-4.43,3.07-8.61,4.8-12.54,1.73-3.94,3.46-7.75,5.19-11.44,1.97-3.69,3.78-7.38,5.51-11.07,1.97-3.94,3.78-8.24,5.51-12.91-3.46-3.2-5.98-6.64-7.71-10.33-1.5-3.94-2.6-7.75-3.31-11.44-.79-3.94-1.42-7.87-1.89-11.81-.47-4.18-1.34-8.36-2.6-12.54,2.52-3.69,5.43-6.64,8.89-8.85,3.7-2.46,7.63-4.43,11.81-5.9,4.17-1.48,8.74-2.71,13.62-3.69,4.96-.98,10.08-2.09,15.51-3.32,9.84-3.2,18.58-5.66,26.21-7.38,7.87-1.72,15.51-3.08,22.9-4.06,7.56-1.23,15.43-2.34,23.61-3.32,8.11-.98,17.32-2.46,27.63-4.43,2.2,2.21,4.33,3.32,6.3,3.32.94-2.21,2.05-2.83,3.31-1.84,1.5.74,2.13,0,1.81-2.21,2.52,4.18,5.59,7.75,9.29,10.7,3.94,2.71,8.19,5.04,12.91,7.01Z"/>
  <path class="cls-2" d="M104.25,562.29c-.98-.98-1.84-2.09-2.58-3.32-.73-1.48-1.35-3.32-1.84-5.53-3.45-4.18-6.15-8.98-8.12-14.39-1.97-5.41-3.32-10.95-4.06-16.6-.74-5.9-.86-11.81-.37-17.71.5-5.9,1.35-11.44,2.58-16.6.74-2.46,1.35-5.04,1.85-7.75,1.23-4.67,2.46-9.22,3.68-13.65,1.24-4.67,3.08-8.49,5.54-11.44-.98-2.71-.87-5.66.36-8.85,1.24-3.2,2.46-6.15,3.69-8.85.5-.74.87-1.35,1.11-1.84.24-.74.49-1.35.74-1.84,2.95-8.61,5.78-16.85,8.49-24.72,2.95-8.12,5.78-15.86,8.49-23.24,4.92-13.53,9.59-26.81,14.02-39.85,4.68-13.04,8.85-26.93,12.55-41.69,1.97-1.48,3.69-2.46,5.16-2.95.5-.25,1.11-.49,1.84-.74.74-.25,1.61-.37,2.59-.37,5.16,2.71,11.18,5.29,18.07,7.75,7.14,2.21,13.16,3.32,18.08,3.32l6.27,5.53c3.2,3.69,5.9,7.62,8.12,11.81,2.46,3.94,3.2,9.1,2.22,15.5-1.48,2.21-2.71,3.57-3.69,4.06-1.48,5.66-3.08,10.7-4.79,15.13-1.72,4.18-3.45,8.24-5.17,12.18-1.97,4.43-3.81,8.85-5.53,13.28-1.72,4.43-3.2,9.84-4.42,16.23-1.48,1.72-2.46,3.2-2.95,4.43-.25,1.23-.61,2.46-1.11,3.69-.49,1.48-1.11,3.07-1.84,4.8-.74,1.48-1.85,2.83-3.32,4.06-.98,7.62-2.46,13.9-4.43,18.82-1.97,4.67-3.94,9.35-5.9,14.02-3.44,8.61-6.64,17.22-9.59,25.83-2.95,8.36-4.68,17.96-5.17,28.78,2.95-.74,5.66-1.11,8.12-1.11,3.2,0,6.27.49,9.22,1.48,8.85-4.43,18.45-7.13,28.78-8.12,10.57-.98,21.03-1.6,31.36-1.84,8.61,0,16.6-.37,23.98-1.11,2.46,1.72,4.06,2.71,4.79,2.95h5.9c.74,0,1.72.12,2.95.37,3.45,3.44,6.77,5.9,9.96,7.38,3.2,1.23,6.64,2.46,10.33,3.69,3.2,1.23,6.27,2.58,9.22,4.06,3.2,1.23,6.27,2.95,9.22,5.17l3.32,18.82c1.97,2.71,2.83,4.55,2.58,5.53,0,1.97-.49,3.69-1.47,5.17l.73,4.8c-4.67.98-7.75,2.09-9.22,3.32-1.48.98-3.08,2.34-4.8,4.06-2.71.25-5.29.37-7.75.37-4.92,0-9.96.74-15.13,2.21-7.38-2.71-15.5-4.06-24.35-4.06-3.44,0-7.01.12-10.7.37-3.45.25-6.89.61-10.33,1.11-3.68.49-7.38.98-11.07,1.48-3.69.25-7.38.37-11.07.37-2.95.49-5.05.86-6.27,1.11-1.23.25-2.46.62-3.69,1.11-8.36,2.71-17.47,5.41-27.3,8.12-9.59,2.71-19.31,4.06-29.15,4.06-14.51,0-26.19-3.69-35.05-11.07-.98-2.21-1.72-3.69-2.21-4.43-.5-.74-.98-1.6-1.48-2.58ZM373.95,516.54l-4.06.74-1.1,7.01-3.32,2.95c-.5.49-1.11.98-1.84,1.48-.5.25-1.11.62-1.85,1.11-.74,2.21-1.6,4.43-2.58,6.64-.98,1.97-1.97,3.94-2.95,5.9-1.72,3.44-3.2,6.76-4.42,9.96-1.24,2.95-2.09,5.9-2.59,8.85l-1.84,4.06c-1.23,1.48-2.71,2.71-4.42,3.69-1.72.74-3.32,1.48-4.8,2.21-.74.49-1.6.98-2.58,1.48-.98.25-1.72.49-2.21.74l-1.48,4.06-4.42.74c-2.95.49-4.92.86-5.9,1.11-1.23.25-2.58.37-4.06.37l-3.69-.37c-2.21-2.21-3.94-3.94-5.16-5.16-1.47-1.48-3.2-2.83-5.16-4.06-1.48-2.95-2.21-5.16-2.21-6.64-.25-1.48-.37-2.95-.37-4.43-.24-1.23-.37-2.34-.37-3.32s-.24-1.72-.74-2.21l-4.05-4.43,4.42-3.32,1.48-6.27c6.64-12.54,13.52-24.6,20.66-36.16,7.13-11.56,14.51-23.37,22.13-35.42,2.71-3.94,5.16-7.87,7.38-11.81,2.46-3.94,5.04-7.99,7.75-12.18-.5-1.72-.13-3.57,1.11-5.53,3.44-4.18,6.27-7.87,8.49-11.07,2.21-3.44,4.31-6.89,6.27-10.33,2.7-4.18,5.41-8.24,8.12-12.18,2.71-4.18,5.9-8.24,9.59-12.17l2.58-2.95,3.68.37c.74-.49,1.61-.86,2.59-1.11.98-.25,2.21-.37,3.68-.37l5.17.74c7.38-3.2,14.02-7.75,19.92-13.65,6.15-5.9,12.55-12.91,19.18-21.03l4.43-5.16,4.42,2.95c.98.74,2.46,1.48,4.43,2.21,2.21.49,4.55,1.11,7.01,1.84,4.19,1.23,8.24,2.46,12.18,3.69,3.94,1.23,6.89,2.95,8.85,5.16.74,4.18,1.11,7.26,1.11,9.22.24,1.72.37,3.57.37,5.53.24,4.18.37,8.49.37,12.91,0,4.18-.25,8.73-.74,13.65.49,4.18.86,8.36,1.11,12.54.24,4.18.49,8.36.73,12.54.5,5.66.87,11.31,1.11,16.97.49,5.41,1.35,10.58,2.58,15.5,1.23,0,2.58.12,4.06.37h3.32c.98-.25,2.46-.61,4.42-1.11,1.97-3.94,3.94-7.87,5.9-11.81,1.97-4.18,3.81-8.73,5.53-13.65-3.44-3.2-6.02-6.64-7.75-10.33-1.48-3.69-2.58-7.5-3.32-11.44s-1.35-7.87-1.84-11.81c-.5-3.94-1.35-7.99-2.59-12.18,2.46-3.94,5.42-7.01,8.85-9.22,3.69-2.46,7.63-4.43,11.81-5.9,4.19-1.48,8.74-2.71,13.66-3.69s10.08-2.09,15.5-3.32c9.84-3.2,18.69-5.66,26.56-7.38,7.87-1.72,15.49-3.07,22.87-4.06,7.63-1.23,15.37-2.34,23.24-3.32,8.12-.98,17.34-2.34,27.67-4.06,2.7,1.97,4.79,2.95,6.27,2.95.98-2.21,2.09-2.83,3.32-1.84,1.48.74,2.09,0,1.85-2.21,2.7,4.18,5.9,7.75,9.59,10.7,3.69,2.71,8,5.04,12.92,7.01.24,1.72.24,3.08,0,4.06,0,.74-.13,1.48-.37,2.21,0,.74-.12,1.6-.37,2.58,0,.74.25,1.97.74,3.69-4.92,8.36-10.82,14.14-17.71,17.34-6.89,2.95-14.26,5.17-22.13,6.64-7.63,1.23-15.62,2.58-23.98,4.06-8.37,1.48-16.48,4.67-24.35,9.59-1.72-.74-3.32-.98-4.79-.74-1.24.25-2.59.61-4.06,1.11-1.48.25-3.08.61-4.79,1.11-1.72.25-3.82.12-6.27-.37-1.48,1.48-3.45,2.58-5.9,3.32-2.22.49-4.43,1.11-6.64,1.84,1.23,2.46,1.72,4.8,1.47,7.01,0,2.21.25,4.06.74,5.53,8.61.98,18.08.98,28.41,0,10.57-.98,21.02-1.6,31.36-1.84.24.98.13,1.72-.37,2.21-.49.25-.74.86-.74,1.84,1.97,1.23,3.69,2.83,5.17,4.8,1.72,1.72,3.44,3.44,5.16,5.16,1.72,1.72,3.44,3.2,5.16,4.43,1.97,1.23,4.18,1.72,6.64,1.48,2.46,3.94,2.95,8.49,1.47,13.65-4.18,2.71-8.24,5.41-12.18,8.12-3.94,2.71-8.12,5.16-12.54,7.38-4.19,2.21-8.74,4.06-13.66,5.53-4.67,1.48-9.84,2.09-15.49,1.84h-2.95c-.74,0-1.61-.37-2.59-1.11-1.97,1.23-4.79,1.6-8.49,1.11-3.44-.49-6.15-.12-8.12,1.11-2.71-1.23-6.03-1.84-9.96-1.84-3.68,0-7.01-.49-9.96-1.48-3.94,5.41-7.5,11.07-10.7,16.97-3.2,5.9-6.02,12.17-8.49,18.82,8.37,1.23,15.37,1.72,21.03,1.48,5.66-.25,10.82-.74,15.5-1.48,4.92-.74,9.96-1.35,15.13-1.84,5.41-.49,11.92-.61,19.55-.37,5.16-2.71,11.07-4.43,17.71-5.16,6.89-.98,13.16-2.46,18.82-4.43,1.97.74,3.57,1.97,4.79,3.69,1.48,1.72,2.83,3.44,4.06,5.17,1.47,1.72,2.95,3.2,4.42,4.43,1.72,1.23,3.69,1.72,5.9,1.48.98.98,1.6,2.21,1.85,3.69.49,1.23.86,2.46,1.1,3.69.25,1.23.61,2.34,1.11,3.32.74.74,1.84.98,3.32.74-3.94,8.12-8.37,14.39-13.29,18.82-4.67,4.18-10.08,7.38-16.23,9.59-6.15,2.21-13.03,3.94-20.66,5.16-7.38.98-15.62,2.34-24.72,4.06-2.21.49-4.05.49-5.53,0-1.47-.49-3.08-.74-4.79-.74-5.9.98-12.79,1.97-20.66,2.95-7.87.98-15.87,1.35-23.98,1.11-8.12,0-15.87-.98-23.24-2.95-7.38-1.72-13.4-4.92-18.08-9.59-1.48-1.23-2.58-2.71-3.32-4.43-.5-1.97-1.35-3.69-2.58-5.17-5.16,6.15-11.81,11.44-19.92,15.87-8.12,4.43-15.99,6.76-23.61,7.01-2.95-.74-5.05-1.6-6.27-2.58-.98-.74-1.97-1.48-2.95-2.21-.74-.49-1.48-.86-2.22-1.11-.49-.49-.98-.86-1.47-1.11l-3.69-2.21,1.85-4.43c.98-1.97,1.1-3.57.36-4.8-.49-1.23-1.72-2.83-3.68-4.8-.5-.49-1.11-1.11-1.85-1.84-.73-.74-1.35-1.48-1.84-2.21l-5.16-7.01,10.33-2.95c6.4-1.48,10.82-3.57,13.29-6.27,2.46-2.71,3.94-7.26,4.42-13.65-4.92-.98-9.1-1.11-12.55-.37-3.44.74-6.89,1.48-10.33,2.21-4.68,1.23-9.35,2.34-14.02,3.32-4.43.74-9.47,1.11-15.13,1.11h-5.16c-1.72,0-3.57-.25-5.54-.74l-3.68-.37c-.25-2.71-.61-4.3-1.11-4.8-.24-.49-.61-.98-1.11-1.48-.98-1.23-1.97-2.83-2.95-4.8s-.86-4.55.37-7.75c-.98-1.97-1.47-4.3-1.47-7.01-.98,1.72-1.97,3.32-2.95,4.8-.74,1.48-1.35,2.95-1.85,4.43l-1.84,4.06ZM405.68,468.95c-3.68,4.18-7.13,8.36-10.33,12.54h4.05c1.48-.25,2.95-.37,4.43-.37,7.13-.49,13.77-.98,19.92-1.48,6.4-.74,13.29-1.84,20.66-3.32-.49-7.63-1.23-15.37-2.21-23.24-.74-8.12-1.72-16.11-2.95-23.98l-2.58,3.69c-5.42,5.17-10.95,10.95-16.61,17.34-5.41,6.4-10.2,12.42-14.39,18.08v.74ZM679.08,409.92c1.72-5.17,4.42-9.59,8.12-13.28,3.94-3.69,8.12-6.76,12.55-9.22,4.67-2.71,9.47-4.92,14.39-6.64,4.92-1.72,9.59-3.2,14.02-4.43,9.84-4.18,20.29-8.12,31.36-11.81,11.32-3.94,22.76-7.38,34.32-10.33,11.81-2.95,23.86-4.8,36.16-5.53,12.29-.98,25.21.49,38.73,4.43.74,2.46,1.85,4.8,3.32,7.01,1.48,2.21,2.95,4.43,4.43,6.64,1.72,2.21,3.2,4.43,4.42,6.64,1.24,1.97,1.97,4.06,2.22,6.27,2.46,2.21,4.43,4.67,5.93,7.38,1.42,2.46,1.73,5.78.71,9.96-2.44,1.97-4.92,3.81-7.38,5.53-2.21,1.48-4.68,2.83-7.38,4.06-9.1-2.21-18.32-2.95-27.67-2.21-9.35.74-17.71,1.35-25.09,1.84-2.21-2.21-4.92-3.32-8.12-3.32-2.95,0-6.15.49-9.59,1.48-3.2.98-6.52,1.97-9.96,2.95-3.2.98-6.27,1.23-9.22.74-2.46,1.97-5.53,3.32-9.22,4.06-3.45.49-7.26.98-11.44,1.48-.25,1.23,0,2.09.73,2.58.74.25.87.98.37,2.21,1.48,1.72,3.32,2.95,5.53,3.69,2.46.74,4.92,1.48,7.38,2.21,2.71.74,5.05,1.72,7.01,2.95,1.97.98,3.31,2.71,4.05,5.17,3.69,0,6.89.86,9.59,2.58,2.71,1.72,4.92,3.81,6.64,6.27,1.72,2.46,2.95,5.16,3.68,8.12.98,2.71,1.48,5.17,1.48,7.38.74,1.97,1.6,2.83,2.58,2.58.98-.25,2.09.25,3.32,1.48.74,3.2,2.58,6.52,5.53,9.96,2.95,3.2,5.29,6.76,7.01,10.7.49,6.15.86,11.68,1.1,16.6.25,4.67-.61,9.47-2.58,14.39-3.69,9.1-8.85,17.22-15.5,24.35-6.39,7.13-13.77,13.53-22.13,19.19-8.12,5.41-16.85,10.08-26.19,14.02-9.35,3.94-18.45,7.26-27.3,9.96-.98-.25-1.97-.25-2.95,0-.98.25-1.23-.37-.74-1.84-1.97,1.72-4.18,2.83-6.64,3.32-2.22.49-4.68.61-7.38.37-2.71,0-5.53-.12-8.49-.37-2.71-.25-5.29-.12-7.75.37-1.72-1.72-3.32-3.44-4.8-5.16-1.23-1.48-2.21-3.44-2.95-5.9-1.23,0-1.84-.61-1.84-1.84.24-1.23-.13-1.84-1.11-1.84,1.48-2.46,2.09-3.81,1.85-4.06,0-.49-.37-.86-1.11-1.11-.5-.25-.98-.49-1.48-.74-.49-.49-.61-1.11-.36-1.84.98-1.97,1.35-4.18,1.1-6.64-.24-2.71-.49-5.41-.74-8.12-.24-2.71-.12-5.29.37-7.75.74-2.46,2.58-4.43,5.53-5.9,8.37.98,16.24.74,23.61-.74,7.63-1.72,14.76-4.06,21.4-7.01s12.92-6.15,18.82-9.59c6.15-3.44,12.18-6.52,18.08-9.22.73-2.21,1.72-4.06,2.95-5.53,1.47-1.48,2.95-2.83,4.42-4.06,1.48-1.23,2.83-2.58,4.06-4.06s2.09-3.32,2.58-5.53c.24-1.72-.24-2.71-1.48-2.95-.98-.49-1.47-1.48-1.47-2.95l-4.06-1.11c-4.67-2.71-9.96-4.92-15.86-6.64-5.9-1.97-10.95-4.06-15.13-6.27-2.71,1.48-5.29,1.84-7.75,1.11-2.21-.74-5.16-1.48-8.85-2.21-8.36-.49-16.47-1.35-24.35-2.58-7.63-1.23-15.01-3.44-22.14-6.64-.49-1.23-1.1-2.34-1.84-3.32s-2.09-1.23-4.06-.74c-1.47-1.97-2.95-3.81-4.42-5.53-1.48-1.97-2.83-4.06-4.06-6.27.5-2.95.86-5.41,1.11-7.38.24-2.21-.5-4.3-2.22-6.27.98-3.2,1.72-5.78,2.22-7.75.49-1.97.49-4.55,0-7.75ZM1243.56,569.3c-2.44,1.23-4.8,2.34-7.01,3.32-1.97.98-4.25,1.48-7.01,1.48-9.6-7.13-14.64-19.55-15.11-37.26-.24-17.71,3.54-40.22,11.41-67.52,1.26-.74,1.89-2.21,1.89-4.43l-3.31-3.69c-1.02,0-1.97.12-2.99.37-.71.25-1.34,1.11-1.81,2.58-6.45,4.67-13.46,9.59-21.09,14.76-7.56,4.92-15.59,9.59-23.93,14.02-8.11,4.18-16.53,7.62-25.11,10.33-8.34,2.71-16.61,4.06-24.71,4.06-20.7,0-36.13-10.45-46.52-31.36l-2.91-5.53-2.99,4.8c-.71.98-1.81,3.07-3.31,6.27-1.5,2.95-2.91,6.4-4.41,10.33-1.5,3.94-2.83,7.99-4.09,12.18-.94,3.94-1.34,7.38-1.1,10.33-2.2,2.21-4.57,4.8-7.01,7.75-2.44,2.95-4.25,6.27-5.51,9.96-.47,1.97-.24,3.81.71,5.53-.47,2.21-1.57,3.94-3.31,5.17-.94,1.23-2.05,2.46-3.31,3.69-1.02.98-1.89,2.09-2.6,3.32-.47,1.23-.87,2.46-1.1,3.69,0,1.23-.16,2.46-.39,3.69,0,1.72-.24,3.32-.71,4.8-4.17,8.61-7.48,14.14-10,16.6-2.44,2.71-5.75,4.06-9.92,4.06-1.97,0-5.2-.37-9.6-1.11-3.23-3.44-6.14-8.12-8.89-14.02-2.44-6.15-4.41-12.67-5.9-19.55-1.18-6.89-1.81-13.77-1.81-20.66.24-7.13,1.5-13.28,3.7-18.45,0-.25.94-2.71,2.91-7.38,1.97-4.67,4.49-10.7,7.4-18.08,3.23-7.38,6.77-15.5,10.71-24.35,3.94-9.1,7.87-17.83,11.81-26.2,3.94-8.61,7.63-16.48,11.1-23.61,3.7-7.13,6.77-12.54,9.21-16.23,1.97-2.95,3.7-5.66,5.2-8.12,1.65-2.71,3.31-5.29,4.72-7.75,4.49-7.62,8.66-13.9,12.59-18.82,4.17-5.17,10.23-9.22,18.1-12.18,5.35,2.21,9.29,4.8,11.81,7.75l.71,4.06c.94,2.46,2.44,3.69,4.41,3.69,2.75.74,4.96,1.48,6.69,2.21,1.97.49,4.01.98,6.22,1.48,1.73,1.97,3.31,4.3,4.8,7.01,1.97,2.95,3.86,5.9,5.51,8.85,1.97,2.71,3.46,5.53,4.49,8.49,1.18,2.71,1.81,5.53,1.81,8.49.24,2.95-.24,6.03-1.5,9.22l.39,3.69c1.26,2.21,1.5,5.29.71,9.22-.24,1.72-.32,3.57-.32,5.53,0,1.72.24,3.69.71,5.9,4.41,3.44,8.34,5.17,11.81,5.17,3.94,0,7.48-.86,10.7-2.58,3.46-1.97,6.61-3.94,9.6-5.9,1.97-1.48,3.94-2.71,5.9-3.69,1.97-1.23,3.94-1.97,5.9-2.21,4.41-4.18,8.34-7.87,11.81-11.07,3.7-3.2,7.48-6.4,11.41-9.59,7.4-5.9,14.56-12.3,21.41-19.19,6.93-6.89,12.44-15.5,16.61-25.83,2.44-1.48,5.04-2.21,7.79-2.21s5.51.62,8.42,1.84c2.99,1.23,5.82,2.46,8.5,3.69.79.49,1.34.86,1.89,1.11.71.25,1.34.49,1.81.74,0,2.46,1.02,4.55,2.99,6.27.94.74,1.57,1.23,1.81,1.48.24.25.63.49,1.1.74,3.7,1.97,6.06,3.94,7.01,5.9,1.73,5.66,4.8,9.96,9.21,12.91-.47,2.46-.47,4.8,0,7.01.79,1.97,1.65,4.06,2.6,6.27.24.74.47,1.48.71,2.21.31.74.63,1.6,1.18,2.58l-7.08-.74,1.18,7.01c.47,3.44.08,7.26-1.18,11.44-.94,4.18-2.2,7.5-3.62,9.96.24,6.4.32,11.44.32,15.13.24,3.44.16,6.76-.32,9.96-.55,2.95-1.26,5.78-2.28,8.49-.71,2.71-1.81,5.66-3.31,8.85,1.02,15.74-.87,30.13-5.51,43.17-4.41,12.79-9.13,24.84-14.01,36.16-.47,1.23-1.1,2.46-1.89,3.69-.47,1.23-.94,2.46-1.42,3.69-2.2.74-4.17,1.6-5.9,2.58-1.73.74-3.62,1.6-5.59,2.58ZM1501.89,368.22c.24,1.72.24,3.07,0,4.06,0,.74-.16,1.48-.39,2.21v2.58c0,.74.24,1.97.71,3.69-5.12,8.36-11.18,14.14-18.03,17.34-6.69,2.95-13.93,5.16-21.8,6.64-7.87,1.23-15.98,2.58-24.32,4.06-8.11,1.48-16.29,4.67-24.4,9.59-3.15-1.23-6.14-1.23-8.82,0-2.44,1.23-6.14,1.6-11.1,1.11-1.5,1.48-3.31,2.58-5.51,3.32-2.2.49-4.41,1.11-6.69,1.84,1.02,2.21,1.42,4.55,1.18,7.01,0,2.21.32,4.06,1.1,5.53,8.58.74,18.03.62,28.41-.37,10.55-.98,20.86-1.6,30.93-1.84.24,1.23.16,2.09-.32,2.58-.55.25-.63.86-.39,1.84,1.73,1.23,3.46,2.83,5.19,4.8,1.65,1.72,3.38,3.44,5.12,5.16,1.73,1.72,3.46,3.2,5.2,4.43,1.97.98,4.17,1.35,6.61,1.11,1.02,1.97,1.57,4.18,1.89,6.64.47,2.21.24,4.55-.79,7.01-3.94,2.71-7.87,5.53-11.81,8.49-3.94,2.71-8.11,5.17-12.51,7.38-4.17,2.21-8.74,4.06-13.7,5.53-4.64,1.23-9.92,1.72-15.82,1.48h-2.99c-.47,0-1.18-.37-2.2-1.11-1.97,1.23-4.8,1.6-8.5,1.11-3.38-.49-6.14-.12-8.11,1.11-2.68-1.23-5.98-1.72-9.92-1.48-3.7,0-7.01-.49-10-1.48-3.94,5.16-7.48,10.7-10.7,16.6-3.15,5.9-5.98,12.17-8.5,18.82,8.42,1.23,15.27,1.72,20.7,1.48,5.67-.25,10.94-.61,15.82-1.11,4.96-.74,10-1.35,15.19-1.84,5.12-.74,11.65-.98,19.52-.74,4.96-2.71,10.7-4.43,17.32-5.16,6.93-.98,13.22-2.46,18.81-4.43,1.97.74,3.7,2.09,5.19,4.06,1.5,1.72,2.83,3.44,4.09,5.17,1.42,1.48,2.91,2.83,4.41,4.06,1.5,1.23,3.31,1.72,5.51,1.48,1.02.98,1.65,2.21,1.89,3.69.47,1.23.87,2.46,1.1,3.69.24,1.23.63,2.34,1.1,3.32.71.74,1.81.98,3.31.74-3.7,8.12-8.03,14.39-12.91,18.82-4.64,4.18-10.08,7.38-16.21,9.59-6.14,2.21-13.07,3.94-20.7,5.16-7.4,1.23-15.58,2.71-24.72,4.43-2.2.49-4.01.37-5.51-.37-1.5-.49-3.23-.74-5.2-.74-5.67,1.23-12.44,2.34-20.31,3.32-7.87.98-15.82,1.35-23.93,1.11-8.11-.25-15.9-1.35-23.3-3.32-7.32-1.72-13.38-4.92-18.03-9.59-1.97-1.72-3.38-3.69-4.09-5.9-.47-2.46-2.05-4.3-4.8-5.53-.24-3.2-.71-6.76-1.5-10.7-.71-3.94-1.42-7.99-2.2-12.18-.71-4.43-1.34-8.73-1.81-12.91-.24-4.18,0-7.99.71-11.44.79-3.69,2.2-7.01,4.41-9.96,2.52-2.95,3.38-6.15,2.6-9.59,1.26-.25,1.97-.86,2.2-1.84.31-1.23,1.26-1.72,2.99-1.48,1.5-4.43,3.07-8.61,4.8-12.54s3.46-7.75,5.12-11.44c1.97-3.69,3.86-7.38,5.59-11.07,1.97-3.94,3.78-8.24,5.51-12.91-3.46-3.2-5.98-6.64-7.71-10.33-1.5-3.94-2.6-7.75-3.38-11.44-.71-3.94-1.34-7.87-1.81-11.81-.47-4.18-1.34-8.36-2.6-12.54,2.44-3.69,5.43-6.64,8.89-8.85,3.7-2.46,7.63-4.43,11.81-5.9,4.17-1.48,8.74-2.71,13.62-3.69,4.96-.98,10.08-2.09,15.51-3.32,9.84-3.2,18.58-5.66,26.21-7.38,7.87-1.72,15.51-3.08,22.83-4.06,7.63-1.23,15.51-2.34,23.61-3.32,8.19-.98,17.39-2.46,27.71-4.43,2.2,2.21,4.33,3.32,6.3,3.32.94-2.21,2.05-2.83,3.31-1.84,1.5.74,2.05,0,1.81-2.21,2.52,4.18,5.59,7.75,9.29,10.7,3.94,2.71,8.19,5.04,12.91,7.01ZM1548.72,537.57c-2.68,9.84-5.2,17.34-7.4,22.51-1.97,4.92-5.04,10.09-9.21,15.5-3.23-.49-5.43-.12-6.61,1.11-1.26,1.23-2.6,2.34-4.09,3.32-2.2.49-3.78.49-4.8,0-.94-.49-1.81-1.11-2.6-1.84-.71-.49-1.73-1.11-2.91-1.84-1.02-.49-2.6-.74-4.8-.74-.47-1.97-1.1-3.81-1.89-5.53-.47-1.72-2.05-2.34-4.8-1.84.55-1.97.63-3.57.39-4.8-.24-1.48-.63-2.71-1.1-3.69-.24-1.23-.47-2.34-.71-3.32-.24-1.23-.16-2.71.32-4.43-1.18,0-2.2-.86-2.91-2.58-.71-1.72-1.57-3.44-2.6-5.16.71-4.43,1.5-8.61,2.2-12.54.79-3.94,1.65-7.62,2.6-11.07,1.26-3.44,2.2-6.89,2.99-10.33.71-3.44.32-7.01-1.18-10.7,1.02.74,1.73.61,2.28-.37.47-1.23.87-2.71,1.1-4.43.24-1.97.32-3.81.32-5.53,0-1.97-.08-3.57-.32-4.8,2.44-6.4,4.41-12.91,5.9-19.55,1.73-6.89,3.15-13.65,4.41-20.29,1.5-6.64,2.91-13.16,4.41-19.55,1.5-6.4,3.46-12.3,5.9-17.71,2.75-.49,5.67-.12,8.89,1.11,3.38.98,5.51,2.34,6.22,4.06,6.45-4.92,12.04-10.82,17-17.71,4.88-7.13,10-14.02,15.11-20.66,5.2-6.64,10.86-12.54,17-17.71,6.38-5.16,14.4-8.24,23.93-9.22,4.96,3.69,10.39,7.5,16.29,11.44,6.14,3.69,11.18,8.61,15.11,14.76,1.97.98,3.54,2.09,4.8,3.32,1.5.98,3.15,2.09,5.12,3.32v4.43c2.99,2.71,5.35,5.9,7.08,9.59,1.97,3.44,3.62,7.26,5.12,11.44,1.5,3.94,2.99,7.99,4.41,12.18,1.5,3.94,3.23,7.75,5.19,11.44-.47,1.23-.71,2.34-.71,3.32,0,.74.08,1.6.32,2.58.55.98.87,1.97,1.1,2.95.31.98.31,2.34,0,4.06-.71,10.82-4.25,19.55-10.7,26.2-6.14,6.64-13.62,12.18-22.43,16.6-8.89,4.18-18.34,7.75-28.41,10.7-10.15,2.95-19.2,6.15-27.31,9.59,0,.98.32,1.48,1.1,1.48.94,0,1.34.62,1.1,1.84,5.9,3.69,10.55,6.64,14.01,8.85,3.46,2.21,6.61,4.06,9.6,5.53,3.15,1.48,6.53,2.83,9.92,4.06,3.7.98,8.74,2.21,15.19,3.69,6.38,1.48,11.26,2.71,14.72,3.69,3.7.74,7.01,1.48,10,2.21,2.91.49,5.9.98,8.82,1.48,3.23.25,7.63.61,13.3,1.11,2.2,2.21,4.01,4.92,5.51,8.12,1.73,2.95,2.83,6.03,3.31,9.22.55,2.95.63,5.9.39,8.85-.24,2.71-1.1,4.92-2.6,6.64.24.74.79,1.11,1.5,1.11,1.02-.25,1.97-.25,2.99,0-1.5.98-2.75,2.21-3.7,3.69-1.02,1.48-1.97,2.95-2.99,4.43-.94,1.48-2.05,2.71-3.31,3.69-1.26,1.23-2.99,1.97-5.2,2.21-7.63,2.95-17.16,3.07-28.73.37-11.57-2.46-26.21-7.13-43.92-14.02-8.89-3.44-16.14-6.4-21.8-8.85-5.35-2.71-10.15-5.29-14.33-7.75-3.94-2.71-7.63-5.53-11.1-8.49-3.23-2.95-7.16-6.52-11.81-10.7ZM1601.45,411.02c-2.68,3.94-5.75,7.5-9.21,10.7-3.23,3.2-6.38,6.52-9.6,9.96-2.91,3.2-5.67,6.89-8.11,11.07-2.44,3.94-4.17,8.61-5.19,14.02,8.66-.98,17.63-3.32,27-7.01,9.29-3.94,18.18-7.63,26.53-11.07-.94-7.62-3.7-13.77-8.11-18.45-4.17-4.67-8.58-7.75-13.3-9.22ZM1899.61,368.22c.24,1.72.24,3.07,0,4.06,0,.74-.16,1.48-.39,2.21v2.58c0,.74.24,1.97.71,3.69-5.12,8.36-11.18,14.14-18.03,17.34-6.69,2.95-13.93,5.16-21.8,6.64-7.87,1.23-15.98,2.58-24.32,4.06-8.11,1.48-16.21,4.67-24.4,9.59-3.15-1.23-6.14-1.23-8.82,0-2.44,1.23-6.14,1.6-11.1,1.11-1.42,1.48-3.31,2.58-5.51,3.32-2.2.49-4.41,1.11-6.61,1.84.94,2.21,1.34,4.55,1.1,7.01,0,2.21.32,4.06,1.1,5.53,8.58.74,18.03.62,28.41-.37,10.55-.98,20.86-1.6,30.93-1.84.31,1.23.16,2.09-.32,2.58-.55.25-.63.86-.39,1.84,1.73,1.23,3.46,2.83,5.2,4.8,1.73,1.72,3.38,3.44,5.12,5.16,1.73,1.72,3.46,3.2,5.2,4.43,1.97.98,4.17,1.35,6.61,1.11,1.02,1.97,1.65,4.18,1.89,6.64.47,2.21.24,4.55-.79,7.01-3.94,2.71-7.87,5.53-11.81,8.49-3.94,2.71-8.11,5.17-12.51,7.38-4.17,2.21-8.74,4.06-13.62,5.53-4.72,1.23-10,1.72-15.9,1.48h-2.99c-.47,0-1.18-.37-2.2-1.11-1.97,1.23-4.8,1.6-8.42,1.11-3.46-.49-6.22-.12-8.19,1.11-2.68-1.23-5.98-1.72-9.92-1.48-3.7,0-7.01-.49-10-1.48-3.94,5.16-7.48,10.7-10.7,16.6-3.15,5.9-5.98,12.17-8.42,18.82,8.34,1.23,15.19,1.72,20.62,1.48,5.67-.25,10.94-.61,15.9-1.11,4.88-.74,9.92-1.35,15.11-1.84,5.12-.74,11.65-.98,19.52-.74,4.96-2.71,10.7-4.43,17.39-5.16,6.85-.98,13.15-2.46,18.81-4.43,1.97.74,3.62,2.09,5.12,4.06,1.5,1.72,2.83,3.44,4.09,5.17,1.5,1.48,2.91,2.83,4.41,4.06,1.5,1.23,3.31,1.72,5.51,1.48,1.02.98,1.65,2.21,1.89,3.69.47,1.23.87,2.46,1.1,3.69.24,1.23.63,2.34,1.1,3.32.71.74,1.81.98,3.31.74-3.7,8.12-7.95,14.39-12.91,18.82-4.64,4.18-10.07,7.38-16.21,9.59-6.14,2.21-13.07,3.94-20.7,5.16-7.32,1.23-15.58,2.71-24.72,4.43-2.2.49-4.01.37-5.51-.37-1.5-.49-3.23-.74-5.2-.74-5.67,1.23-12.44,2.34-20.31,3.32-7.87.98-15.82,1.35-23.93,1.11-8.11-.25-15.9-1.35-23.3-3.32-7.32-1.72-13.38-4.92-18.03-9.59-1.97-1.72-3.31-3.69-4.09-5.9-.47-2.46-2.05-4.3-4.8-5.53-.24-3.2-.71-6.76-1.42-10.7-.79-3.94-1.5-7.99-2.28-12.18-.71-4.43-1.34-8.73-1.81-12.91-.24-4.18,0-7.99.71-11.44.79-3.69,2.2-7.01,4.49-9.96,2.44-2.95,3.31-6.15,2.52-9.59,1.26-.25,1.97-.86,2.28-1.84.24-1.23,1.18-1.72,2.91-1.48,1.5-4.43,3.07-8.61,4.8-12.54,1.73-3.94,3.46-7.75,5.19-11.44,1.97-3.69,3.78-7.38,5.51-11.07,1.97-3.94,3.78-8.24,5.51-12.91-3.46-3.2-5.98-6.64-7.71-10.33-1.5-3.94-2.6-7.75-3.31-11.44-.79-3.94-1.42-7.87-1.89-11.81-.47-4.18-1.34-8.36-2.6-12.54,2.52-3.69,5.43-6.64,8.89-8.85,3.7-2.46,7.63-4.43,11.81-5.9,4.17-1.48,8.74-2.71,13.62-3.69,4.96-.98,10.08-2.09,15.51-3.32,9.84-3.2,18.58-5.66,26.21-7.38,7.87-1.72,15.51-3.08,22.9-4.06,7.56-1.23,15.43-2.34,23.61-3.32,8.11-.98,17.32-2.46,27.63-4.43,2.2,2.21,4.33,3.32,6.3,3.32.94-2.21,2.05-2.83,3.31-1.84,1.5.74,2.13,0,1.81-2.21,2.52,4.18,5.59,7.75,9.29,10.7,3.94,2.71,8.19,5.04,12.91,7.01Z"/>
</svg>