<?xml version="1.0" encoding="UTF-8"?>
<svg id="Layer_5" data-name="Layer 5" xmlns="http://www.w3.org/2000/svg" viewBox="0 0 1920 1080">
  <defs>
    <style>
      .cls-1 {
        fill: #610000;
      }

      .cls-2 {
        fill: #eb23e1;
      }
    </style>
  </defs>
  <path class="cls-1" d="M183.64,381.7c.42,1.67.73,3.23.94,4.69s.52,3.02.94,4.69c-.83,2.08-1.56,4.17-2.19,6.25-.63,1.88-1.25,3.75-1.88,5.63-.63,1.46-1.04,2.4-1.25,2.81-.21.42-.31.73-.31.94v.94c.21.21.31,1.04.31,2.5l-1.25,3.75c-1.04,1.46-2.29,2.61-3.75,3.44-1.46.83-2.92,1.56-4.38,2.19-.42.42-1.04.73-1.88.94-.83.42-1.46.83-1.88,1.25l-.94,3.75-4.07.63c-3.54.83-6.57,1.25-9.07,1.25h-3.75c-2.5-2.29-4.48-4.07-5.94-5.32-1.46-1.25-3.02-2.4-4.69-3.44-2.08-2.92-3.23-5-3.44-6.25-.21-1.46-.52-2.81-.94-4.07-.42-2.71-.94-4.48-1.56-5.32l-4.38-4.38,3.75-2.81-3.44-5.94c2.5-1.88,4.38-3.23,5.63-4.07s2.29-1.67,3.13-2.5c.83-1.04,1.77-2.29,2.81-3.75,1.04-1.46,2.71-3.86,5-7.19l2.81-4.07,4.07,2.19c.83.63,2.61,1.25,5.32,1.88,2.92.42,5.42.83,7.5,1.25,3.54,1.04,6.88,1.88,10.01,2.5,3.13.42,5.63,1.46,7.5,3.13l1.25,2.5ZM256.81,381.7c.42,1.67.73,3.23.94,4.69.21,1.46.52,3.02.94,4.69-.83,2.08-1.56,4.17-2.19,6.25-.63,1.88-1.25,3.75-1.88,5.63-.63,1.46-1.04,2.4-1.25,2.81-.21.42-.31.73-.31.94v.94c.21.21.31,1.04.31,2.5l-1.25,3.75c-1.04,1.46-2.29,2.61-3.75,3.44s-2.92,1.56-4.38,2.19c-.42.42-1.04.73-1.88.94-.83.42-1.46.83-1.88,1.25l-.94,3.75-4.06.63c-3.54.83-6.57,1.25-9.07,1.25h-3.75c-2.5-2.29-4.48-4.07-5.94-5.32-1.46-1.25-3.02-2.4-4.69-3.44-2.08-2.92-3.23-5-3.44-6.25-.21-1.46-.52-2.81-.94-4.07-.42-2.71-.94-4.48-1.56-5.32l-4.38-4.38,3.75-2.81-3.44-5.94c2.5-1.88,4.38-3.23,5.63-4.07s2.29-1.67,3.13-2.5c.83-1.04,1.77-2.29,2.81-3.75,1.04-1.46,2.71-3.86,5-7.19l2.81-4.07,4.07,2.19c.83.63,2.61,1.25,5.32,1.88,2.92.42,5.42.83,7.5,1.25,3.54,1.04,6.88,1.88,10.01,2.5,3.13.42,5.63,1.46,7.5,3.13l1.25,2.5ZM329.98,381.7c.42,1.67.73,3.23.94,4.69s.52,3.02.94,4.69c-.83,2.08-1.56,4.17-2.19,6.25-.63,1.88-1.25,3.75-1.88,5.63-.63,1.46-1.04,2.4-1.25,2.81-.21.42-.31.73-.31.94v.94c.21.21.31,1.04.31,2.5l-1.25,3.75c-1.04,1.46-2.29,2.61-3.75,3.44-1.46.83-2.92,1.56-4.38,2.19-.42.42-1.04.73-1.88.94-.83.42-1.46.83-1.88,1.25l-.94,3.75-4.07.63c-3.54.83-6.57,1.25-9.07,1.25h-3.75c-2.5-2.29-4.48-4.07-5.94-5.32-1.46-1.25-3.02-2.4-4.69-3.44-2.08-2.92-3.23-5-3.44-6.25-.21-1.46-.52-2.81-.94-4.07-.42-2.71-.94-4.48-1.56-5.32l-4.38-4.38,3.75-2.81-3.44-5.94c2.5-1.88,4.38-3.23,5.63-4.07s2.29-1.67,3.13-2.5c.83-1.04,1.77-2.29,2.81-3.75,1.04-1.46,2.71-3.86,5-7.19l2.81-4.07,4.07,2.19c.83.63,2.61,1.25,5.32,1.88,2.92.42,5.42.83,7.5,1.25,3.54,1.04,6.88,1.88,10.01,2.5,3.13.42,5.63,1.46,7.5,3.13l1.25,2.5ZM504.15,423.29c-2.08,0-5.32-.31-9.69-.94-3.34-3.54-6.36-8.34-9.07-14.38-2.5-6.25-4.48-12.82-5.94-19.7-1.25-7.09-1.87-14.07-1.87-20.95.21-7.09,1.46-13.34,3.75-18.76,0-.21.94-2.71,2.82-7.5,2.09-4.79,4.69-10.84,7.82-18.14,3.13-7.5,6.67-15.74,10.63-24.7,3.96-9.17,7.92-18.14,11.88-26.89,3.96-8.76,7.71-16.68,11.26-23.76,3.75-7.3,6.98-12.92,9.69-16.89,1.87-2.92,3.54-5.73,5-8.44,1.67-2.71,3.23-5.21,4.69-7.5,2.29-3.75,4.38-7.19,6.25-10.32,2.09-3.34,4.28-6.25,6.57-8.76,2.5-2.71,5.21-5,8.13-6.88,2.92-2.08,6.46-3.86,10.63-5.32,2.5,1.04,4.69,2.19,6.57,3.44,1.87,1.04,3.54,2.4,5,4.06l.93,4.38c.42,1.46,1.04,2.5,1.88,3.13,1.04.42,1.87.63,2.49.63,2.72.63,5,1.35,6.88,2.19,2.08.63,4.27,1.04,6.56,1.25.83,1.25,1.56,2.5,2.19,3.75.83,1.25,1.67,2.4,2.5,3.44,4.17,6.05,7.61,11.88,10.32,17.51,2.71,5.63,2.71,11.78,0,18.45l.31,3.44c1.04,1.46,1.56,2.81,1.56,4.06s-.21,3.02-.62,5.32c-.21,1.67-.42,3.54-.63,5.63,0,1.88.31,3.96.93,6.25l2.19,2.5c3.34,1.67,6.56,2.5,9.69,2.5,4.17,0,7.92-.94,11.25-2.81,3.34-1.88,6.46-3.75,9.39-5.63,2.29-1.67,4.38-3.02,6.25-4.07,2.09-1.04,4.06-1.77,5.94-2.19,4.38-4.17,8.34-7.82,11.88-10.94,3.75-3.34,7.61-6.67,11.57-10.01,7.5-6.05,14.8-12.51,21.89-19.39,7.09-7.09,12.72-15.84,16.89-26.27,2.29-1.46,4.9-2.19,7.82-2.19s5.84.63,8.75,1.88c2.92,1.04,5.84,2.29,8.76,3.75.62.42,1.14.73,1.56.94.63.21,1.25.52,1.87.94,0,2.29.94,4.38,2.82,6.25,1.04.83,1.77,1.36,2.19,1.56.42.21.83.42,1.25.63,1.67,1.04,3.02,1.98,4.06,2.81,1.25.83,2.19,1.98,2.82,3.44,1.87,5.63,5,10.01,9.38,13.13-.41,2.29-.31,4.59.31,6.88.63,2.08,1.35,4.17,2.19,6.25.42.83.73,1.67.94,2.5.21.63.52,1.46.94,2.5l-6.88-.63.94,6.88c.63,3.54.31,7.5-.94,11.88-1.04,4.38-2.29,7.82-3.75,10.32.41,6.25.63,11.26.63,15.01,0,3.54-.21,6.88-.63,10.01-.42,3.13-1.15,6.15-2.19,9.07-.83,2.71-1.98,5.63-3.44,8.76.83,15.84-1.04,30.33-5.63,43.46-4.38,13.13-9.17,25.43-14.38,36.9-.63,1.46-1.25,2.81-1.87,4.06-.63,1.25-1.15,2.5-1.57,3.75-2.29.63-4.38,1.36-6.25,2.19-1.87.83-3.65,1.77-5.32,2.81-2.29,1.46-4.59,2.71-6.88,3.75-2.29.83-4.69,1.25-7.19,1.25-10.01-7.3-15.22-19.91-15.64-37.84-.21-17.93,3.65-40.75,11.57-68.48,1.46-1.04,2.09-2.61,1.87-4.69v-3.44l-3.12-.31c-1.04,0-1.98.1-2.82.31-.83.21-1.46,1.15-1.87,2.81-6.67,4.8-13.97,9.8-21.89,15.01-7.71,5-15.74,9.69-24.08,14.07-8.34,4.17-16.88,7.71-25.64,10.63-8.55,2.71-16.88,4.07-25.02,4.07-20.85,0-36.58-10.63-47.22-31.9l-2.82-5.63-3.12,5c-.63,1.04-1.77,3.13-3.44,6.25-1.46,2.92-3.02,6.36-4.69,10.32-1.46,3.96-2.82,8.03-4.07,12.2-1.04,4.17-1.35,7.82-.93,10.94-2.5,2.29-5,4.9-7.5,7.82-2.29,2.92-3.96,6.25-5,10.01-.42,1.04-.52,2.08-.31,3.13.21.83.52,1.77.94,2.81-.21,1.46-.63,2.5-1.25,3.13-.63.63-1.35,1.25-2.19,1.88-1.04,1.04-2.09,2.19-3.13,3.44-1.04,1.04-1.98,2.29-2.82,3.75-.41,1.25-.73,2.61-.93,4.07-.21,1.25-.42,2.4-.63,3.44,0,2.29-.31,3.86-.94,4.69-2.08,4.38-3.96,8.03-5.63,10.94-1.45,2.71-2.92,4.8-4.38,6.25-1.45,1.46-3.02,2.4-4.69,2.81-1.46.63-3.23.94-5.32.94ZM962.25,242.86c.21,1.46.21,2.61,0,3.44,0,.63-.11,1.25-.31,1.88v2.19c0,.63.21,1.67.63,3.13-4.38,7.09-9.49,11.99-15.32,14.7-5.63,2.5-11.78,4.38-18.45,5.63-6.67,1.04-13.55,2.19-20.63,3.44-6.88,1.25-13.76,3.96-20.64,8.13-2.71-1.04-5.21-1.04-7.5,0-2.08,1.04-5.21,1.35-9.38.94-1.25,1.25-2.82,2.19-4.69,2.81-1.88.42-3.76.94-5.63,1.56.83,1.88,1.15,3.86.94,5.94,0,1.88.31,3.44.93,4.69,7.3.63,15.32.52,24.08-.31,8.96-.83,17.72-1.35,26.26-1.56.21,1.04.11,1.77-.31,2.19-.41.21-.52.73-.31,1.56,1.46,1.04,2.92,2.4,4.38,4.07,1.45,1.46,2.92,2.92,4.38,4.38,1.45,1.46,2.92,2.71,4.38,3.75,1.67.83,3.54,1.15,5.63.94.83,1.67,1.35,3.54,1.56,5.63.42,1.88.21,3.86-.63,5.94-3.34,2.29-6.67,4.69-10.01,7.19-3.34,2.29-6.88,4.38-10.63,6.25-3.55,1.88-7.4,3.44-11.57,4.69-3.96,1.04-8.44,1.46-13.44,1.25h-2.5c-.42,0-1.05-.31-1.88-.94-1.67,1.04-4.06,1.35-7.19.94-2.92-.42-5.21-.1-6.88.94-2.29-1.04-5.11-1.46-8.45-1.25-3.12,0-5.94-.42-8.44-1.25-3.34,4.38-6.36,9.07-9.07,14.07-2.71,5-5.1,10.32-7.19,15.95,7.09,1.04,12.93,1.46,17.51,1.25,4.8-.21,9.28-.52,13.45-.94,4.17-.63,8.44-1.15,12.82-1.56,4.38-.63,9.9-.83,16.57-.63,4.17-2.29,9.07-3.75,14.7-4.38,5.84-.83,11.15-2.09,15.95-3.75,1.67.63,3.13,1.77,4.38,3.44,1.25,1.46,2.39,2.92,3.44,4.38,1.25,1.25,2.5,2.4,3.75,3.44,1.25,1.04,2.82,1.46,4.69,1.25.83.83,1.36,1.88,1.57,3.13.41,1.04.73,2.08.93,3.13.21,1.04.53,1.98.94,2.81.63.63,1.56.83,2.82.63-3.13,6.88-6.78,12.19-10.95,15.95-3.96,3.54-8.55,6.25-13.76,8.13-5.21,1.88-11.05,3.34-17.51,4.38-6.26,1.04-13.24,2.29-20.95,3.75-1.87.42-3.44.31-4.69-.31-1.25-.42-2.71-.63-4.38-.63-4.8,1.04-10.53,1.98-17.2,2.81-6.67.83-13.45,1.15-20.33.94-6.88-.21-13.45-1.15-19.7-2.81-6.26-1.46-11.37-4.17-15.32-8.13-1.67-1.46-2.82-3.13-3.44-5-.41-2.09-1.77-3.65-4.06-4.69-.21-2.71-.63-5.73-1.25-9.07-.63-3.34-1.25-6.77-1.87-10.32-.63-3.75-1.15-7.4-1.56-10.94-.21-3.54,0-6.78.62-9.69.63-3.13,1.88-5.94,3.76-8.44,2.08-2.5,2.82-5.21,2.19-8.13,1.04-.21,1.67-.73,1.87-1.56.21-1.04,1.04-1.46,2.5-1.25,1.25-3.75,2.61-7.3,4.07-10.63,1.45-3.34,2.92-6.57,4.38-9.69,1.67-3.13,3.23-6.25,4.69-9.38,1.67-3.34,3.23-6.98,4.69-10.94-2.92-2.71-5.1-5.63-6.56-8.76-1.25-3.34-2.19-6.57-2.82-9.69-.63-3.34-1.15-6.67-1.57-10.01-.41-3.54-1.14-7.09-2.19-10.63,2.09-3.13,4.59-5.63,7.5-7.5,3.13-2.08,6.46-3.75,10.01-5,3.55-1.25,7.4-2.29,11.57-3.13,4.17-.83,8.55-1.77,13.13-2.81,8.34-2.71,15.74-4.79,22.21-6.25,6.67-1.46,13.13-2.61,19.39-3.44,6.46-1.04,13.13-1.98,20.01-2.81,6.88-.83,14.7-2.08,23.45-3.75,1.88,1.88,3.65,2.81,5.32,2.81.83-1.88,1.77-2.4,2.82-1.56,1.25.63,1.77,0,1.57-1.88,2.08,3.54,4.69,6.57,7.82,9.07,3.34,2.29,6.98,4.27,10.94,5.94ZM1018.85,362c-1.87.42-3.23,1.56-4.06,3.44-.83,1.67-1.67,3.44-2.5,5.32-.63,1.88-1.35,3.65-2.19,5.32-.63,1.46-1.67,2.19-3.13,2.19-.21,1.67-.83,3.13-1.87,4.38-.83,1.25-1.67,2.61-2.5,4.07-.83,1.25-1.46,2.71-1.87,4.38-.42,1.46-.21,3.23.63,5.32-1.67,1.25-2.72,3.02-3.13,5.32-.42,2.29-.94,4.48-1.57,6.57-.41,2.09-1.25,3.86-2.5,5.32-1.25,1.46-3.54,2.08-6.88,1.88-.63.83-.73,1.35-.31,1.56.42.21.73.94.94,2.19-2.29-.42-4.07-.31-5.32.31-1.04.83-2.39,1.35-4.06,1.56-3.96-1.25-7.3-3.44-10.01-6.57-2.5-3.13-4.8-6.57-6.88-10.32-1.87-3.96-3.64-7.92-5.31-11.88-1.46-3.96-2.92-7.4-4.38-10.32.63-2.29.73-4.48.31-6.57-.41-2.29-1.15-4.17-2.19-5.63,10.21-21.68,21.37-44.82,33.46-69.42,12.09-24.6,23.55-48.89,34.39-72.86,4.8,1.88,9.49,4.07,14.07,6.57,4.8,2.29,9.07,5,12.82,8.13,3.96,3.13,7.3,6.77,10.01,10.94,2.71,3.96,4.48,8.44,5.32,13.45-.41,1.25-.94,1.77-1.56,1.56-.42-.42-.83-.31-1.25.31.83,1.04,1.25,1.77,1.25,2.19.21.42.21.83,0,1.25v1.88c0,.63.31,1.56.93,2.81-.83-.21-1.45-.1-1.87.31-.21.42-.83.42-1.87,0,.83,2.29,1.04,4.17.63,5.63-.21,1.46-.63,2.81-1.25,4.07-.63,1.04-1.15,2.29-1.56,3.75-.42,1.25-.31,2.92.31,5-.62,0-1.14.21-1.56.63-.21.21-.41.52-.63.94-.21.21-.52.52-.93.94-.21.21-.63.21-1.25,0,.63,4.59.83,9.17.63,13.76-.21,4.59-.41,9.28-.63,14.07,0,4.59.11,9.49.31,14.7.21,5,.94,10.21,2.19,15.63,7.5-4.38,13.45-10.01,17.82-16.89,4.59-6.88,8.24-14.59,10.95-23.14,2.92-8.55,5.1-17.72,6.56-27.52,1.46-9.8,3.02-19.8,4.69-30.02,1.87-1.88,3.34-4.17,4.38-6.88,1.04-2.71,1.97-5.52,2.81-8.44.83-3.13,1.67-6.15,2.5-9.07.83-3.13,1.88-5.94,3.13-8.44,3.13.42,5.73,1.46,7.82,3.13,2.29,1.46,4.38,3.13,6.25,5,1.88,1.67,3.86,3.34,5.94,5,2.09,1.46,4.69,2.4,7.82,2.81,2.5,3.54,4.8,6.98,6.88,10.32,2.09,3.34,3.44,6.88,4.07,10.63-1.05,1.67-1.88,3.54-2.5,5.63-.42,2.09-.94,4.17-1.57,6.25-.63,2.08-1.45,4.06-2.5,5.94-1.04,1.67-2.5,3.13-4.38,4.38-.63,5.42-1.46,10.42-2.5,15.01-.83,4.38-1.77,8.76-2.82,13.13-.83,4.38-1.56,8.96-2.19,13.76-.63,4.59-.83,9.69-.63,15.32-1.67,4.79-3.44,9.9-5.32,15.32-1.87,5.42-3.34,10.32-4.38,14.7-3.34,2.71-5.94,5.94-7.82,9.69-1.87,3.75-3.86,7.5-5.94,11.26-.83.83-1.35,1.04-1.57.63-.21-.42-.93-.73-2.19-.94.21.83.21,1.46,0,1.88-.21.42-.52.83-.93,1.25-.21.21-.42.63-.63,1.25,0,.63.21,1.46.63,2.5-2.92,1.25-5.53,3.02-7.82,5.32-2.29,2.29-4.8,4.38-7.5,6.25-2.5,1.88-5.63,3.13-9.39,3.75-3.54.63-8.23-.1-14.07-2.19-8.55-6.25-16.16-13.45-22.83-21.58-6.46-8.13-11.77-17.82-15.95-29.08ZM1442.56,407.65c-10.01.42-18.87.21-26.58-.63-7.5-.83-14.91-2.81-22.2-5.94-.42-.21-.83-.73-1.25-1.56-.41-.83-.83-1.46-1.25-1.88-1.25-.63-2.82-.83-4.69-.63-1.67,0-3.13-.21-4.38-.63-1.67-.83-4.27-2.4-7.82-4.69-3.54-2.5-6.77-4.8-9.69-6.88-3.75-2.92-7.3-5.84-10.63-8.76s-6.25-6.05-8.75-9.38c-.63-.83-1.46-1.25-2.5-1.25-1.04-.21-1.98-.52-2.82-.94-6.04,3.75-11.15,8.44-15.32,14.07-4.17,5.63-8.13,11.36-11.88,17.2-3.76,5.84-7.71,11.36-11.88,16.57-4.17,5.21-9.49,9.17-15.95,11.88-1.87,0-3.54-.31-5-.94-1.46-.63-2.82-1.46-4.06-2.5-1.25-.83-2.5-1.67-3.76-2.5-1.25-.83-2.6-1.46-4.06-1.88,0-2.5-.52-4.8-1.56-6.88-.84-2.09-1.77-4.07-2.82-5.94-.83-1.88-1.46-3.65-1.88-5.32-.41-1.88,0-3.65,1.25-5.32-1.25-1.25-3.13-2.61-5.63-4.07,1.25-1.25,1.77-2.4,1.56-3.44,0-1.04-.21-2.08-.62-3.13-.42-1.04-.83-2.19-1.25-3.44-.21-1.25.11-2.5.94-3.75,1.04,0,2.29-.21,3.75-.63-1.25-1.67-1.87-2.61-1.87-2.81.21-.42,0-.94-.63-1.56-.41-1.25-.21-1.98.63-2.19l2.5-1.25c.83-10.22,2.61-19.7,5.32-28.46,2.71-8.75,5.73-17.2,9.07-25.33,3.34-8.13,6.57-16.36,9.7-24.7,3.34-8.34,6.04-17.3,8.13-26.89,2.29-2.29,4.07-5,5.32-8.13,1.46-3.13,2.92-6.25,4.38-9.38,1.67-3.13,3.44-6.15,5.32-9.07,2.09-3.13,4.9-5.63,8.45-7.5,2.92.21,5.52,1.04,7.82,2.5,2.29,1.25,5.1,1.77,8.44,1.56.63,1.04,1.15,2.08,1.57,3.13.63,1.04,1.35,2.08,2.19,3.13l4.69-.94c2.29,1.88,4.28,4.27,5.94,7.19,1.87,2.71,3.12,5.63,3.75,8.76.63,3.13.52,6.15-.31,9.07-.83,2.71-2.82,4.9-5.94,6.57.21,1.04.21,1.88,0,2.5,0,.42-.11.83-.31,1.25-.21.42-.31.83-.31,1.25s.31,1.04.94,1.88c-4.18,3.13-7.3,7.5-9.39,13.13-2.08,5.63-3.23,10.63-3.44,15.01,2.5-2.5,5.21-4.9,8.13-7.19,3.13-2.5,6.26-4.9,9.39-7.19,3.34-2.29,6.46-4.48,9.38-6.57,3.13-2.08,5.94-4.17,8.44-6.25,6.88-6.25,13.45-11.26,19.71-15.01,6.46-3.96,13.24-8.34,20.32-13.13,1.67-.42,2.92-.42,3.76,0,1.04.21,2.09.52,3.13.94,0-1.25-.42-1.98-1.25-2.19-.63-.21-.83-1.04-.63-2.5,3.13-.83,5.84-1.77,8.13-2.81,2.29-1.25,4.8-2.4,7.5-3.44,1.88,1.88,3.65,3.86,5.32,5.94,1.67,1.88,3.96,3.02,6.88,3.44,1.05,2.29,2.29,4.07,3.76,5.32,1.46,1.04,2.92,2.08,4.38,3.13,1.46,1.04,2.71,2.29,3.76,3.75,1.25,1.46,1.97,3.75,2.19,6.88-.83,1.46-1.77,3.02-2.82,4.69-.83,1.67-1.67,3.65-2.5,5.94-4.17,3.75-8.45,7.09-12.82,10.01-4.17,2.92-8.45,5.73-12.82,8.44-4.38,2.71-8.86,5.42-13.44,8.13-4.59,2.71-9.28,5.94-14.08,9.69-1.04,1.46-2.39,2.81-4.06,4.07-1.46,1.04-3.02,2.19-4.69,3.44-1.67,1.04-3.24,2.19-4.7,3.44-1.45,1.25-2.6,2.71-3.44,4.38-.63.21-1.25.31-1.87.31s-1.25.1-1.88.31c-.62,1.46-1.67,2.61-3.12,3.44-1.25.83-2.09,1.98-2.5,3.44,3.12,6.67,7.19,11.78,12.19,15.32s10.63,6.15,16.88,7.82c6.26,1.46,13.03,2.29,20.33,2.5h22.83c.83-.21,1.15-.63.93-1.25,0-.83.53-1.15,1.57-.94,5,1.67,8.86,4.06,11.57,7.19,2.71,2.92,5.94,5.84,9.69,8.76-.41,7.92-2.82,14.49-7.19,19.7-4.38,5.21-10.21,9.38-17.51,12.51ZM1526.98,397.02c1.05,6.25.63,11.15-1.25,14.7-1.67,3.54-4.17,6.15-7.5,7.82-3.13,1.88-6.78,2.92-10.95,3.13-4.17.21-8.13,0-11.88-.63-2.08-2.92-3.96-6.57-5.63-10.94-1.67-4.38-3.23-8.86-4.69-13.45-1.46-4.79-2.82-9.49-4.06-14.07-1.04-4.59-1.98-8.65-2.82-12.19,1.04-2.5,1.67-5.32,1.87-8.44.42-3.34.63-6.67.63-10.01.21-3.34.31-6.67.31-10.01.21-3.54.52-6.88.93-10.01,1.46-8.76,3.55-17.09,6.26-25.02,2.92-7.92,5.21-16.16,6.88-24.7.42-1.88.21-3.65-.63-5.32-.62-1.67-.73-3.23-.31-4.69.21-.83.84-1.35,1.88-1.56,1.04-.42,1.67-1.15,1.87-2.19.63-2.29.73-4.17.31-5.63-.21-1.46.21-3.23,1.25-5.32,1.05-1.67,2.29-4.06,3.76-7.19,1.67-3.34,2.29-6.77,1.87-10.32,1.87-1.25,3.65-2.71,5.32-4.38,1.67-1.67,3.34-3.13,5-4.38,1.87-1.46,3.86-2.71,5.94-3.75,2.29-1.04,5-1.56,8.13-1.56,1.67,2.08,2.71,4.38,3.13,6.88.63,2.5,1.15,5,1.56,7.5.63,2.5,1.46,4.9,2.51,7.19,1.04,2.08,2.81,3.75,5.31,5v6.25c0,2.5.11,5,.31,7.5.21,2.29.63,4.48,1.25,6.57.83,1.88,2.08,3.13,3.75,3.75-3.75,10.01-7.29,19.91-10.63,29.71-3.13,9.8-5.74,19.7-7.82,29.71-2.09,9.8-3.44,19.7-4.07,29.71-.41,10.01.31,20.12,2.19,30.33ZM1784.96,362.62c-5,8.96-11.57,15.95-19.7,20.95-8.13,4.8-17.09,8.86-26.89,12.2-9.8,3.13-20.12,5.94-30.96,8.44-10.63,2.5-20.95,5.73-30.95,9.69-2.92,0-5.53.1-7.82.31-2.09.21-4.17.52-6.26.94-1.87.21-3.75.52-5.62.94-1.88.21-3.96.42-6.26.63-.83-.21-1.35,0-1.56.63-.21.42-.52.83-.94,1.25-3.54.63-6.78.94-9.69.94h-6.88c-2.5,0-5.11.31-7.82.94-2.5.83-4.8,1.15-6.88.94-15.64-.83-27.94-6.36-36.9-16.57-8.75-10.42-13.66-24.81-14.7-43.15.21-1.04,0-1.67-.63-1.88-.41-.21-.83-.52-1.25-.94,0-2.08.21-3.86.63-5.32.62-1.46.73-3.34.31-5.63,5.42-11.47,11.57-22.1,18.45-31.9,6.88-10.01,15.12-18.76,24.7-26.27,1.46-1.25,2.71-2.5,3.76-3.75s1.98-2.5,2.82-3.75c1.04-1.25,2.19-2.29,3.44-3.13,1.25-1.04,2.82-1.77,4.69-2.19,4.38-5,9.59-9.59,15.64-13.76,6.04-4.17,12.41-8.13,19.08-11.88,6.67-3.96,13.24-7.82,19.7-11.57,6.67-3.96,12.71-8.34,18.13-13.13,2.29,1.04,3.96,1.35,5,.94,1.05-.42,2.19-.42,3.44,0,1.46,3.13,3.44,5.32,5.94,6.57,2.71,1.25,5.31,2.61,7.82,4.06,2.71,1.25,5.21,2.81,7.5,4.69,2.29,1.88,4.07,4.38,5.32,7.5-1.25,0-1.87.52-1.87,1.56.21.83.52,1.77.94,2.81.41.83.52,1.77.31,2.81,0,.83-.73,1.25-2.19,1.25.21,1.04.83,1.67,1.87,1.88,1.25,0,1.87.52,1.87,1.56s-.31,1.88-.94,2.5c-.41.63-.41,1.67,0,3.13-4.17,2.71-8.86,5.32-14.07,7.82-5,2.5-10.32,5.21-15.95,8.13-5.42,2.71-11.15,5.73-17.2,9.07-5.84,3.13-11.57,6.77-17.2,10.94-5.63,4.17-11.36,8.86-17.2,14.07-5.84,5-11.47,10.32-16.88,15.95-5.42,5.63-10.53,11.47-15.32,17.51-4.8,5.84-8.86,11.67-12.19,17.51.41,1.04.83,1.88,1.25,2.5.63.42,1.15,1.15,1.57,2.19,6.67.42,12.81.42,18.45,0,5.84-.63,11.67-.31,17.51.94.63-.42,1.05-1.04,1.25-1.88s.73-1.46,1.56-1.88c11.88-1.25,22.93-3.13,33.15-5.63,10.21-2.71,20.64-5.52,31.27-8.44-1.67-.63-3.23-1.15-4.69-1.56-1.25-.63-2.5-1.15-3.75-1.56-1.04-1.04-1.04-1.88,0-2.5,1.25-.83,2.29-1.67,3.12-2.5-2.92-1.67-5.31-3.75-7.19-6.25-1.67-2.5-2.71-5.84-3.12-10.01,1.25-1.04,1.87-2.29,1.87-3.75s-.63-2.61-1.87-3.44c-.83-.21-1.36-.21-1.57,0s-.41.52-.62.94c0,.42-.11.83-.31,1.25-.21.21-.73.1-1.57-.31.21-1.88.63-3.44,1.25-4.69.83-1.25,1.45-2.71,1.87-4.38l21.57-14.38c2.29,1.67,5.11,3.54,8.45,5.63,3.34,1.88,6.78,3.86,10.32,5.94,3.75,1.88,7.5,3.86,11.25,5.94,3.96,1.88,7.61,3.75,10.95,5.63,2.92,1.25,5.52,2.92,7.82,5s4.48,4.27,6.56,6.57c2.09,2.09,4.17,4.17,6.26,6.25,2.29,2.08,4.9,3.86,7.82,5.32-.42,2.71-.31,4.9.31,6.57.63,1.67.84,3.75.63,6.25ZM595.62,875.24c-1.25,7.09-4.8,11.99-10.63,14.7-2.71.21-4.79.11-6.25-.31-1.25-.41-2.61-.93-4.06-1.56-1.88-.83-3.55-1.35-5-1.56l-3.44-2.5c-.42-1.05-.94-2.09-1.56-3.13-.63-1.04-1.36-2.08-2.19-3.13-1.67-2.08-3.34-4.69-5-7.82-1.25-6.04-1.45-11.05-.62-15.01.83-4.17,1.87-8.23,3.12-12.19.42-1.25.83-2.5,1.25-3.75.41-1.46.83-2.82,1.25-4.07-5.42-2.92-9.48-7.08-12.19-12.51-2.71-5.42-4.27-10.63-4.69-15.63.63-3.96,1.77-7.09,3.44-9.39,1.67-2.5,3.54-4.48,5.63-5.94,2.29-1.46,4.58-2.61,6.88-3.44,2.5-.83,4.9-1.56,7.19-2.19l4.06,1.56c1.88,1.88,3.76,3.34,5.63,4.38,1.46-.63,2.39-1.57,2.82-2.82.63-1.46,1.15-3.02,1.56-4.69.63-1.88,1.25-3.76,1.88-5.63.83-1.87,1.77-3.76,2.81-5.63-.21-2.71.21-5.21,1.25-7.5-1.46-1.04-3.02-1.67-4.69-1.87-.42,0-1.46-.21-3.13-.63-2.5-1.87-4.28-3.44-5.32-4.69-.83-1.46-1.67-2.82-2.5-4.06-1.25-2.72-2.82-4.9-4.69-6.57l-3.13-2.19,1.57-3.13c.41-.41.62-.93.62-1.56s-.41-1.56-1.25-2.82c-.42-2.29-.42-3.86,0-4.69l.63-3.13c1.67-2.29,2.5-3.54,2.5-3.75l2.82-2.82c4.17-1.04,8.23-2.19,12.19-3.44,4.17-1.46,8.34-2.92,12.51-4.38,3.96-1.25,7.92-2.5,11.88-3.75,4.17-1.46,8.34-2.71,12.51-3.75,1.46-1.04,3.02-1.67,4.69-1.88,1.67-.42,3.23-.73,4.69-.94,1.25-.21,2.4-.31,3.44-.31,1.04-.21,1.77-.63,2.19-1.25,2.5-.83,5.42-1.77,8.75-2.81,5.22-1.46,12.09-3.02,20.64-4.69,8.55-1.88,18.14-3.34,28.77-4.38l5.32-.31c1.04.21,2.08.31,3.12.31,1.05-.21,2.09-.31,3.13-.31,9.38,0,15.32,2.81,17.82,8.44,1.87,1.04,3.54,2.19,5,3.44s2.82,2.5,4.06,3.75c.63.83,1.25,1.56,1.88,2.19.83.63,1.45,1.04,1.87,1.25,3.54,5.42,4.69,10.21,3.44,14.38-1.87,2.71-4.27,4.27-7.19,4.69l-3.44,1.88c-2.29-.21-4.07-.31-5.32-.31h-3.44c-5.21,0-11.25.31-18.14.93-6.88.63-13.96,1.57-21.26,2.82-7.09,1.04-13.97,2.4-20.64,4.07-6.67,1.67-12.51,3.44-17.51,5.31l-5.63,2.82c-1.45,2.29-2.29,4.17-2.5,5.63-.21,1.25-.41,2.5-.62,3.76-.21.83-.42,1.67-.63,2.5,0,.83-.11,1.77-.31,2.82-3.54,4.38-5.32,9.59-5.32,15.63-1.46,2.5-2.39,4.38-2.82,5.63-.41,1.04-.41,2.39,0,4.06,3.96,1.67,7.72,2.29,11.26,1.88,3.54-.42,7.08-.94,10.63-1.57,4.79-.83,9.69-1.56,14.7-2.19,5.21-.63,10.53-.94,15.94-.94h10.01l-2.5,2.51,1.57,4.38c1.25.63,2.08,1.04,2.5,1.25.62.21,1.25.52,1.87.94l1.56,2.82c.83.41,1.57,1.15,2.19,2.19.83,1.04,1.36,2.6,1.57,4.69l-12.82,18.14-4.38,1.25c-3.55-.21-6.67.21-9.39,1.25-1.45.41-2.92.83-4.38,1.25-1.46.21-3.02.31-4.69.31-4.17.83-7.71,1.46-10.63,1.87-2.71.42-5.52.83-8.44,1.25-3.76.41-7.4,1.04-10.95,1.87-3.54.63-6.88,1.57-10.01,2.82h-4.38c-1.67,0-3.44.31-5.32.94-1.67.41-3.23.83-4.69,1.25-1.04.83-1.77,1.77-2.19,2.82-.42.83-.83,1.77-1.25,2.82-.83,2.92-1.98,5.32-3.44,7.19v4.69c-1.67,2.09-2.72,3.76-3.13,5-.21,1.04-.52,2.09-.94,3.13-.41.63-.73,1.25-.93,1.87-.21.42-.31.94-.31,1.56,1.67,3.13,2.08,6.67,1.25,10.63ZM879.86,792.06c-.21,2.49,0,4.9.62,7.19.63,2.29,1.35,4.58,2.19,6.88,1.05,2.08,1.98,4.28,2.82,6.56.83,2.29,1.46,4.59,1.88,6.88.41,2.92.41,6.15,0,9.7-.42,3.34-1.15,6.67-2.19,10.01-1.04,3.12-2.39,6.04-4.06,8.75-1.67,2.5-3.65,4.38-5.94,5.63-2.92,3.75-6.46,6.67-10.63,8.75-4.17,2.09-8.02,4.59-11.57,7.5-2.29,1.46-4.9,2.5-7.82,3.13-2.71.63-5.52,1.25-8.44,1.87-2.29,1.25-5,2.61-8.13,4.07-3.13,1.25-6.36,2.5-9.69,3.75-3.34,1.05-6.67,1.87-10.01,2.5-3.34.42-6.26.52-8.76.31-6.25,2.29-12.4,3.76-18.44,4.38-5.84.83-12.71.42-20.64-1.25-7.5,1.04-14.49.73-20.95-.94-6.25-1.67-11.88-4.27-16.88-7.82-4.8-3.75-9.07-8.13-12.82-13.13-3.54-5.22-6.46-10.63-8.75-16.26-1.67-11.88-1.25-22.62,1.25-32.21,2.5-9.8,6.05-18.77,10.63-26.89,4.8-8.34,10.21-15.95,16.26-22.83,6.04-7.09,11.88-13.97,17.51-20.64,1.25.42,2.19.42,2.81,0,.83-.63,1.57-1.35,2.19-2.19.62-1.04,1.25-1.98,1.87-2.82.83-.83,1.77-1.35,2.82-1.56,1.45-3.13,3.54-5.42,6.25-6.88,2.92-1.67,5.21-3.96,6.88-6.88,1.88-.41,3.44-1.04,4.7-1.87,1.25-.83,2.39-1.77,3.44-2.81,1.25-1.04,2.5-1.98,3.76-2.81,1.25-1.04,2.71-1.77,4.38-2.19v-3.44c3.75-1.67,6.46-3.54,8.13-5.63,1.87-2.29,4.06-5,6.56-8.13,1.87-.21,3.34-.31,4.38-.31,1.25,0,3.02-.21,5.32-.63,1.67-2.92,3.13-5.11,4.38-6.57,1.46-1.46,3.55-3.02,6.26-4.69,2.5,1.25,5.21,2.08,8.13,2.5,3.12.42,5.84,1.77,8.13,4.06.21,2.09.83,3.75,1.88,5,1.04,1.04,2.19,2.09,3.44,3.13,1.25.83,2.4,1.77,3.44,2.81,1.25,1.04,2.08,2.5,2.5,4.38.83.21,1.35.1,1.56-.31.42-.42,1.05-.52,1.88-.31.62,2.92,1.35,4.9,2.19,5.94.83.83,1.67,2.61,2.5,5.32-1.05,2.08-1.88,4.27-2.5,6.56-.42,2.09-1.67,3.65-3.76,4.69-.21,1.46.21,2.29,1.25,2.5,1.04,0,1.67.53,1.87,1.57.21,1.87-.11,3.23-.94,4.06,5,8.13,9.49,16.78,13.45,25.96,3.96,8.97,8.45,17.51,13.45,25.64ZM840.77,821.77c.83-2.29,1.87-4.17,3.13-5.63,1.46-1.46,2.29-3.65,2.5-6.57-1.04-1.67-1.67-2.92-1.87-3.75-.21-1.04-.31-2.61-.31-4.69-4.59-6.46-8.55-13.34-11.88-20.64-3.34-7.5-7.09-14.49-11.26-20.95-.41.84-1.15,1.67-2.19,2.51-1.04.83-2.19.62-3.44-.63-.41,1.67-1.15,2.92-2.19,3.75-1.04.63-2.19.94-3.44.94-1.25-.21-2.61-.52-4.07-.94-1.25-.63-2.39-1.35-3.44-2.19-6.05,4.8-12.09,9.49-18.14,14.08-6.04,4.58-11.47,9.9-16.26,15.94-.83.42-1.35.63-1.56.63-.21-.21-.83-.11-1.87.31-1.67,3.96-3.76,7.6-6.26,10.94-2.29,3.13-4.58,6.36-6.88,9.69s-4.28,6.88-5.94,10.63c-1.67,3.76-2.6,8.13-2.82,13.13,3.55,2.92,7.72,4.69,12.51,5.32,4.8.63,9.7.73,14.7.31,5.21-.42,10.21-1.05,15.01-1.87,5-1.05,9.59-1.57,13.76-1.57,8.76-2.08,16.26-4.8,22.51-8.13,6.26-3.54,12.82-7.08,19.7-10.63ZM949.28,853.35c-2.29,8.34-4.38,14.7-6.26,19.07-1.67,4.17-4.27,8.55-7.82,13.13-2.71-.41-4.58-.1-5.62.94-1.05,1.04-2.19,1.98-3.44,2.82-1.87.41-3.23.41-4.06,0-.83-.42-1.57-.94-2.19-1.57-.63-.41-1.46-.93-2.5-1.56-.83-.42-2.19-.63-4.07-.63-.41-1.67-.93-3.23-1.56-4.69-.42-1.46-1.77-1.98-4.07-1.56.42-1.67.53-3.03.31-4.07-.21-1.25-.52-2.29-.93-3.12-.21-1.05-.42-1.98-.63-2.82-.21-1.05-.11-2.29.31-3.76-1.04,0-1.87-.73-2.5-2.19-.63-1.46-1.35-2.92-2.19-4.38.62-3.76,1.25-7.3,1.87-10.63s1.35-6.46,2.19-9.38c1.04-2.92,1.87-5.84,2.5-8.76.63-2.92.31-5.94-.94-9.07.83.63,1.46.52,1.88-.31.41-1.04.73-2.29.93-3.75.21-1.67.31-3.24.31-4.7,0-1.67-.1-3.02-.31-4.06,2.09-5.42,3.76-10.95,5-16.57,1.46-5.84,2.72-11.57,3.76-17.2,1.25-5.62,2.5-11.15,3.75-16.57,1.25-5.42,2.92-10.42,5-15.01,2.29-.41,4.8-.11,7.5.94,2.92.83,4.69,1.98,5.32,3.44,5.42-4.17,10.21-9.17,14.38-15.01,4.17-6.04,8.45-11.88,12.82-17.51,4.38-5.63,9.17-10.63,14.39-15.01,5.42-4.38,12.19-6.98,20.32-7.82,4.17,3.13,8.76,6.36,13.76,9.69,5.21,3.13,9.49,7.3,12.82,12.51,1.67.83,3.02,1.77,4.06,2.81,1.25.83,2.71,1.77,4.38,2.81v3.75c2.5,2.3,4.48,5,5.94,8.13,1.67,2.92,3.13,6.14,4.38,9.69,1.25,3.34,2.5,6.77,3.76,10.32,1.25,3.34,2.71,6.56,4.38,9.69-.41,1.04-.63,1.98-.63,2.82,0,.62.11,1.35.31,2.19.42.83.73,1.67.94,2.5.21.83.21,1.98,0,3.44-.63,9.17-3.65,16.58-9.07,22.2-5.21,5.63-11.57,10.32-19.07,14.08-7.5,3.54-15.53,6.56-24.08,9.07-8.55,2.5-16.26,5.21-23.14,8.13,0,.83.31,1.25.94,1.25.83,0,1.14.52.93,1.56,5,3.13,8.97,5.63,11.88,7.5,2.92,1.87,5.63,3.44,8.13,4.69,2.71,1.25,5.52,2.39,8.45,3.44,3.13.83,7.4,1.87,12.82,3.12,5.42,1.25,9.59,2.29,12.51,3.13,3.12.63,5.94,1.25,8.44,1.87,2.5.42,5,.83,7.5,1.25,2.72.21,6.46.52,11.26.93,1.87,1.88,3.44,4.18,4.69,6.88,1.46,2.5,2.39,5.1,2.82,7.82.41,2.5.52,5,.31,7.5-.21,2.29-.94,4.17-2.19,5.62.21.63.62.94,1.25.94.83-.21,1.67-.21,2.5,0-1.25.83-2.29,1.87-3.13,3.13-.83,1.25-1.67,2.5-2.5,3.75-.83,1.25-1.77,2.29-2.82,3.13-1.04,1.04-2.5,1.67-4.38,1.87-6.46,2.5-14.59,2.61-24.39.31-9.8-2.08-22.2-6.04-37.21-11.88-7.5-2.92-13.66-5.42-18.45-7.5-4.58-2.29-8.65-4.48-12.19-6.57-3.34-2.29-6.46-4.69-9.38-7.19-2.71-2.5-6.04-5.52-10.01-9.07ZM993.99,746.1c-2.29,3.34-4.9,6.36-7.82,9.07-2.71,2.71-5.42,5.52-8.13,8.45-2.5,2.71-4.79,5.84-6.88,9.38-2.08,3.34-3.54,7.3-4.38,11.88,7.3-.83,14.9-2.81,22.83-5.94,7.92-3.34,15.42-6.46,22.51-9.39-.83-6.46-3.13-11.67-6.88-15.63-3.54-3.96-7.29-6.57-11.25-7.82ZM1243.84,834.9c1.25.63,1.98,1.67,2.19,3.13.21,1.46.21,2.61,0,3.44-3.75,4.79-6.36,8.13-7.82,10.01-1.45,1.87-2.5,3.34-3.12,4.38-.63.83-1.36,1.56-2.19,2.19-.62.63-2.19,1.98-4.69,4.07-9.38,5.62-19.07,10.63-29.08,15.01-9.8,4.38-20.12,7.4-30.96,9.07-1.67,2.29-4.9,3.86-9.69,4.69-4.58,1.04-8.86,1.98-12.82,2.82-.83-.42-1.35-1.04-1.56-1.87,0-.63-.42-1.15-1.25-1.57-.21,2.09-1.14,3.13-2.81,3.13-1.67.21-3.76-.21-6.26-1.25-2.29-.84-4.8-2.09-7.5-3.76-2.5-1.46-4.69-2.82-6.56-4.06-1.05,1.67-2.19,3.34-3.44,5-1.04,1.67-2.39,2.82-4.06,3.44-2.29-.41-4.07-.73-5.32-.93-1.04-.21-2.09.21-3.13,1.25-1.25-.63-2.29-1.35-3.13-2.19-.62-.83-1.35-1.67-2.19-2.5-.63-.63-1.46-1.25-2.5-1.87-.83-.63-2.08-1.15-3.75-1.57.41-.83.21-2.08-.63-3.75-.83-1.87-2.09-3.02-3.76-3.44.83-1.46.42-3.23-1.25-5.32-1.46-2.29-2.61-4.79-3.44-7.5.42-2.29.73-4.79.94-7.5.21-2.71,1.46-4.27,3.75-4.69-.21-1.46-.52-2.71-.93-3.75-.42-1.05-.83-2.09-1.25-3.13,1.46-1.25,2.5-2.71,3.13-4.38.63-1.88,1.15-3.76,1.56-5.63.42-1.87.94-3.75,1.57-5.63.63-1.87,1.77-3.44,3.44-4.69,1.88-6.25,3.34-10.84,4.38-13.76,1.04-3.13,1.77-6.15,2.19-9.07.63-2.92,1.25-6.04,1.87-9.38.83-3.34,2.19-7.5,4.06-12.51-.21-3.13.11-5.84.94-8.13.83-2.5,1.67-4.9,2.5-7.19,1.04-2.5,1.87-5,2.5-7.5.63-2.71.52-5.84-.31-9.38-2.92.21-5,1.25-6.25,3.13-1.25,1.67-2.09,3.96-2.5,6.88-1.67,1.67-3.76,2.5-6.26,2.5-2.29-.21-4.38,0-6.25.63-7.3-2.92-13.34-7.09-18.14-12.51-4.8-5.42-8.65-11.78-11.57-19.08,1.87-4.79,4.69-8.75,8.44-11.88,3.76-3.34,8.03-6.05,12.82-8.13,4.8-2.29,9.9-4.06,15.32-5.32,5.42-1.46,10.63-2.81,15.64-4.07,8.13-1.46,16.26-3.13,24.39-5,8.13-1.88,16.88-2.5,26.26-1.88,1.25-.63,2.72-.94,4.38-.94,1.87-.21,3.75-.31,5.62-.31h5.32c1.88-.21,3.44-.63,4.69-1.25,1.05,1.25,2.5,2.08,4.38,2.5,2.08.21,4.27,1.15,6.56,2.81,2.5-1.88,4.59-2.29,6.26-1.25,1.87,1.04,3.54,2.19,5,3.44,1.45,1.25,2.81,2.4,4.06,3.44,1.46,1.04,2.92,1.56,4.38,1.56,1.46,1.88,3.24,3.65,5.32,5.32,2.29,1.67,4.38,3.44,6.26,5.32,2.08,1.67,3.75,3.54,5,5.63,1.45,2.09,2.19,4.48,2.19,7.19-.21,1.05.1,1.67.93,1.88.83.21,1.46.62,1.88,1.25.21,6.46-.83,12.09-3.13,16.88-2.09,4.59-4.8,8.86-8.13,12.82-3.13,3.96-6.67,7.71-10.63,11.26-3.75,3.54-7.19,7.3-10.32,11.25,2.09,2.72,4.48,5.11,7.2,7.19,2.71,2.09,5.42,4.17,8.13,6.26,2.92,2.08,5.63,4.28,8.13,6.56,2.5,2.29,4.59,5,6.26,8.13.41.41.93.83,1.56,1.25.63.21,1.25.52,1.87.93.63,2.09,1.46,4.28,2.5,6.56,1.04,2.09,1.87,4.18,2.5,6.26.83,1.87,1.35,3.65,1.57,5.32.21,1.46-.21,2.71-1.25,3.75ZM1188.8,730.46c-10.63-.41-21.26.52-31.89,2.82-10.43,2.29-19.18,5.52-26.27,9.69,3.55,2.92,7.09,5.52,10.63,7.82,3.76,2.29,6.67,5.42,8.76,9.38,8.13-3.34,15.32-7.5,21.57-12.51,6.25-5.21,11.99-10.94,17.2-17.2ZM1192.87,830.21c.63-2.08,1.77-3.75,3.44-5,1.67-1.25,3.34-2.39,5-3.44,1.67-1.25,3.13-2.5,4.38-3.76,1.25-1.46,1.77-3.44,1.57-5.94-6.67-3.55-12.82-5.63-18.45-6.26-5.42-.83-10.63-.83-15.64,0-4.79.63-9.49,1.67-14.07,3.13-4.38,1.46-8.86,2.5-13.45,3.13-2.29,6.04-4.69,12.61-7.19,19.7-2.5,7.08-4.9,13.96-7.19,20.63,6.26-.83,11.99-2.08,17.2-3.75,5.21-1.87,10.21-3.86,15.01-5.94,5-2.08,9.8-4.17,14.38-6.25,4.8-2.29,9.8-4.38,15.01-6.26ZM1322.01,863.98c1.04,6.25.63,11.15-1.25,14.7-1.67,3.54-4.17,6.15-7.5,7.82-3.12,1.87-6.77,2.92-10.94,3.12-4.17.21-8.13,0-11.89-.62-2.08-2.92-3.96-6.57-5.62-10.95-1.67-4.38-3.24-8.86-4.69-13.45-1.46-4.79-2.82-9.48-4.07-14.07-1.04-4.58-1.98-8.65-2.82-12.19,1.05-2.5,1.67-5.32,1.88-8.45.41-3.34.62-6.67.62-10.01.21-3.34.31-6.67.31-10.01.21-3.54.52-6.88.94-10.01,1.46-8.75,3.54-17.09,6.25-25.02,2.92-7.92,5.22-16.15,6.88-24.7.41-1.87.21-3.65-.63-5.32-.63-1.67-.73-3.23-.31-4.69.21-.83.83-1.35,1.87-1.56,1.04-.42,1.67-1.15,1.87-2.19.63-2.29.73-4.17.31-5.63-.21-1.46.21-3.23,1.25-5.32,1.04-1.67,2.29-4.06,3.75-7.19,1.67-3.34,2.29-6.77,1.88-10.32,1.87-1.25,3.64-2.71,5.31-4.38s3.34-3.13,5-4.38c1.88-1.46,3.86-2.71,5.94-3.75,2.29-1.04,5-1.56,8.13-1.56,1.67,2.08,2.71,4.38,3.13,6.88.62,2.5,1.14,5,1.56,7.5.63,2.5,1.46,4.9,2.5,7.19,1.04,2.08,2.82,3.75,5.32,5v6.26c0,2.5.1,5,.31,7.5.21,2.29.62,4.48,1.25,6.56.83,1.87,2.09,3.13,3.76,3.75-3.76,10.01-7.3,19.91-10.63,29.71-3.13,9.79-5.73,19.7-7.82,29.71-2.08,9.8-3.44,19.7-4.06,29.71-.42,10.01.31,20.12,2.19,30.33Z"/>
  <path class="cls-2" d="M205.22,369.19c.42,1.67.73,3.23.94,4.69s.52,3.02.94,4.69c-.83,2.08-1.56,4.17-2.19,6.25-.63,1.88-1.25,3.75-1.88,5.63-.63,1.46-1.04,2.4-1.25,2.81-.21.42-.31.73-.31.94v.94c.21.21.31,1.04.31,2.5l-1.25,3.75c-1.04,1.46-2.29,2.61-3.75,3.44-1.46.83-2.92,1.56-4.38,2.19-.42.42-1.04.73-1.88.94-.83.42-1.46.83-1.88,1.25l-.94,3.75-4.07.63c-3.54.83-6.57,1.25-9.07,1.25h-3.75c-2.5-2.29-4.48-4.07-5.94-5.32-1.46-1.25-3.02-2.4-4.69-3.44-2.08-2.92-3.23-5-3.44-6.25-.21-1.46-.52-2.81-.94-4.07-.42-2.71-.94-4.48-1.56-5.32l-4.38-4.38,3.75-2.81-3.44-5.94c2.5-1.88,4.38-3.23,5.63-4.07s2.29-1.67,3.13-2.5c.83-1.04,1.77-2.29,2.81-3.75,1.04-1.46,2.71-3.86,5-7.19l2.81-4.07,4.07,2.19c.83.63,2.61,1.25,5.32,1.88,2.92.42,5.42.83,7.5,1.25,3.54,1.04,6.88,1.88,10.01,2.5,3.13.42,5.63,1.46,7.5,3.13l1.25,2.5ZM278.39,369.19c.42,1.67.73,3.23.94,4.69.21,1.46.52,3.02.94,4.69-.83,2.08-1.56,4.17-2.19,6.25-.63,1.88-1.25,3.75-1.88,5.63-.63,1.46-1.04,2.4-1.25,2.81-.21.42-.31.73-.31.94v.94c.21.21.31,1.04.31,2.5l-1.25,3.75c-1.04,1.46-2.29,2.61-3.75,3.44s-2.92,1.56-4.38,2.19c-.42.42-1.04.73-1.88.94-.83.42-1.46.83-1.88,1.25l-.94,3.75-4.06.63c-3.54.83-6.57,1.25-9.07,1.25h-3.75c-2.5-2.29-4.48-4.07-5.94-5.32-1.46-1.25-3.02-2.4-4.69-3.44-2.08-2.92-3.23-5-3.44-6.25-.21-1.46-.52-2.81-.94-4.07-.42-2.71-.94-4.48-1.56-5.32l-4.38-4.38,3.75-2.81-3.44-5.94c2.5-1.88,4.38-3.23,5.63-4.07s2.29-1.67,3.13-2.5c.83-1.04,1.77-2.29,2.81-3.75,1.04-1.46,2.71-3.86,5-7.19l2.81-4.07,4.07,2.19c.83.63,2.61,1.25,5.32,1.88,2.92.42,5.42.83,7.5,1.25,3.54,1.04,6.88,1.88,10.01,2.5,3.13.42,5.63,1.46,7.5,3.13l1.25,2.5ZM351.56,369.19c.42,1.67.73,3.23.94,4.69s.52,3.02.94,4.69c-.83,2.08-1.56,4.17-2.19,6.25-.63,1.88-1.25,3.75-1.88,5.63-.63,1.46-1.04,2.4-1.25,2.81-.21.42-.31.73-.31.94v.94c.21.21.31,1.04.31,2.5l-1.25,3.75c-1.04,1.46-2.29,2.61-3.75,3.44-1.46.83-2.92,1.56-4.38,2.19-.42.42-1.04.73-1.88.94-.83.42-1.46.83-1.88,1.25l-.94,3.75-4.07.63c-3.54.83-6.57,1.25-9.07,1.25h-3.75c-2.5-2.29-4.48-4.07-5.94-5.32-1.46-1.25-3.02-2.4-4.69-3.44-2.08-2.92-3.23-5-3.44-6.25-.21-1.46-.52-2.81-.94-4.07-.42-2.71-.94-4.48-1.56-5.32l-4.38-4.38,3.75-2.81-3.44-5.94c2.5-1.88,4.38-3.23,5.63-4.07s2.29-1.67,3.13-2.5c.83-1.04,1.77-2.29,2.81-3.75,1.04-1.46,2.71-3.86,5-7.19l2.81-4.07,4.07,2.19c.83.63,2.61,1.25,5.32,1.88,2.92.42,5.42.83,7.5,1.25,3.54,1.04,6.88,1.88,10.01,2.5,3.13.42,5.63,1.46,7.5,3.13l1.25,2.5ZM525.73,410.78c-2.08,0-5.32-.31-9.69-.94-3.34-3.54-6.36-8.34-9.07-14.38-2.5-6.25-4.48-12.82-5.94-19.7-1.25-7.09-1.87-14.07-1.87-20.95.21-7.09,1.46-13.34,3.75-18.76,0-.21.94-2.71,2.82-7.5,2.09-4.79,4.69-10.84,7.82-18.14,3.13-7.5,6.67-15.74,10.63-24.7,3.96-9.17,7.92-18.14,11.88-26.89,3.96-8.76,7.71-16.68,11.26-23.76,3.75-7.3,6.98-12.92,9.69-16.89,1.87-2.92,3.54-5.73,5-8.44,1.67-2.71,3.23-5.21,4.69-7.5,2.29-3.75,4.38-7.19,6.25-10.32,2.09-3.34,4.28-6.25,6.57-8.76,2.5-2.71,5.21-5,8.13-6.88,2.92-2.08,6.46-3.86,10.63-5.32,2.5,1.04,4.69,2.19,6.57,3.44,1.87,1.04,3.54,2.4,5,4.06l.93,4.38c.42,1.46,1.04,2.5,1.88,3.13,1.04.42,1.87.63,2.49.63,2.72.63,5,1.35,6.88,2.19,2.08.63,4.27,1.04,6.56,1.25.83,1.25,1.56,2.5,2.19,3.75.83,1.25,1.67,2.4,2.5,3.44,4.17,6.05,7.61,11.88,10.32,17.51,2.71,5.63,2.71,11.78,0,18.45l.31,3.44c1.04,1.46,1.56,2.81,1.56,4.06s-.21,3.02-.62,5.32c-.21,1.67-.42,3.54-.63,5.63,0,1.88.31,3.96.93,6.25l2.19,2.5c3.34,1.67,6.56,2.5,9.69,2.5,4.17,0,7.92-.94,11.25-2.81,3.34-1.88,6.46-3.75,9.39-5.63,2.29-1.67,4.38-3.02,6.25-4.07,2.09-1.04,4.06-1.77,5.94-2.19,4.38-4.17,8.34-7.82,11.88-10.94,3.75-3.34,7.61-6.67,11.57-10.01,7.5-6.05,14.8-12.51,21.89-19.39,7.09-7.09,12.72-15.84,16.89-26.27,2.29-1.46,4.9-2.19,7.82-2.19s5.84.63,8.75,1.88c2.92,1.04,5.84,2.29,8.76,3.75.62.42,1.14.73,1.56.94.63.21,1.25.52,1.87.94,0,2.29.94,4.38,2.82,6.25,1.04.83,1.77,1.36,2.19,1.56.42.21.83.42,1.25.63,1.67,1.04,3.02,1.98,4.06,2.81,1.25.83,2.19,1.98,2.82,3.44,1.87,5.63,5,10.01,9.38,13.13-.41,2.29-.31,4.59.31,6.88.63,2.08,1.35,4.17,2.19,6.25.42.83.73,1.67.94,2.5.21.63.52,1.46.94,2.5l-6.88-.63.94,6.88c.63,3.54.31,7.5-.94,11.88-1.04,4.38-2.29,7.82-3.75,10.32.41,6.25.63,11.26.63,15.01,0,3.54-.21,6.88-.63,10.01-.42,3.13-1.15,6.15-2.19,9.07-.83,2.71-1.98,5.63-3.44,8.76.83,15.84-1.04,30.33-5.63,43.46-4.38,13.13-9.17,25.43-14.38,36.9-.63,1.46-1.25,2.81-1.87,4.06-.63,1.25-1.15,2.5-1.57,3.75-2.29.63-4.38,1.36-6.25,2.19-1.87.83-3.65,1.77-5.32,2.81-2.29,1.46-4.59,2.71-6.88,3.75-2.29.83-4.69,1.25-7.19,1.25-10.01-7.3-15.22-19.91-15.64-37.84-.21-17.93,3.65-40.75,11.57-68.48,1.46-1.04,2.09-2.61,1.87-4.69v-3.44l-3.12-.31c-1.04,0-1.98.1-2.82.31-.83.21-1.46,1.15-1.87,2.81-6.67,4.8-13.97,9.8-21.89,15.01-7.71,5-15.74,9.69-24.08,14.07-8.34,4.17-16.88,7.71-25.64,10.63-8.55,2.71-16.88,4.07-25.02,4.07-20.85,0-36.58-10.63-47.22-31.9l-2.82-5.63-3.12,5c-.63,1.04-1.77,3.13-3.44,6.25-1.46,2.92-3.02,6.36-4.69,10.32-1.46,3.96-2.82,8.03-4.07,12.2-1.04,4.17-1.35,7.82-.93,10.94-2.5,2.29-5,4.9-7.5,7.82-2.29,2.92-3.96,6.25-5,10.01-.42,1.04-.52,2.08-.31,3.13.21.83.52,1.77.94,2.81-.21,1.46-.63,2.5-1.25,3.13-.63.63-1.35,1.25-2.19,1.88-1.04,1.04-2.09,2.19-3.13,3.44-1.04,1.04-1.98,2.29-2.82,3.75-.41,1.25-.73,2.61-.93,4.07-.21,1.25-.42,2.4-.63,3.44,0,2.29-.31,3.86-.94,4.69-2.08,4.38-3.96,8.03-5.63,10.94-1.45,2.71-2.92,4.8-4.38,6.25-1.45,1.46-3.02,2.4-4.69,2.81-1.46.63-3.23.94-5.32.94ZM983.83,230.35c.21,1.46.21,2.61,0,3.44,0,.63-.11,1.25-.31,1.88v2.19c0,.63.21,1.67.63,3.13-4.38,7.09-9.49,11.99-15.32,14.7-5.63,2.5-11.78,4.38-18.45,5.63-6.67,1.04-13.55,2.19-20.63,3.44-6.88,1.25-13.76,3.96-20.64,8.13-2.71-1.04-5.21-1.04-7.5,0-2.08,1.04-5.21,1.35-9.38.94-1.25,1.25-2.82,2.19-4.69,2.81-1.88.42-3.76.94-5.63,1.56.83,1.88,1.15,3.86.94,5.94,0,1.88.31,3.44.93,4.69,7.3.63,15.32.52,24.08-.31,8.96-.83,17.72-1.35,26.26-1.56.21,1.04.11,1.77-.31,2.19-.41.21-.52.73-.31,1.56,1.46,1.04,2.92,2.4,4.38,4.07,1.45,1.46,2.92,2.92,4.38,4.38,1.45,1.46,2.92,2.71,4.38,3.75,1.67.83,3.54,1.15,5.63.94.83,1.67,1.35,3.54,1.56,5.63.42,1.88.21,3.86-.63,5.94-3.34,2.29-6.67,4.69-10.01,7.19-3.34,2.29-6.88,4.38-10.63,6.25-3.55,1.88-7.4,3.44-11.57,4.69-3.96,1.04-8.44,1.46-13.44,1.25h-2.5c-.42,0-1.05-.31-1.88-.94-1.67,1.04-4.06,1.35-7.19.94-2.92-.42-5.21-.1-6.88.94-2.29-1.04-5.11-1.46-8.45-1.25-3.12,0-5.94-.42-8.44-1.25-3.34,4.38-6.36,9.07-9.07,14.07-2.71,5-5.1,10.32-7.19,15.95,7.09,1.04,12.93,1.46,17.51,1.25,4.8-.21,9.28-.52,13.45-.94,4.17-.63,8.44-1.15,12.82-1.56,4.38-.63,9.9-.83,16.57-.63,4.17-2.29,9.07-3.75,14.7-4.38,5.84-.83,11.15-2.09,15.95-3.75,1.67.63,3.13,1.77,4.38,3.44,1.25,1.46,2.39,2.92,3.44,4.38,1.25,1.25,2.5,2.4,3.75,3.44,1.25,1.04,2.82,1.46,4.69,1.25.83.83,1.36,1.88,1.57,3.13.41,1.04.73,2.08.93,3.13.21,1.04.53,1.98.94,2.81.63.63,1.56.83,2.82.63-3.13,6.88-6.78,12.19-10.95,15.95-3.96,3.54-8.55,6.25-13.76,8.13-5.21,1.88-11.05,3.34-17.51,4.38-6.26,1.04-13.24,2.29-20.95,3.75-1.87.42-3.44.31-4.69-.31-1.25-.42-2.71-.63-4.38-.63-4.8,1.04-10.53,1.98-17.2,2.81-6.67.83-13.45,1.15-20.33.94-6.88-.21-13.45-1.15-19.7-2.81-6.26-1.46-11.37-4.17-15.32-8.13-1.67-1.46-2.82-3.13-3.44-5-.41-2.09-1.77-3.65-4.06-4.69-.21-2.71-.63-5.73-1.25-9.07-.63-3.34-1.25-6.77-1.87-10.32-.63-3.75-1.15-7.4-1.56-10.94-.21-3.54,0-6.78.62-9.69.63-3.13,1.88-5.94,3.76-8.44,2.08-2.5,2.82-5.21,2.19-8.13,1.04-.21,1.67-.73,1.87-1.56.21-1.04,1.04-1.46,2.5-1.25,1.25-3.75,2.61-7.3,4.07-10.63,1.45-3.34,2.92-6.57,4.38-9.69,1.67-3.13,3.23-6.25,4.69-9.38,1.67-3.34,3.23-6.98,4.69-10.94-2.92-2.71-5.1-5.63-6.56-8.76-1.25-3.34-2.19-6.57-2.82-9.69-.63-3.34-1.15-6.67-1.57-10.01-.41-3.54-1.14-7.09-2.19-10.63,2.09-3.13,4.59-5.63,7.5-7.5,3.13-2.08,6.46-3.75,10.01-5,3.55-1.25,7.4-2.29,11.57-3.13,4.17-.83,8.55-1.77,13.13-2.81,8.34-2.71,15.74-4.79,22.21-6.25,6.67-1.46,13.13-2.61,19.39-3.44,6.46-1.04,13.13-1.98,20.01-2.81,6.88-.83,14.7-2.08,23.45-3.75,1.88,1.88,3.65,2.81,5.32,2.81.83-1.88,1.77-2.4,2.82-1.56,1.25.63,1.77,0,1.57-1.88,2.08,3.54,4.69,6.57,7.82,9.07,3.34,2.29,6.98,4.27,10.94,5.94ZM1040.42,349.49c-1.87.42-3.23,1.56-4.06,3.44-.83,1.67-1.67,3.44-2.5,5.32-.63,1.88-1.35,3.65-2.19,5.32-.63,1.46-1.67,2.19-3.13,2.19-.21,1.67-.83,3.13-1.87,4.38-.83,1.25-1.67,2.61-2.5,4.07-.83,1.25-1.46,2.71-1.87,4.38-.42,1.46-.21,3.23.63,5.32-1.67,1.25-2.72,3.02-3.13,5.32-.42,2.29-.94,4.48-1.57,6.57-.41,2.09-1.25,3.86-2.5,5.32-1.25,1.46-3.54,2.08-6.88,1.88-.63.83-.73,1.35-.31,1.56.42.21.73.94.94,2.19-2.29-.42-4.07-.31-5.32.31-1.04.83-2.39,1.35-4.06,1.56-3.96-1.25-7.3-3.44-10.01-6.57-2.5-3.13-4.8-6.57-6.88-10.32-1.87-3.96-3.64-7.92-5.31-11.88-1.46-3.96-2.92-7.4-4.38-10.32.63-2.29.73-4.48.31-6.57-.41-2.29-1.15-4.17-2.19-5.63,10.21-21.68,21.37-44.82,33.46-69.42,12.09-24.6,23.55-48.89,34.39-72.86,4.8,1.88,9.49,4.07,14.07,6.57,4.8,2.29,9.07,5,12.82,8.13,3.96,3.13,7.3,6.77,10.01,10.94,2.71,3.96,4.48,8.44,5.32,13.45-.41,1.25-.94,1.77-1.56,1.56-.42-.42-.83-.31-1.25.31.83,1.04,1.25,1.77,1.25,2.19.21.42.21.83,0,1.25v1.88c0,.63.31,1.56.93,2.81-.83-.21-1.45-.1-1.87.31-.21.42-.83.42-1.87,0,.83,2.29,1.04,4.17.63,5.63-.21,1.46-.63,2.81-1.25,4.07-.63,1.04-1.15,2.29-1.56,3.75-.42,1.25-.31,2.92.31,5-.62,0-1.14.21-1.56.63-.21.21-.41.52-.63.94-.21.21-.52.52-.93.94-.21.21-.63.21-1.25,0,.63,4.59.83,9.17.63,13.76-.21,4.59-.41,9.28-.63,14.07,0,4.59.11,9.49.31,14.7.21,5,.94,10.21,2.19,15.63,7.5-4.38,13.45-10.01,17.82-16.89,4.59-6.88,8.24-14.59,10.95-23.14,2.92-8.55,5.1-17.72,6.56-27.52,1.46-9.8,3.02-19.8,4.69-30.02,1.87-1.88,3.34-4.17,4.38-6.88,1.04-2.71,1.97-5.52,2.81-8.44.83-3.13,1.67-6.15,2.5-9.07.83-3.13,1.88-5.94,3.13-8.44,3.13.42,5.73,1.46,7.82,3.13,2.29,1.46,4.38,3.13,6.25,5,1.88,1.67,3.86,3.34,5.94,5,2.09,1.46,4.69,2.4,7.82,2.81,2.5,3.54,4.8,6.98,6.88,10.32,2.09,3.34,3.44,6.88,4.07,10.63-1.05,1.67-1.88,3.54-2.5,5.63-.42,2.09-.94,4.17-1.57,6.25-.63,2.08-1.45,4.06-2.5,5.94-1.04,1.67-2.5,3.13-4.38,4.38-.63,5.42-1.46,10.42-2.5,15.01-.83,4.38-1.77,8.76-2.82,13.13-.83,4.38-1.56,8.96-2.19,13.76-.63,4.59-.83,9.69-.63,15.32-1.67,4.79-3.44,9.9-5.32,15.32-1.87,5.42-3.34,10.32-4.38,14.7-3.34,2.71-5.94,5.94-7.82,9.69-1.87,3.75-3.86,7.5-5.94,11.26-.83.83-1.35,1.04-1.57.63-.21-.42-.93-.73-2.19-.94.21.83.21,1.46,0,1.88-.21.42-.52.83-.93,1.25-.21.21-.42.63-.63,1.25,0,.63.21,1.46.63,2.5-2.92,1.25-5.53,3.02-7.82,5.32-2.29,2.29-4.8,4.38-7.5,6.25-2.5,1.88-5.63,3.13-9.39,3.75-3.54.63-8.23-.1-14.07-2.19-8.55-6.25-16.16-13.45-22.83-21.58-6.46-8.13-11.77-17.82-15.95-29.08ZM1464.13,395.15c-10.01.42-18.87.21-26.58-.63-7.5-.83-14.91-2.81-22.2-5.94-.42-.21-.83-.73-1.25-1.56-.41-.83-.83-1.46-1.25-1.88-1.25-.63-2.82-.83-4.69-.63-1.67,0-3.13-.21-4.38-.63-1.67-.83-4.27-2.4-7.82-4.69-3.54-2.5-6.77-4.8-9.69-6.88-3.75-2.92-7.3-5.84-10.63-8.76s-6.25-6.05-8.75-9.38c-.63-.83-1.46-1.25-2.5-1.25-1.04-.21-1.98-.52-2.82-.94-6.04,3.75-11.15,8.44-15.32,14.07-4.17,5.63-8.13,11.36-11.88,17.2-3.76,5.84-7.71,11.36-11.88,16.57-4.17,5.21-9.49,9.17-15.95,11.88-1.87,0-3.54-.31-5-.94-1.46-.63-2.82-1.46-4.06-2.5-1.25-.83-2.5-1.67-3.76-2.5-1.25-.83-2.6-1.46-4.06-1.88,0-2.5-.52-4.8-1.56-6.88-.84-2.09-1.77-4.07-2.82-5.94-.83-1.88-1.46-3.65-1.88-5.32-.41-1.88,0-3.65,1.25-5.32-1.25-1.25-3.13-2.61-5.63-4.07,1.25-1.25,1.77-2.4,1.56-3.44,0-1.04-.21-2.08-.62-3.13-.42-1.04-.83-2.19-1.25-3.44-.21-1.25.11-2.5.94-3.75,1.04,0,2.29-.21,3.75-.63-1.25-1.67-1.87-2.61-1.87-2.81.21-.42,0-.94-.63-1.56-.41-1.25-.21-1.98.63-2.19l2.5-1.25c.83-10.22,2.61-19.7,5.32-28.46,2.71-8.75,5.73-17.2,9.07-25.33,3.34-8.13,6.57-16.36,9.7-24.7,3.34-8.34,6.04-17.3,8.13-26.89,2.29-2.29,4.07-5,5.32-8.13,1.46-3.13,2.92-6.25,4.38-9.38,1.67-3.13,3.44-6.15,5.32-9.07,2.09-3.13,4.9-5.63,8.45-7.5,2.92.21,5.52,1.04,7.82,2.5,2.29,1.25,5.1,1.77,8.44,1.56.63,1.04,1.15,2.08,1.57,3.13.63,1.04,1.35,2.08,2.19,3.13l4.69-.94c2.29,1.88,4.28,4.27,5.94,7.19,1.87,2.71,3.12,5.63,3.75,8.76.63,3.13.52,6.15-.31,9.07-.83,2.71-2.82,4.9-5.94,6.57.21,1.04.21,1.88,0,2.5,0,.42-.11.83-.31,1.25-.21.42-.31.83-.31,1.25s.31,1.04.94,1.88c-4.18,3.13-7.3,7.5-9.39,13.13-2.08,5.63-3.23,10.63-3.44,15.01,2.5-2.5,5.21-4.9,8.13-7.19,3.13-2.5,6.26-4.9,9.39-7.19,3.34-2.29,6.46-4.48,9.38-6.57,3.13-2.08,5.94-4.17,8.44-6.25,6.88-6.25,13.45-11.26,19.71-15.01,6.46-3.96,13.24-8.34,20.32-13.13,1.67-.42,2.92-.42,3.76,0,1.04.21,2.09.52,3.13.94,0-1.25-.42-1.98-1.25-2.19-.63-.21-.83-1.04-.63-2.5,3.13-.83,5.84-1.77,8.13-2.81,2.29-1.25,4.8-2.4,7.5-3.44,1.88,1.88,3.65,3.86,5.32,5.94,1.67,1.88,3.96,3.02,6.88,3.44,1.05,2.29,2.29,4.07,3.76,5.32,1.46,1.04,2.92,2.08,4.38,3.13,1.46,1.04,2.71,2.29,3.76,3.75,1.25,1.46,1.97,3.75,2.19,6.88-.83,1.46-1.77,3.02-2.82,4.69-.83,1.67-1.67,3.65-2.5,5.94-4.17,3.75-8.45,7.09-12.82,10.01-4.17,2.92-8.45,5.73-12.82,8.44-4.38,2.71-8.86,5.42-13.44,8.13-4.59,2.71-9.28,5.94-14.08,9.69-1.04,1.46-2.39,2.81-4.06,4.07-1.46,1.04-3.02,2.19-4.69,3.44-1.67,1.04-3.24,2.19-4.7,3.44-1.45,1.25-2.6,2.71-3.44,4.38-.63.21-1.25.31-1.87.31s-1.25.1-1.88.31c-.62,1.46-1.67,2.61-3.12,3.44-1.25.83-2.09,1.98-2.5,3.44,3.12,6.67,7.19,11.78,12.19,15.32,5,3.54,10.63,6.15,16.88,7.82,6.26,1.46,13.03,2.29,20.33,2.5h22.83c.83-.21,1.15-.63.93-1.25,0-.83.53-1.15,1.57-.94,5,1.67,8.86,4.06,11.57,7.19,2.71,2.92,5.94,5.84,9.69,8.76-.41,7.92-2.82,14.49-7.19,19.7-4.38,5.21-10.21,9.38-17.51,12.51ZM1548.56,384.51c1.05,6.25.63,11.15-1.25,14.7-1.67,3.54-4.17,6.15-7.5,7.82-3.13,1.88-6.78,2.92-10.95,3.13-4.17.21-8.13,0-11.88-.63-2.08-2.92-3.96-6.57-5.63-10.94-1.67-4.38-3.23-8.86-4.69-13.45-1.46-4.79-2.82-9.49-4.06-14.07-1.04-4.59-1.98-8.65-2.82-12.19,1.04-2.5,1.67-5.32,1.87-8.44.42-3.34.63-6.67.63-10.01.21-3.34.31-6.67.31-10.01.21-3.54.52-6.88.93-10.01,1.46-8.76,3.55-17.09,6.26-25.02,2.92-7.92,5.21-16.16,6.88-24.7.42-1.88.21-3.65-.63-5.32-.62-1.67-.73-3.23-.31-4.69.21-.83.84-1.35,1.88-1.56,1.04-.42,1.67-1.15,1.87-2.19.63-2.29.73-4.17.31-5.63-.21-1.46.21-3.23,1.25-5.32,1.05-1.67,2.29-4.06,3.76-7.19,1.67-3.34,2.29-6.77,1.87-10.32,1.87-1.25,3.65-2.71,5.32-4.38,1.67-1.67,3.34-3.13,5-4.38,1.87-1.46,3.86-2.71,5.94-3.75,2.29-1.04,5-1.56,8.13-1.56,1.67,2.08,2.71,4.38,3.13,6.88.63,2.5,1.15,5,1.56,7.5.63,2.5,1.46,4.9,2.51,7.19,1.04,2.08,2.81,3.75,5.31,5v6.25c0,2.5.11,5,.31,7.5.21,2.29.63,4.48,1.25,6.57.83,1.88,2.08,3.13,3.75,3.75-3.75,10.01-7.29,19.91-10.63,29.71-3.13,9.8-5.74,19.7-7.82,29.71-2.09,9.8-3.44,19.7-4.07,29.71-.41,10.01.31,20.12,2.19,30.33ZM1806.53,350.12c-5,8.96-11.57,15.95-19.7,20.95-8.13,4.8-17.09,8.86-26.89,12.2-9.8,3.13-20.12,5.94-30.96,8.44-10.63,2.5-20.95,5.73-30.95,9.69-2.92,0-5.53.1-7.82.31-2.09.21-4.17.52-6.26.94-1.87.21-3.75.52-5.62.94-1.88.21-3.96.42-6.26.63-.83-.21-1.35,0-1.56.63-.21.42-.52.83-.94,1.25-3.54.63-6.78.94-9.69.94h-6.88c-2.5,0-5.11.31-7.82.94-2.5.83-4.8,1.15-6.88.94-15.64-.83-27.94-6.36-36.9-16.57-8.75-10.42-13.66-24.81-14.7-43.15.21-1.04,0-1.67-.63-1.88-.41-.21-.83-.52-1.25-.94,0-2.08.21-3.86.63-5.32.62-1.46.73-3.34.31-5.63,5.42-11.47,11.57-22.1,18.45-31.9,6.88-10.01,15.12-18.76,24.7-26.27,1.46-1.25,2.71-2.5,3.76-3.75s1.98-2.5,2.82-3.75c1.04-1.25,2.19-2.29,3.44-3.13,1.25-1.04,2.82-1.77,4.69-2.19,4.38-5,9.59-9.59,15.64-13.76,6.04-4.17,12.41-8.13,19.08-11.88,6.67-3.96,13.24-7.82,19.7-11.57,6.67-3.96,12.71-8.34,18.13-13.13,2.29,1.04,3.96,1.35,5,.94,1.05-.42,2.19-.42,3.44,0,1.46,3.13,3.44,5.32,5.94,6.57,2.71,1.25,5.31,2.61,7.82,4.06,2.71,1.25,5.21,2.81,7.5,4.69,2.29,1.88,4.07,4.38,5.32,7.5-1.25,0-1.87.52-1.87,1.56.21.83.52,1.77.94,2.81.41.83.52,1.77.31,2.81,0,.83-.73,1.25-2.19,1.25.21,1.04.83,1.67,1.87,1.88,1.25,0,1.87.52,1.87,1.56s-.31,1.88-.94,2.5c-.41.63-.41,1.67,0,3.13-4.17,2.71-8.86,5.32-14.07,7.82-5,2.5-10.32,5.21-15.95,8.13-5.42,2.71-11.15,5.73-17.2,9.07-5.84,3.13-11.57,6.77-17.2,10.94-5.63,4.17-11.36,8.86-17.2,14.07-5.84,5-11.47,10.32-16.88,15.95-5.42,5.63-10.53,11.47-15.32,17.51-4.8,5.84-8.86,11.67-12.19,17.51.41,1.04.83,1.88,1.25,2.5.63.42,1.15,1.15,1.57,2.19,6.67.42,12.81.42,18.45,0,5.84-.63,11.67-.31,17.51.94.63-.42,1.05-1.04,1.25-1.88s.73-1.46,1.56-1.88c11.88-1.25,22.93-3.13,33.15-5.63,10.21-2.71,20.64-5.52,31.27-8.44-1.67-.63-3.23-1.15-4.69-1.56-1.25-.63-2.5-1.15-3.75-1.56-1.04-1.04-1.04-1.88,0-2.5,1.25-.83,2.29-1.67,3.12-2.5-2.92-1.67-5.31-3.75-7.19-6.25-1.67-2.5-2.71-5.84-3.12-10.01,1.25-1.04,1.87-2.29,1.87-3.75s-.63-2.61-1.87-3.44c-.83-.21-1.36-.21-1.57,0s-.41.52-.62.94c0,.42-.11.83-.31,1.25-.21.21-.73.1-1.57-.31.21-1.88.63-3.44,1.25-4.69.83-1.25,1.45-2.71,1.87-4.38l21.57-14.38c2.29,1.67,5.11,3.54,8.45,5.63,3.34,1.88,6.78,3.86,10.32,5.94,3.75,1.88,7.5,3.86,11.25,5.94,3.96,1.88,7.61,3.75,10.95,5.63,2.92,1.25,5.52,2.92,7.82,5s4.48,4.27,6.56,6.57c2.09,2.09,4.17,4.17,6.26,6.25,2.29,2.08,4.9,3.86,7.82,5.32-.42,2.71-.31,4.9.31,6.57.63,1.67.84,3.75.63,6.25ZM617.19,862.73c-1.25,7.09-4.8,11.99-10.63,14.7-2.71.21-4.79.11-6.25-.31-1.25-.41-2.61-.93-4.06-1.56-1.88-.83-3.55-1.35-5-1.56l-3.44-2.5c-.42-1.05-.94-2.09-1.56-3.13-.63-1.04-1.36-2.08-2.19-3.13-1.67-2.08-3.34-4.69-5-7.82-1.25-6.04-1.45-11.05-.62-15.01.83-4.17,1.87-8.23,3.12-12.19.42-1.25.83-2.5,1.25-3.75.41-1.46.83-2.82,1.25-4.07-5.42-2.92-9.48-7.08-12.19-12.51-2.71-5.42-4.27-10.63-4.69-15.63.63-3.96,1.77-7.09,3.44-9.39,1.67-2.5,3.54-4.48,5.63-5.94,2.29-1.46,4.58-2.61,6.88-3.44,2.5-.83,4.9-1.56,7.19-2.19l4.06,1.56c1.88,1.88,3.76,3.34,5.63,4.38,1.46-.63,2.39-1.57,2.82-2.82.63-1.46,1.15-3.02,1.56-4.69.63-1.88,1.25-3.76,1.88-5.63.83-1.87,1.77-3.76,2.81-5.63-.21-2.71.21-5.21,1.25-7.5-1.46-1.04-3.02-1.67-4.69-1.87-.42,0-1.46-.21-3.13-.63-2.5-1.87-4.28-3.44-5.32-4.69-.83-1.46-1.67-2.82-2.5-4.06-1.25-2.72-2.82-4.9-4.69-6.57l-3.13-2.19,1.57-3.13c.41-.41.62-.93.62-1.56s-.41-1.56-1.25-2.82c-.42-2.29-.42-3.86,0-4.69l.63-3.13c1.67-2.29,2.5-3.54,2.5-3.75l2.82-2.82c4.17-1.04,8.23-2.19,12.19-3.44,4.17-1.46,8.34-2.92,12.51-4.38,3.96-1.25,7.92-2.5,11.88-3.75,4.17-1.46,8.34-2.71,12.51-3.75,1.46-1.04,3.02-1.67,4.69-1.88,1.67-.42,3.23-.73,4.69-.94,1.25-.21,2.4-.31,3.44-.31,1.04-.21,1.77-.63,2.19-1.25,2.5-.83,5.42-1.77,8.75-2.81,5.22-1.46,12.09-3.02,20.64-4.69,8.55-1.88,18.14-3.34,28.77-4.38l5.32-.31c1.04.21,2.08.31,3.12.31,1.05-.21,2.09-.31,3.13-.31,9.38,0,15.32,2.81,17.82,8.44,1.87,1.04,3.54,2.19,5,3.44s2.82,2.5,4.06,3.75c.63.83,1.25,1.56,1.88,2.19.83.63,1.45,1.04,1.87,1.25,3.54,5.42,4.69,10.21,3.44,14.38-1.87,2.71-4.27,4.27-7.19,4.69l-3.44,1.88c-2.29-.21-4.07-.31-5.32-.31h-3.44c-5.21,0-11.25.31-18.14.93-6.88.63-13.96,1.57-21.26,2.82-7.09,1.04-13.97,2.4-20.64,4.07-6.67,1.67-12.51,3.44-17.51,5.31l-5.63,2.82c-1.45,2.29-2.29,4.17-2.5,5.63-.21,1.25-.41,2.5-.62,3.76-.21.83-.42,1.67-.63,2.5,0,.83-.11,1.77-.31,2.82-3.54,4.38-5.32,9.59-5.32,15.63-1.46,2.5-2.39,4.38-2.82,5.63-.41,1.04-.41,2.39,0,4.06,3.96,1.67,7.72,2.29,11.26,1.88,3.54-.42,7.08-.94,10.63-1.57,4.79-.83,9.69-1.56,14.7-2.19,5.21-.63,10.53-.94,15.94-.94h10.01l-2.5,2.51,1.57,4.38c1.25.63,2.08,1.04,2.5,1.25.62.21,1.25.52,1.87.94l1.56,2.82c.83.41,1.57,1.15,2.19,2.19.83,1.04,1.36,2.6,1.57,4.69l-12.82,18.14-4.38,1.25c-3.55-.21-6.67.21-9.39,1.25-1.45.41-2.92.83-4.38,1.25-1.46.21-3.02.31-4.69.31-4.17.83-7.71,1.46-10.63,1.87-2.71.42-5.52.83-8.44,1.25-3.76.41-7.4,1.04-10.95,1.87-3.54.63-6.88,1.57-10.01,2.82h-4.38c-1.67,0-3.44.31-5.32.94-1.67.41-3.23.83-4.69,1.25-1.04.83-1.77,1.77-2.19,2.82-.42.83-.83,1.77-1.25,2.82-.83,2.92-1.98,5.32-3.44,7.19v4.69c-1.67,2.09-2.72,3.76-3.13,5-.21,1.04-.52,2.09-.94,3.13-.41.63-.73,1.25-.93,1.87-.21.42-.31.94-.31,1.56,1.67,3.13,2.08,6.67,1.25,10.63ZM901.44,779.56c-.21,2.49,0,4.9.62,7.19.63,2.29,1.35,4.58,2.19,6.88,1.05,2.08,1.98,4.28,2.82,6.56.83,2.29,1.46,4.59,1.88,6.88.41,2.92.41,6.15,0,9.7-.42,3.34-1.15,6.67-2.19,10.01-1.04,3.12-2.39,6.04-4.06,8.75-1.67,2.5-3.65,4.38-5.94,5.63-2.92,3.75-6.46,6.67-10.63,8.75-4.17,2.09-8.02,4.59-11.57,7.5-2.29,1.46-4.9,2.5-7.82,3.13-2.71.63-5.52,1.25-8.44,1.87-2.29,1.25-5,2.61-8.13,4.07-3.13,1.25-6.36,2.5-9.69,3.75-3.34,1.05-6.67,1.87-10.01,2.5-3.34.42-6.26.52-8.76.31-6.25,2.29-12.4,3.76-18.44,4.38-5.84.83-12.71.42-20.64-1.25-7.5,1.04-14.49.73-20.95-.94-6.25-1.67-11.88-4.27-16.88-7.82-4.8-3.75-9.07-8.13-12.82-13.13-3.54-5.22-6.46-10.63-8.75-16.26-1.67-11.88-1.25-22.62,1.25-32.21,2.5-9.8,6.05-18.77,10.63-26.89,4.8-8.34,10.21-15.95,16.26-22.83,6.04-7.09,11.88-13.97,17.51-20.64,1.25.42,2.19.42,2.81,0,.83-.63,1.57-1.35,2.19-2.19.62-1.04,1.25-1.98,1.87-2.82.83-.83,1.77-1.35,2.82-1.56,1.45-3.13,3.54-5.42,6.25-6.88,2.92-1.67,5.21-3.96,6.88-6.88,1.88-.41,3.44-1.04,4.7-1.87,1.25-.83,2.39-1.77,3.44-2.81,1.25-1.04,2.5-1.98,3.76-2.81,1.25-1.04,2.71-1.77,4.38-2.19v-3.44c3.75-1.67,6.46-3.54,8.13-5.63,1.87-2.29,4.06-5,6.56-8.13,1.87-.21,3.34-.31,4.38-.31,1.25,0,3.02-.21,5.32-.63,1.67-2.92,3.13-5.11,4.38-6.57,1.46-1.46,3.55-3.02,6.26-4.69,2.5,1.25,5.21,2.08,8.13,2.5,3.12.42,5.84,1.77,8.13,4.06.21,2.09.83,3.75,1.88,5,1.04,1.04,2.19,2.09,3.44,3.13,1.25.83,2.4,1.77,3.44,2.81,1.25,1.04,2.08,2.5,2.5,4.38.83.21,1.35.1,1.56-.31.42-.42,1.05-.52,1.88-.31.62,2.92,1.35,4.9,2.19,5.94.83.83,1.67,2.61,2.5,5.32-1.05,2.08-1.88,4.27-2.5,6.56-.42,2.09-1.67,3.65-3.76,4.69-.21,1.46.21,2.29,1.25,2.5,1.04,0,1.67.53,1.87,1.57.21,1.87-.11,3.23-.94,4.06,5,8.13,9.49,16.78,13.45,25.96,3.96,8.97,8.45,17.51,13.45,25.64ZM862.35,809.26c.83-2.29,1.87-4.17,3.13-5.63,1.46-1.46,2.29-3.65,2.5-6.57-1.04-1.67-1.67-2.92-1.87-3.75-.21-1.04-.31-2.61-.31-4.69-4.59-6.46-8.55-13.34-11.88-20.64-3.34-7.5-7.09-14.49-11.26-20.95-.41.84-1.15,1.67-2.19,2.51-1.04.83-2.19.62-3.44-.63-.41,1.67-1.15,2.92-2.19,3.75-1.04.63-2.19.94-3.44.94-1.25-.21-2.61-.52-4.07-.94-1.25-.63-2.39-1.35-3.44-2.19-6.05,4.8-12.09,9.49-18.14,14.08-6.04,4.58-11.47,9.9-16.26,15.94-.83.42-1.35.63-1.56.63-.21-.21-.83-.11-1.87.31-1.67,3.96-3.76,7.6-6.26,10.94-2.29,3.13-4.58,6.36-6.88,9.69s-4.28,6.88-5.94,10.63c-1.67,3.76-2.6,8.13-2.82,13.13,3.55,2.92,7.72,4.69,12.51,5.32,4.8.63,9.7.73,14.7.31,5.21-.42,10.21-1.05,15.01-1.87,5-1.05,9.59-1.57,13.76-1.57,8.76-2.08,16.26-4.8,22.51-8.13,6.26-3.54,12.82-7.08,19.7-10.63ZM970.85,840.84c-2.29,8.34-4.38,14.7-6.26,19.07-1.67,4.17-4.27,8.55-7.82,13.13-2.71-.41-4.58-.1-5.62.94-1.05,1.04-2.19,1.98-3.44,2.82-1.87.41-3.23.41-4.06,0-.83-.42-1.57-.94-2.19-1.57-.63-.41-1.46-.93-2.5-1.56-.83-.42-2.19-.63-4.07-.63-.41-1.67-.93-3.23-1.56-4.69-.42-1.46-1.77-1.98-4.07-1.56.42-1.67.53-3.03.31-4.07-.21-1.25-.52-2.29-.93-3.12-.21-1.05-.42-1.98-.63-2.82-.21-1.05-.11-2.29.31-3.76-1.04,0-1.87-.73-2.5-2.19-.63-1.46-1.35-2.92-2.19-4.38.62-3.76,1.25-7.3,1.87-10.63.63-3.34,1.35-6.46,2.19-9.38,1.04-2.92,1.87-5.84,2.5-8.76.63-2.92.31-5.94-.94-9.07.83.63,1.46.52,1.88-.31.41-1.04.73-2.29.93-3.75.21-1.67.31-3.24.31-4.7,0-1.67-.1-3.02-.31-4.06,2.09-5.42,3.76-10.95,5-16.57,1.46-5.84,2.72-11.57,3.76-17.2,1.25-5.62,2.5-11.15,3.75-16.57,1.25-5.42,2.92-10.42,5-15.01,2.29-.41,4.8-.11,7.5.94,2.92.83,4.69,1.98,5.32,3.44,5.42-4.17,10.21-9.17,14.38-15.01,4.17-6.04,8.45-11.88,12.82-17.51,4.38-5.63,9.17-10.63,14.39-15.01,5.42-4.38,12.19-6.98,20.32-7.82,4.17,3.13,8.76,6.36,13.76,9.69,5.21,3.13,9.49,7.3,12.82,12.51,1.67.83,3.02,1.77,4.06,2.81,1.25.83,2.71,1.77,4.38,2.81v3.75c2.5,2.3,4.48,5,5.94,8.13,1.67,2.92,3.13,6.14,4.38,9.69,1.25,3.34,2.5,6.77,3.76,10.32,1.25,3.34,2.71,6.56,4.38,9.69-.41,1.04-.63,1.98-.63,2.82,0,.62.11,1.35.31,2.19.42.83.73,1.67.94,2.5.21.83.21,1.98,0,3.44-.63,9.17-3.65,16.58-9.07,22.2-5.21,5.63-11.57,10.32-19.07,14.08-7.5,3.54-15.53,6.56-24.08,9.07-8.55,2.5-16.26,5.21-23.14,8.13,0,.83.31,1.25.94,1.25.83,0,1.14.52.93,1.56,5,3.13,8.97,5.63,11.88,7.5,2.92,1.87,5.63,3.44,8.13,4.69,2.71,1.25,5.52,2.39,8.45,3.44,3.13.83,7.4,1.87,12.82,3.12,5.42,1.25,9.59,2.29,12.51,3.13,3.12.63,5.94,1.25,8.44,1.87,2.5.42,5,.83,7.5,1.25,2.72.21,6.46.52,11.26.93,1.87,1.88,3.44,4.18,4.69,6.88,1.46,2.5,2.39,5.1,2.82,7.82.41,2.5.52,5,.31,7.5-.21,2.29-.94,4.17-2.19,5.62.21.63.62.94,1.25.94.83-.21,1.67-.21,2.5,0-1.25.83-2.29,1.87-3.13,3.13-.83,1.25-1.67,2.5-2.5,3.75-.83,1.25-1.77,2.29-2.82,3.13-1.04,1.04-2.5,1.67-4.38,1.87-6.46,2.5-14.59,2.61-24.39.31-9.8-2.08-22.2-6.04-37.21-11.88-7.5-2.92-13.66-5.42-18.45-7.5-4.58-2.29-8.65-4.48-12.19-6.57-3.34-2.29-6.46-4.69-9.38-7.19-2.71-2.5-6.04-5.52-10.01-9.07ZM1015.57,733.59c-2.29,3.34-4.9,6.36-7.82,9.07-2.71,2.71-5.42,5.52-8.13,8.45-2.5,2.71-4.79,5.84-6.88,9.38-2.08,3.34-3.54,7.3-4.38,11.88,7.3-.83,14.9-2.81,22.83-5.94,7.92-3.34,15.42-6.46,22.51-9.39-.83-6.46-3.13-11.67-6.88-15.63-3.54-3.96-7.29-6.57-11.25-7.82ZM1265.41,822.39c1.25.63,1.98,1.67,2.19,3.13.21,1.46.21,2.61,0,3.44-3.75,4.79-6.36,8.13-7.82,10.01-1.45,1.87-2.5,3.34-3.12,4.38-.63.83-1.36,1.56-2.19,2.19-.62.63-2.19,1.98-4.69,4.07-9.38,5.62-19.07,10.63-29.08,15.01-9.8,4.38-20.12,7.4-30.96,9.07-1.67,2.29-4.9,3.86-9.69,4.69-4.58,1.04-8.86,1.98-12.82,2.82-.83-.42-1.35-1.04-1.56-1.87,0-.63-.42-1.15-1.25-1.57-.21,2.09-1.14,3.13-2.81,3.13-1.67.21-3.76-.21-6.26-1.25-2.29-.84-4.8-2.09-7.5-3.76-2.5-1.46-4.69-2.82-6.56-4.06-1.05,1.67-2.19,3.34-3.44,5-1.04,1.67-2.39,2.82-4.06,3.44-2.29-.41-4.07-.73-5.32-.93-1.04-.21-2.09.21-3.13,1.25-1.25-.63-2.29-1.35-3.13-2.19-.62-.83-1.35-1.67-2.19-2.5-.63-.63-1.46-1.25-2.5-1.87-.83-.63-2.08-1.15-3.75-1.57.41-.83.21-2.08-.63-3.75-.83-1.87-2.09-3.02-3.76-3.44.83-1.46.42-3.23-1.25-5.32-1.46-2.29-2.61-4.79-3.44-7.5.42-2.29.73-4.79.94-7.5.21-2.71,1.46-4.27,3.75-4.69-.21-1.46-.52-2.71-.93-3.75-.42-1.05-.83-2.09-1.25-3.13,1.46-1.25,2.5-2.71,3.13-4.38.63-1.88,1.15-3.76,1.56-5.63.42-1.87.94-3.75,1.57-5.63.63-1.87,1.77-3.44,3.44-4.69,1.88-6.25,3.34-10.84,4.38-13.76,1.04-3.13,1.77-6.15,2.19-9.07.63-2.92,1.25-6.04,1.87-9.38.83-3.34,2.19-7.5,4.06-12.51-.21-3.13.11-5.84.94-8.13.83-2.5,1.67-4.9,2.5-7.19,1.04-2.5,1.87-5,2.5-7.5.63-2.71.52-5.84-.31-9.38-2.92.21-5,1.25-6.25,3.13-1.25,1.67-2.09,3.96-2.5,6.88-1.67,1.67-3.76,2.5-6.26,2.5-2.29-.21-4.38,0-6.25.63-7.3-2.92-13.34-7.09-18.14-12.51-4.8-5.42-8.65-11.78-11.57-19.08,1.87-4.79,4.69-8.75,8.44-11.88,3.76-3.34,8.03-6.05,12.82-8.13,4.8-2.29,9.9-4.06,15.32-5.32,5.42-1.46,10.63-2.81,15.64-4.07,8.13-1.46,16.26-3.13,24.39-5,8.13-1.88,16.88-2.5,26.26-1.88,1.25-.63,2.72-.94,4.38-.94,1.87-.21,3.75-.31,5.62-.31h5.32c1.88-.21,3.44-.63,4.69-1.25,1.05,1.25,2.5,2.08,4.38,2.5,2.08.21,4.27,1.15,6.56,2.81,2.5-1.88,4.59-2.29,6.26-1.25,1.87,1.04,3.54,2.19,5,3.44,1.45,1.25,2.81,2.4,4.06,3.44,1.46,1.04,2.92,1.56,4.38,1.56,1.46,1.88,3.24,3.65,5.32,5.32,2.29,1.67,4.38,3.44,6.26,5.32,2.08,1.67,3.75,3.54,5,5.63,1.45,2.09,2.19,4.48,2.19,7.19-.21,1.05.1,1.67.93,1.88.83.21,1.46.62,1.88,1.25.21,6.46-.83,12.09-3.13,16.88-2.09,4.59-4.8,8.86-8.13,12.82-3.13,3.96-6.67,7.71-10.63,11.26-3.75,3.54-7.19,7.3-10.32,11.25,2.09,2.72,4.48,5.11,7.2,7.19,2.71,2.09,5.42,4.17,8.13,6.26,2.92,2.08,5.63,4.28,8.13,6.56,2.5,2.29,4.59,5,6.26,8.13.41.41.93.83,1.56,1.25.63.21,1.25.52,1.87.93.63,2.09,1.46,4.28,2.5,6.56,1.04,2.09,1.87,4.18,2.5,6.26.83,1.87,1.35,3.65,1.57,5.32.21,1.46-.21,2.71-1.25,3.75ZM1210.38,717.95c-10.63-.41-21.26.52-31.89,2.82-10.43,2.29-19.18,5.52-26.27,9.69,3.55,2.92,7.09,5.52,10.63,7.82,3.76,2.29,6.67,5.42,8.76,9.38,8.13-3.34,15.32-7.5,21.57-12.51,6.25-5.21,11.99-10.94,17.2-17.2ZM1214.44,817.7c.63-2.08,1.77-3.75,3.44-5,1.67-1.25,3.34-2.39,5-3.44,1.67-1.25,3.13-2.5,4.38-3.76,1.25-1.46,1.77-3.44,1.57-5.94-6.67-3.55-12.82-5.63-18.45-6.26-5.42-.83-10.63-.83-15.64,0-4.79.63-9.49,1.67-14.07,3.13-4.38,1.46-8.86,2.5-13.45,3.13-2.29,6.04-4.69,12.61-7.19,19.7-2.5,7.08-4.9,13.96-7.19,20.63,6.26-.83,11.99-2.08,17.2-3.75,5.21-1.87,10.21-3.86,15.01-5.94,5-2.08,9.8-4.17,14.38-6.25,4.8-2.29,9.8-4.38,15.01-6.26ZM1343.59,851.48c1.04,6.25.63,11.15-1.25,14.7-1.67,3.54-4.17,6.15-7.5,7.82-3.12,1.87-6.77,2.92-10.94,3.12-4.17.21-8.13,0-11.89-.62-2.08-2.92-3.96-6.57-5.62-10.95-1.67-4.38-3.24-8.86-4.69-13.45-1.46-4.79-2.82-9.48-4.07-14.07-1.04-4.58-1.98-8.65-2.82-12.19,1.05-2.5,1.67-5.32,1.88-8.45.41-3.34.62-6.67.62-10.01.21-3.34.31-6.67.31-10.01.21-3.54.52-6.88.94-10.01,1.46-8.75,3.54-17.09,6.25-25.02,2.92-7.92,5.22-16.15,6.88-24.7.41-1.87.21-3.65-.63-5.32-.63-1.67-.73-3.23-.31-4.69.21-.83.83-1.35,1.87-1.56,1.04-.42,1.67-1.15,1.87-2.19.63-2.29.73-4.17.31-5.63-.21-1.46.21-3.23,1.25-5.32,1.04-1.67,2.29-4.06,3.75-7.19,1.67-3.34,2.29-6.77,1.88-10.32,1.87-1.25,3.64-2.71,5.31-4.38s3.34-3.13,5-4.38c1.88-1.46,3.86-2.71,5.94-3.75,2.29-1.04,5-1.56,8.13-1.56,1.67,2.08,2.71,4.38,3.13,6.88.62,2.5,1.14,5,1.56,7.5.63,2.5,1.46,4.9,2.5,7.19,1.04,2.08,2.82,3.75,5.32,5v6.26c0,2.5.1,5,.31,7.5.21,2.29.62,4.48,1.25,6.56.83,1.87,2.09,3.13,3.76,3.75-3.76,10.01-7.3,19.91-10.63,29.71-3.13,9.79-5.73,19.7-7.82,29.71-2.08,9.8-3.44,19.7-4.06,29.71-.42,10.01.31,20.12,2.19,30.33Z"/>
</svg>